<?xml version="1.0" encoding="utf-8"?>
<svg xmlns="http://www.w3.org/2000/svg" xmlns:xlink="http://www.w3.org/1999/xlink" width="600" height="400" viewBox="0 0 2400 1600">
<defs>
  <clipPath id="clip280">
    <rect x="0" y="0" width="2400" height="1600"/>
  </clipPath>
</defs>
<path clip-path="url(#clip280)" d="M0 1600 L2400 1600 L2400 0 L0 0  Z" fill="#ffffff" fill-rule="evenodd" fill-opacity="1"/>
<defs>
  <clipPath id="clip281">
    <rect x="480" y="0" width="1681" height="1600"/>
  </clipPath>
</defs>
<path clip-path="url(#clip280)" d="M260.635 1423.18 L2352.76 1423.18 L2352.76 123.472 L260.635 123.472  Z" fill="#ffffff" fill-rule="evenodd" fill-opacity="1"/>
<defs>
  <clipPath id="clip282">
    <rect x="260" y="123" width="2093" height="1301"/>
  </clipPath>
</defs>
<polyline clip-path="url(#clip282)" style="stroke:#000000; stroke-linecap:round; stroke-linejoin:round; stroke-width:2; stroke-opacity:0.1; fill:none" points="299.909,1423.18 299.909,123.472 "/>
<polyline clip-path="url(#clip282)" style="stroke:#000000; stroke-linecap:round; stroke-linejoin:round; stroke-width:2; stroke-opacity:0.1; fill:none" points="798.318,1423.18 798.318,123.472 "/>
<polyline clip-path="url(#clip282)" style="stroke:#000000; stroke-linecap:round; stroke-linejoin:round; stroke-width:2; stroke-opacity:0.1; fill:none" points="1296.73,1423.18 1296.73,123.472 "/>
<polyline clip-path="url(#clip282)" style="stroke:#000000; stroke-linecap:round; stroke-linejoin:round; stroke-width:2; stroke-opacity:0.1; fill:none" points="1795.14,1423.18 1795.14,123.472 "/>
<polyline clip-path="url(#clip282)" style="stroke:#000000; stroke-linecap:round; stroke-linejoin:round; stroke-width:2; stroke-opacity:0.1; fill:none" points="2293.54,1423.18 2293.54,123.472 "/>
<polyline clip-path="url(#clip282)" style="stroke:#000000; stroke-linecap:round; stroke-linejoin:round; stroke-width:2; stroke-opacity:0.1; fill:none" points="299.909,1423.18 299.909,123.472 "/>
<polyline clip-path="url(#clip282)" style="stroke:#000000; stroke-linecap:round; stroke-linejoin:round; stroke-width:2; stroke-opacity:0.1; fill:none" points="798.318,1423.18 798.318,123.472 "/>
<polyline clip-path="url(#clip282)" style="stroke:#000000; stroke-linecap:round; stroke-linejoin:round; stroke-width:2; stroke-opacity:0.1; fill:none" points="1296.73,1423.18 1296.73,123.472 "/>
<polyline clip-path="url(#clip282)" style="stroke:#000000; stroke-linecap:round; stroke-linejoin:round; stroke-width:2; stroke-opacity:0.1; fill:none" points="1795.14,1423.18 1795.14,123.472 "/>
<polyline clip-path="url(#clip282)" style="stroke:#000000; stroke-linecap:round; stroke-linejoin:round; stroke-width:2; stroke-opacity:0.1; fill:none" points="2293.54,1423.18 2293.54,123.472 "/>
<polyline clip-path="url(#clip282)" style="stroke:#000000; stroke-linecap:round; stroke-linejoin:round; stroke-width:2; stroke-opacity:0.1; fill:none" points="260.635,1343.18 2352.76,1343.18 "/>
<polyline clip-path="url(#clip282)" style="stroke:#000000; stroke-linecap:round; stroke-linejoin:round; stroke-width:2; stroke-opacity:0.1; fill:none" points="260.635,1026.81 2352.76,1026.81 "/>
<polyline clip-path="url(#clip282)" style="stroke:#000000; stroke-linecap:round; stroke-linejoin:round; stroke-width:2; stroke-opacity:0.1; fill:none" points="260.635,710.442 2352.76,710.442 "/>
<polyline clip-path="url(#clip282)" style="stroke:#000000; stroke-linecap:round; stroke-linejoin:round; stroke-width:2; stroke-opacity:0.1; fill:none" points="260.635,394.071 2352.76,394.071 "/>
<polyline clip-path="url(#clip282)" style="stroke:#000000; stroke-linecap:round; stroke-linejoin:round; stroke-width:2; stroke-opacity:0.1; fill:none" points="260.635,1343.18 2352.76,1343.18 "/>
<polyline clip-path="url(#clip282)" style="stroke:#000000; stroke-linecap:round; stroke-linejoin:round; stroke-width:2; stroke-opacity:0.1; fill:none" points="260.635,1026.81 2352.76,1026.81 "/>
<polyline clip-path="url(#clip282)" style="stroke:#000000; stroke-linecap:round; stroke-linejoin:round; stroke-width:2; stroke-opacity:0.1; fill:none" points="260.635,710.442 2352.76,710.442 "/>
<polyline clip-path="url(#clip282)" style="stroke:#000000; stroke-linecap:round; stroke-linejoin:round; stroke-width:2; stroke-opacity:0.1; fill:none" points="260.635,394.071 2352.76,394.071 "/>
<polyline clip-path="url(#clip280)" style="stroke:#000000; stroke-linecap:round; stroke-linejoin:round; stroke-width:4; stroke-opacity:1; fill:none" points="260.635,1423.18 2352.76,1423.18 "/>
<polyline clip-path="url(#clip280)" style="stroke:#000000; stroke-linecap:round; stroke-linejoin:round; stroke-width:4; stroke-opacity:1; fill:none" points="260.635,123.472 2352.76,123.472 "/>
<polyline clip-path="url(#clip280)" style="stroke:#000000; stroke-linecap:round; stroke-linejoin:round; stroke-width:4; stroke-opacity:1; fill:none" points="299.909,1423.18 299.909,1404.28 "/>
<polyline clip-path="url(#clip280)" style="stroke:#000000; stroke-linecap:round; stroke-linejoin:round; stroke-width:4; stroke-opacity:1; fill:none" points="798.318,1423.18 798.318,1404.28 "/>
<polyline clip-path="url(#clip280)" style="stroke:#000000; stroke-linecap:round; stroke-linejoin:round; stroke-width:4; stroke-opacity:1; fill:none" points="1296.73,1423.18 1296.73,1404.28 "/>
<polyline clip-path="url(#clip280)" style="stroke:#000000; stroke-linecap:round; stroke-linejoin:round; stroke-width:4; stroke-opacity:1; fill:none" points="1795.14,1423.18 1795.14,1404.28 "/>
<polyline clip-path="url(#clip280)" style="stroke:#000000; stroke-linecap:round; stroke-linejoin:round; stroke-width:4; stroke-opacity:1; fill:none" points="2293.54,1423.18 2293.54,1404.28 "/>
<polyline clip-path="url(#clip280)" style="stroke:#000000; stroke-linecap:round; stroke-linejoin:round; stroke-width:4; stroke-opacity:1; fill:none" points="299.909,123.472 299.909,142.37 "/>
<polyline clip-path="url(#clip280)" style="stroke:#000000; stroke-linecap:round; stroke-linejoin:round; stroke-width:4; stroke-opacity:1; fill:none" points="798.318,123.472 798.318,142.37 "/>
<polyline clip-path="url(#clip280)" style="stroke:#000000; stroke-linecap:round; stroke-linejoin:round; stroke-width:4; stroke-opacity:1; fill:none" points="1296.73,123.472 1296.73,142.37 "/>
<polyline clip-path="url(#clip280)" style="stroke:#000000; stroke-linecap:round; stroke-linejoin:round; stroke-width:4; stroke-opacity:1; fill:none" points="1795.14,123.472 1795.14,142.37 "/>
<polyline clip-path="url(#clip280)" style="stroke:#000000; stroke-linecap:round; stroke-linejoin:round; stroke-width:4; stroke-opacity:1; fill:none" points="2293.54,123.472 2293.54,142.37 "/>
<path clip-path="url(#clip280)" d="M289.262 1469.4 Q289.262 1461.96 291.14 1457.91 Q293.758 1451.88 299.934 1451.88 Q301.243 1451.88 302.602 1452.26 Q303.985 1452.6 305.715 1453.96 Q307.469 1455.32 308.531 1457.54 Q310.557 1461.84 310.557 1469.4 Q310.557 1476.79 308.679 1480.81 Q305.937 1486.69 299.885 1486.69 Q297.612 1486.69 295.29 1485.53 Q292.992 1484.37 291.535 1481.58 Q289.262 1477.4 289.262 1469.4 M293.462 1468.78 Q293.462 1476.41 294.005 1479.45 Q294.623 1482.74 296.303 1484.17 Q298.007 1485.58 299.885 1485.58 Q301.91 1485.58 303.59 1484.07 Q305.295 1482.54 305.813 1479.26 Q306.382 1476.02 306.357 1468.78 Q306.357 1461.74 305.863 1458.92 Q305.196 1455.64 303.417 1454.33 Q301.663 1453 299.885 1453 Q299.218 1453 298.501 1453.19 Q297.81 1453.39 296.797 1453.96 Q295.784 1454.53 294.993 1455.94 Q294.228 1457.34 293.857 1459.47 Q293.462 1462.21 293.462 1468.78 Z" fill="#000000" fill-rule="nonzero" fill-opacity="1" /><path clip-path="url(#clip280)" d="M775.566 1485.58 Q775.566 1484.67 775.641 1484.39 Q775.739 1484.12 776.135 1483.7 L785.843 1472.88 Q791.154 1466.9 791.154 1461.69 Q791.154 1458.31 789.376 1455.89 Q787.622 1453.47 784.386 1453.47 Q782.162 1453.47 780.285 1454.82 Q778.407 1456.18 777.543 1458.6 Q777.691 1458.55 778.21 1458.55 Q779.47 1458.55 780.161 1459.34 Q780.878 1460.14 780.878 1461.2 Q780.878 1462.56 779.988 1463.22 Q779.124 1463.87 778.259 1463.87 Q777.913 1463.87 777.444 1463.79 Q776.999 1463.72 776.283 1463.03 Q775.566 1462.31 775.566 1461.05 Q775.566 1457.52 778.234 1454.7 Q780.927 1451.88 785.028 1451.88 Q789.672 1451.88 792.711 1454.65 Q795.774 1457.39 795.774 1461.69 Q795.774 1463.2 795.304 1464.58 Q794.86 1465.94 794.242 1467 Q793.649 1468.07 792.019 1469.77 Q790.388 1471.47 789.079 1472.68 Q787.77 1473.9 784.83 1476.46 L779.47 1481.68 L788.585 1481.68 Q793.032 1481.68 793.378 1481.28 Q793.872 1480.57 794.489 1476.79 L795.774 1476.79 L794.341 1485.58 L775.566 1485.58 Z" fill="#000000" fill-rule="nonzero" fill-opacity="1" /><path clip-path="url(#clip280)" d="M800.863 1477.43 Q800.863 1475.92 801.678 1475.35 Q802.493 1474.76 803.358 1474.76 Q804.519 1474.76 805.186 1475.5 Q805.878 1476.22 805.878 1477.23 Q805.878 1478.24 805.186 1478.98 Q804.519 1479.7 803.358 1479.7 Q802.79 1479.7 802.493 1479.6 Q803.16 1481.92 805.186 1483.6 Q807.236 1485.28 809.929 1485.28 Q813.313 1485.28 815.339 1482 Q816.549 1479.87 816.549 1475.06 Q816.549 1470.81 815.635 1468.68 Q814.227 1465.45 811.337 1465.45 Q807.236 1465.45 804.815 1468.98 Q804.519 1469.42 804.173 1469.45 Q803.679 1469.45 803.555 1469.18 Q803.457 1468.88 803.457 1468.11 L803.457 1453.14 Q803.457 1451.93 803.951 1451.93 Q804.148 1451.93 804.568 1452.08 Q807.755 1453.49 811.288 1453.51 Q814.919 1453.51 818.18 1452.03 Q818.427 1451.88 818.575 1451.88 Q819.069 1451.88 819.094 1452.45 Q819.094 1452.65 818.674 1453.24 Q818.279 1453.81 817.414 1454.58 Q816.549 1455.32 815.438 1456.03 Q814.326 1456.75 812.696 1457.25 Q811.09 1457.71 809.311 1457.71 Q807.187 1457.71 805.013 1457.05 L805.013 1466.9 Q807.631 1464.33 811.436 1464.33 Q815.487 1464.33 818.279 1467.6 Q821.07 1470.86 821.07 1475.4 Q821.07 1480.17 817.76 1483.43 Q814.474 1486.69 810.028 1486.69 Q805.976 1486.69 803.407 1483.8 Q800.863 1480.91 800.863 1477.43 Z" fill="#000000" fill-rule="nonzero" fill-opacity="1" /><path clip-path="url(#clip280)" d="M1273.7 1477.43 Q1273.7 1475.92 1274.52 1475.35 Q1275.33 1474.76 1276.2 1474.76 Q1277.36 1474.76 1278.03 1475.5 Q1278.72 1476.22 1278.72 1477.23 Q1278.72 1478.24 1278.03 1478.98 Q1277.36 1479.7 1276.2 1479.7 Q1275.63 1479.7 1275.33 1479.6 Q1276 1481.92 1278.03 1483.6 Q1280.08 1485.28 1282.77 1485.28 Q1286.15 1485.28 1288.18 1482 Q1289.39 1479.87 1289.39 1475.06 Q1289.39 1470.81 1288.48 1468.68 Q1287.07 1465.45 1284.18 1465.45 Q1280.08 1465.45 1277.66 1468.98 Q1277.36 1469.42 1277.01 1469.45 Q1276.52 1469.45 1276.4 1469.18 Q1276.3 1468.88 1276.3 1468.11 L1276.3 1453.14 Q1276.3 1451.93 1276.79 1451.93 Q1276.99 1451.93 1277.41 1452.08 Q1280.6 1453.49 1284.13 1453.51 Q1287.76 1453.51 1291.02 1452.03 Q1291.27 1451.88 1291.42 1451.88 Q1291.91 1451.88 1291.93 1452.45 Q1291.93 1452.65 1291.51 1453.24 Q1291.12 1453.81 1290.25 1454.58 Q1289.39 1455.32 1288.28 1456.03 Q1287.17 1456.75 1285.54 1457.25 Q1283.93 1457.71 1282.15 1457.71 Q1280.03 1457.71 1277.85 1457.05 L1277.85 1466.9 Q1280.47 1464.33 1284.28 1464.33 Q1288.33 1464.33 1291.12 1467.6 Q1293.91 1470.86 1293.91 1475.4 Q1293.91 1480.17 1290.6 1483.43 Q1287.32 1486.69 1282.87 1486.69 Q1278.82 1486.69 1276.25 1483.8 Q1273.7 1480.91 1273.7 1477.43 Z" fill="#000000" fill-rule="nonzero" fill-opacity="1" /><path clip-path="url(#clip280)" d="M1298.46 1469.4 Q1298.46 1461.96 1300.33 1457.91 Q1302.95 1451.88 1309.13 1451.88 Q1310.44 1451.88 1311.8 1452.26 Q1313.18 1452.6 1314.91 1453.96 Q1316.66 1455.32 1317.73 1457.54 Q1319.75 1461.84 1319.75 1469.4 Q1319.75 1476.79 1317.87 1480.81 Q1315.13 1486.69 1309.08 1486.69 Q1306.81 1486.69 1304.48 1485.53 Q1302.19 1484.37 1300.73 1481.58 Q1298.46 1477.4 1298.46 1469.4 M1302.66 1468.78 Q1302.66 1476.41 1303.2 1479.45 Q1303.82 1482.74 1305.5 1484.17 Q1307.2 1485.58 1309.08 1485.58 Q1311.1 1485.58 1312.78 1484.07 Q1314.49 1482.54 1315.01 1479.26 Q1315.58 1476.02 1315.55 1468.78 Q1315.55 1461.74 1315.06 1458.92 Q1314.39 1455.64 1312.61 1454.33 Q1310.86 1453 1309.08 1453 Q1308.41 1453 1307.7 1453.19 Q1307 1453.39 1305.99 1453.96 Q1304.98 1454.53 1304.19 1455.94 Q1303.42 1457.34 1303.05 1459.47 Q1302.66 1462.21 1302.66 1468.78 Z" fill="#000000" fill-rule="nonzero" fill-opacity="1" /><path clip-path="url(#clip280)" d="M1772.54 1461.79 L1774.2 1451.39 L1775.46 1451.39 Q1775.61 1452.01 1775.86 1452.28 Q1776.13 1452.55 1777.56 1452.77 Q1779.02 1453 1781.96 1453 L1794.23 1453 Q1794.23 1454.16 1793.79 1454.77 L1786.95 1464.38 Q1784.77 1467.42 1783.81 1473.03 Q1783.24 1476.79 1783.27 1481.33 L1783.27 1483.9 Q1783.27 1486.69 1780.92 1486.69 Q1778.6 1486.69 1778.6 1483.9 Q1778.6 1474.24 1784.82 1464.88 Q1785.49 1463.91 1787.94 1460.48 Q1790.41 1457.05 1790.5 1456.9 L1780.03 1456.9 Q1775.44 1456.9 1775.06 1457.2 Q1774.57 1457.64 1773.8 1461.79 L1772.54 1461.79 Z" fill="#000000" fill-rule="nonzero" fill-opacity="1" /><path clip-path="url(#clip280)" d="M1797.52 1477.43 Q1797.52 1475.92 1798.34 1475.35 Q1799.15 1474.76 1800.01 1474.76 Q1801.18 1474.76 1801.84 1475.5 Q1802.53 1476.22 1802.53 1477.23 Q1802.53 1478.24 1801.84 1478.98 Q1801.18 1479.7 1800.01 1479.7 Q1799.45 1479.7 1799.15 1479.6 Q1799.82 1481.92 1801.84 1483.6 Q1803.89 1485.28 1806.59 1485.28 Q1809.97 1485.28 1812 1482 Q1813.21 1479.87 1813.21 1475.06 Q1813.21 1470.81 1812.29 1468.68 Q1810.88 1465.45 1807.99 1465.45 Q1803.89 1465.45 1801.47 1468.98 Q1801.18 1469.42 1800.83 1469.45 Q1800.34 1469.45 1800.21 1469.18 Q1800.11 1468.88 1800.11 1468.11 L1800.11 1453.14 Q1800.11 1451.93 1800.61 1451.93 Q1800.81 1451.93 1801.23 1452.08 Q1804.41 1453.49 1807.94 1453.51 Q1811.58 1453.51 1814.84 1452.03 Q1815.08 1451.88 1815.23 1451.88 Q1815.73 1451.88 1815.75 1452.45 Q1815.75 1452.65 1815.33 1453.24 Q1814.94 1453.81 1814.07 1454.58 Q1813.21 1455.32 1812.09 1456.03 Q1810.98 1456.75 1809.35 1457.25 Q1807.75 1457.71 1805.97 1457.71 Q1803.84 1457.71 1801.67 1457.05 L1801.67 1466.9 Q1804.29 1464.33 1808.09 1464.33 Q1812.14 1464.33 1814.94 1467.6 Q1817.73 1470.86 1817.73 1475.4 Q1817.73 1480.17 1814.42 1483.43 Q1811.13 1486.69 1806.68 1486.69 Q1802.63 1486.69 1800.06 1483.8 Q1797.52 1480.91 1797.52 1477.43 Z" fill="#000000" fill-rule="nonzero" fill-opacity="1" /><path clip-path="url(#clip280)" d="M2258.86 1456.7 L2258.86 1455.12 Q2264.94 1455.12 2268.08 1451.88 Q2268.94 1451.88 2269.09 1452.08 Q2269.24 1452.28 2269.24 1453.19 L2269.24 1481.58 Q2269.24 1483.08 2269.98 1483.55 Q2270.72 1484.02 2273.96 1484.02 L2275.56 1484.02 L2275.56 1485.58 Q2273.78 1485.43 2267.36 1485.43 Q2260.94 1485.43 2259.18 1485.58 L2259.18 1484.02 L2260.79 1484.02 Q2263.98 1484.02 2264.74 1483.58 Q2265.51 1483.11 2265.51 1481.58 L2265.51 1455.37 Q2262.86 1456.7 2258.86 1456.7 Z" fill="#000000" fill-rule="nonzero" fill-opacity="1" /><path clip-path="url(#clip280)" d="M2281.64 1469.4 Q2281.64 1461.96 2283.52 1457.91 Q2286.13 1451.88 2292.31 1451.88 Q2293.62 1451.88 2294.98 1452.26 Q2296.36 1452.6 2298.09 1453.96 Q2299.84 1455.32 2300.91 1457.54 Q2302.93 1461.84 2302.93 1469.4 Q2302.93 1476.79 2301.05 1480.81 Q2298.31 1486.69 2292.26 1486.69 Q2289.99 1486.69 2287.67 1485.53 Q2285.37 1484.37 2283.91 1481.58 Q2281.64 1477.4 2281.64 1469.4 M2285.84 1468.78 Q2285.84 1476.41 2286.38 1479.45 Q2287 1482.74 2288.68 1484.17 Q2290.38 1485.58 2292.26 1485.58 Q2294.29 1485.58 2295.97 1484.07 Q2297.67 1482.54 2298.19 1479.26 Q2298.76 1476.02 2298.73 1468.78 Q2298.73 1461.74 2298.24 1458.92 Q2297.57 1455.64 2295.79 1454.33 Q2294.04 1453 2292.26 1453 Q2291.59 1453 2290.88 1453.19 Q2290.19 1453.39 2289.17 1453.96 Q2288.16 1454.53 2287.37 1455.94 Q2286.6 1457.34 2286.23 1459.47 Q2285.84 1462.21 2285.84 1468.78 Z" fill="#000000" fill-rule="nonzero" fill-opacity="1" /><path clip-path="url(#clip280)" d="M2306.93 1469.4 Q2306.93 1461.96 2308.81 1457.91 Q2311.43 1451.88 2317.61 1451.88 Q2318.92 1451.88 2320.27 1452.26 Q2321.66 1452.6 2323.39 1453.96 Q2325.14 1455.32 2326.2 1457.54 Q2328.23 1461.84 2328.23 1469.4 Q2328.23 1476.79 2326.35 1480.81 Q2323.61 1486.69 2317.56 1486.69 Q2315.28 1486.69 2312.96 1485.53 Q2310.66 1484.37 2309.21 1481.58 Q2306.93 1477.4 2306.93 1469.4 M2311.13 1468.78 Q2311.13 1476.41 2311.68 1479.45 Q2312.29 1482.74 2313.97 1484.17 Q2315.68 1485.58 2317.56 1485.58 Q2319.58 1485.58 2321.26 1484.07 Q2322.97 1482.54 2323.49 1479.26 Q2324.05 1476.02 2324.03 1468.78 Q2324.03 1461.74 2323.53 1458.92 Q2322.87 1455.64 2321.09 1454.33 Q2319.34 1453 2317.56 1453 Q2316.89 1453 2316.17 1453.19 Q2315.48 1453.39 2314.47 1453.96 Q2313.46 1454.53 2312.67 1455.94 Q2311.9 1457.34 2311.53 1459.47 Q2311.13 1462.21 2311.13 1468.78 Z" fill="#000000" fill-rule="nonzero" fill-opacity="1" /><path clip-path="url(#clip280)" d="M1142.33 1568.04 L1142.33 1565.9 L1144.16 1565.9 Q1148.07 1565.9 1148.95 1565.29 Q1149.87 1564.65 1149.87 1562.61 L1149.87 1525.96 Q1149.87 1523.95 1148.95 1523.34 Q1148.03 1522.7 1144.16 1522.7 L1142.33 1522.7 L1142.33 1520.52 Q1144.77 1520.73 1152.99 1520.73 Q1161.15 1520.73 1163.56 1520.52 L1163.56 1522.7 L1161.76 1522.7 Q1157.85 1522.7 1156.93 1523.34 Q1156.05 1523.95 1156.05 1525.96 L1156.05 1562.61 Q1156.05 1564.61 1156.93 1565.26 Q1157.85 1565.9 1161.76 1565.9 L1163.56 1565.9 L1163.56 1568.04 Q1161.11 1567.84 1152.93 1567.84 Q1144.77 1567.84 1142.33 1568.04 Z" fill="#000000" fill-rule="nonzero" fill-opacity="1" /><path clip-path="url(#clip280)" d="M1167.74 1568.04 L1167.74 1565.9 Q1171.44 1565.9 1172.29 1565.46 Q1173.14 1564.99 1173.14 1562.74 L1173.14 1544.1 Q1173.14 1541.52 1172.22 1540.87 Q1171.34 1540.22 1167.74 1540.22 L1167.74 1538.05 L1177.52 1537.3 L1177.52 1544.61 Q1180.78 1537.3 1187.81 1537.3 Q1193.04 1537.3 1195.11 1539.89 Q1196.64 1541.62 1196.95 1543.55 Q1197.29 1545.49 1197.29 1550.52 L1197.29 1563.8 Q1197.36 1565.26 1198.48 1565.6 Q1199.6 1565.9 1202.72 1565.9 L1202.72 1568.04 Q1195.62 1567.84 1194.91 1567.84 Q1194.37 1567.84 1187.06 1568.04 L1187.06 1565.9 Q1190.77 1565.9 1191.61 1565.46 Q1192.5 1564.99 1192.5 1562.74 L1192.5 1546.54 Q1192.5 1543.01 1191.41 1540.94 Q1190.32 1538.83 1187.33 1538.83 Q1183.73 1538.83 1180.85 1541.86 Q1177.96 1544.88 1177.96 1549.97 L1177.96 1562.74 Q1177.96 1564.99 1178.81 1565.46 Q1179.69 1565.9 1183.36 1565.9 L1183.36 1568.04 Q1176.26 1567.84 1175.58 1567.84 Q1175.04 1567.84 1167.74 1568.04 Z" fill="#000000" fill-rule="nonzero" fill-opacity="1" /><path clip-path="url(#clip280)" d="M1203.47 1540.22 L1203.47 1538.7 Q1206.66 1538.56 1208.77 1536.32 Q1210.91 1534.04 1211.62 1531.26 Q1212.37 1528.47 1212.44 1525.25 L1214.17 1525.25 L1214.17 1538.05 L1224.12 1538.05 L1224.12 1540.22 L1214.17 1540.22 L1214.17 1559.55 Q1214.17 1567.06 1218.86 1567.06 Q1220.86 1567.06 1222.19 1565.02 Q1223.51 1562.95 1223.51 1559.28 L1223.51 1555.44 L1225.24 1555.44 L1225.24 1559.42 Q1225.24 1563.19 1223.51 1566.01 Q1221.78 1568.83 1218.35 1568.83 Q1217.09 1568.83 1215.83 1568.49 Q1214.61 1568.18 1212.98 1567.36 Q1211.38 1566.52 1210.36 1564.48 Q1209.38 1562.41 1209.38 1559.42 L1209.38 1540.22 L1203.47 1540.22 Z" fill="#000000" fill-rule="nonzero" fill-opacity="1" /><path clip-path="url(#clip280)" d="M1231.05 1552.72 Q1231.05 1546.17 1235.26 1541.52 Q1239.47 1536.86 1245.52 1536.86 Q1251.63 1536.86 1254.79 1540.84 Q1257.99 1544.81 1257.99 1550.52 Q1257.99 1551.57 1257.71 1551.77 Q1257.44 1551.98 1256.25 1551.98 L1236.82 1551.98 Q1236.82 1559.08 1238.93 1562.41 Q1241.85 1567.06 1246.78 1567.06 Q1247.46 1567.06 1248.27 1566.92 Q1249.09 1566.79 1250.75 1566.21 Q1252.42 1565.6 1253.88 1564 Q1255.34 1562.41 1256.19 1559.89 Q1256.39 1558.91 1257.07 1558.94 Q1257.99 1558.94 1257.99 1559.76 Q1257.99 1560.37 1257.31 1561.76 Q1256.66 1563.12 1255.4 1564.75 Q1254.15 1566.38 1251.7 1567.6 Q1249.29 1568.83 1246.37 1568.83 Q1240.26 1568.83 1235.64 1564.21 Q1231.05 1559.55 1231.05 1552.72 M1236.89 1550.52 L1253.4 1550.52 Q1253.4 1549.06 1253.13 1547.43 Q1252.89 1545.8 1252.14 1543.55 Q1251.43 1541.28 1249.73 1539.85 Q1248.03 1538.42 1245.52 1538.42 Q1244.4 1538.42 1243.18 1538.9 Q1241.99 1539.38 1240.53 1540.53 Q1239.07 1541.69 1238.05 1544.3 Q1237.03 1546.92 1236.89 1550.52 Z" fill="#000000" fill-rule="nonzero" fill-opacity="1" /><path clip-path="url(#clip280)" d="M1261.93 1568.04 L1261.93 1565.9 Q1265.63 1565.9 1266.48 1565.46 Q1267.36 1564.99 1267.36 1562.74 L1267.36 1544.1 Q1267.36 1541.52 1266.44 1540.87 Q1265.56 1540.22 1261.93 1540.22 L1261.93 1538.05 L1271.61 1537.3 L1271.61 1544.95 Q1272.59 1541.96 1274.66 1539.65 Q1276.77 1537.3 1280.17 1537.3 Q1282.41 1537.3 1283.84 1538.56 Q1285.3 1539.82 1285.3 1541.55 Q1285.3 1543.08 1284.34 1543.86 Q1283.43 1544.61 1282.31 1544.61 Q1281.05 1544.61 1280.17 1543.83 Q1279.32 1543.01 1279.32 1541.62 Q1279.32 1540.77 1279.69 1540.12 Q1280.1 1539.44 1280.4 1539.21 Q1280.71 1538.97 1280.91 1538.9 Q1280.78 1538.83 1280.17 1538.83 Q1276.33 1538.83 1274.12 1542.67 Q1271.95 1546.47 1271.95 1551.91 L1271.95 1562.61 Q1271.95 1564.61 1272.76 1565.26 Q1273.61 1565.9 1277.25 1565.9 L1278.71 1565.9 L1278.71 1568.04 Q1275.92 1567.84 1269.87 1567.84 Q1269.03 1567.84 1267.7 1567.87 Q1266.38 1567.91 1264.64 1567.98 Q1262.91 1568.04 1261.93 1568.04 Z" fill="#000000" fill-rule="nonzero" fill-opacity="1" /><path clip-path="url(#clip280)" d="M1290.09 1561.42 Q1290.09 1555.51 1297.05 1552.39 Q1301.23 1550.38 1309.85 1549.87 L1309.85 1547.32 Q1309.85 1543.01 1307.58 1540.73 Q1305.34 1538.42 1302.48 1538.42 Q1297.39 1538.42 1294.94 1541.62 Q1297.01 1541.69 1297.76 1542.74 Q1298.51 1543.76 1298.51 1544.81 Q1298.51 1546.2 1297.63 1547.12 Q1296.78 1548 1295.32 1548 Q1293.92 1548 1293.01 1547.15 Q1292.09 1546.27 1292.09 1544.74 Q1292.09 1541.35 1295.15 1539.1 Q1298.24 1536.86 1302.62 1536.86 Q1308.33 1536.86 1312.13 1540.7 Q1313.32 1541.89 1313.9 1543.42 Q1314.51 1544.95 1314.58 1545.97 Q1314.64 1546.95 1314.64 1548.92 L1314.64 1562.81 Q1314.64 1563.22 1314.78 1563.9 Q1314.92 1564.58 1315.53 1565.46 Q1316.17 1566.31 1317.23 1566.31 Q1319.74 1566.31 1319.7 1561.86 L1319.7 1557.96 L1321.47 1557.96 L1321.47 1561.86 Q1321.47 1565.56 1319.5 1567.02 Q1317.56 1568.45 1315.76 1568.45 Q1313.45 1568.45 1311.99 1566.75 Q1310.53 1565.05 1310.33 1562.74 Q1309.28 1565.39 1306.87 1567.13 Q1304.49 1568.83 1301.23 1568.83 Q1298.71 1568.83 1296.34 1568.18 Q1293.99 1567.57 1292.02 1565.84 Q1290.09 1564.07 1290.09 1561.42 M1295.45 1561.35 Q1295.45 1563.93 1297.29 1565.6 Q1299.12 1567.26 1301.7 1567.26 Q1304.62 1567.26 1307.24 1565.02 Q1309.85 1562.74 1309.85 1558.3 L1309.85 1551.33 Q1302.14 1551.6 1298.78 1554.69 Q1295.45 1557.75 1295.45 1561.35 Z" fill="#000000" fill-rule="nonzero" fill-opacity="1" /><path clip-path="url(#clip280)" d="M1328.74 1564.24 Q1324.32 1559.62 1324.32 1553.03 Q1324.32 1546.41 1328.67 1541.65 Q1333.02 1536.86 1339.41 1536.86 Q1343.65 1536.86 1346.84 1538.9 Q1350.04 1540.9 1350.04 1544.33 Q1350.04 1545.86 1349.12 1546.75 Q1348.24 1547.6 1346.84 1547.6 Q1345.38 1547.6 1344.5 1546.71 Q1343.65 1545.8 1343.65 1544.4 Q1343.65 1543.79 1343.86 1543.18 Q1344.06 1542.57 1344.81 1541.92 Q1345.59 1541.28 1346.91 1541.18 Q1344.43 1538.63 1339.61 1538.63 Q1339.54 1538.63 1339.47 1538.63 Q1335.94 1538.63 1333.02 1541.96 Q1330.1 1545.29 1330.1 1552.89 Q1330.1 1556.87 1331.05 1559.79 Q1332.03 1562.68 1333.63 1564.17 Q1335.23 1565.67 1336.79 1566.38 Q1338.35 1567.06 1339.88 1567.06 Q1346.71 1567.06 1349.02 1559.76 Q1349.22 1559.08 1349.9 1559.08 Q1350.82 1559.08 1350.82 1559.76 Q1350.82 1560.1 1350.55 1560.98 Q1350.28 1561.86 1349.43 1563.25 Q1348.58 1564.65 1347.35 1565.87 Q1346.17 1567.06 1344.03 1567.94 Q1341.92 1568.83 1339.27 1568.83 Q1333.16 1568.83 1328.74 1564.24 Z" fill="#000000" fill-rule="nonzero" fill-opacity="1" /><path clip-path="url(#clip280)" d="M1354.15 1540.22 L1354.15 1538.7 Q1357.34 1538.56 1359.45 1536.32 Q1361.59 1534.04 1362.3 1531.26 Q1363.05 1528.47 1363.11 1525.25 L1364.85 1525.25 L1364.85 1538.05 L1374.8 1538.05 L1374.8 1540.22 L1364.85 1540.22 L1364.85 1559.55 Q1364.85 1567.06 1369.53 1567.06 Q1371.54 1567.06 1372.86 1565.02 Q1374.19 1562.95 1374.19 1559.28 L1374.19 1555.44 L1375.92 1555.44 L1375.92 1559.42 Q1375.92 1563.19 1374.19 1566.01 Q1372.46 1568.83 1369.03 1568.83 Q1367.77 1568.83 1366.51 1568.49 Q1365.29 1568.18 1363.66 1567.36 Q1362.06 1566.52 1361.04 1564.48 Q1360.06 1562.41 1360.06 1559.42 L1360.06 1540.22 L1354.15 1540.22 Z" fill="#000000" fill-rule="nonzero" fill-opacity="1" /><path clip-path="url(#clip280)" d="M1382.1 1568.04 L1382.1 1565.9 Q1385.8 1565.9 1386.65 1565.46 Q1387.5 1564.99 1387.5 1562.74 L1387.5 1544.03 Q1387.5 1541.45 1386.62 1540.84 Q1385.77 1540.22 1382.37 1540.22 L1382.37 1538.05 L1392.09 1537.3 L1392.09 1562.81 Q1392.09 1564.88 1392.84 1565.39 Q1393.58 1565.9 1396.98 1565.9 L1396.98 1568.04 Q1389.88 1567.84 1389.74 1567.84 Q1388.79 1567.84 1382.1 1568.04 M1385.02 1525.18 Q1385.02 1523.78 1386.08 1522.66 Q1387.16 1521.51 1388.69 1521.51 Q1390.22 1521.51 1391.31 1522.56 Q1392.39 1523.58 1392.39 1525.21 Q1392.39 1526.81 1391.31 1527.86 Q1390.22 1528.88 1388.69 1528.88 Q1387.1 1528.88 1386.04 1527.76 Q1385.02 1526.64 1385.02 1525.18 Z" fill="#000000" fill-rule="nonzero" fill-opacity="1" /><path clip-path="url(#clip280)" d="M1405.57 1564.31 Q1400.99 1559.76 1400.99 1553.17 Q1400.99 1546.54 1405.47 1541.72 Q1409.99 1536.86 1416.44 1536.86 Q1422.76 1536.86 1427.28 1541.69 Q1431.83 1546.47 1431.83 1553.17 Q1431.83 1559.72 1427.24 1564.27 Q1422.69 1568.83 1416.38 1568.83 Q1410.19 1568.83 1405.57 1564.31 M1406.76 1552.59 Q1406.76 1559.35 1408.53 1562.41 Q1411.25 1567.06 1416.44 1567.06 Q1419.02 1567.06 1421.16 1565.67 Q1423.34 1564.27 1424.53 1561.93 Q1426.06 1558.87 1426.06 1552.59 Q1426.06 1545.9 1424.22 1542.94 Q1421.5 1538.42 1416.38 1538.42 Q1414.13 1538.42 1411.93 1539.61 Q1409.75 1540.77 1408.43 1543.08 Q1406.76 1546.14 1406.76 1552.59 Z" fill="#000000" fill-rule="nonzero" fill-opacity="1" /><path clip-path="url(#clip280)" d="M1436.08 1568.04 L1436.08 1565.9 Q1439.78 1565.9 1440.63 1565.46 Q1441.48 1564.99 1441.48 1562.74 L1441.48 1544.1 Q1441.48 1541.52 1440.56 1540.87 Q1439.68 1540.22 1436.08 1540.22 L1436.08 1538.05 L1445.86 1537.3 L1445.86 1544.61 Q1449.12 1537.3 1456.15 1537.3 Q1461.38 1537.3 1463.45 1539.89 Q1464.98 1541.62 1465.29 1543.55 Q1465.63 1545.49 1465.63 1550.52 L1465.63 1563.8 Q1465.7 1565.26 1466.82 1565.6 Q1467.94 1565.9 1471.06 1565.9 L1471.06 1568.04 Q1463.96 1567.84 1463.25 1567.84 Q1462.71 1567.84 1455.4 1568.04 L1455.4 1565.9 Q1459.11 1565.9 1459.95 1565.46 Q1460.84 1564.99 1460.84 1562.74 L1460.84 1546.54 Q1460.84 1543.01 1459.75 1540.94 Q1458.66 1538.83 1455.68 1538.83 Q1452.07 1538.83 1449.19 1541.86 Q1446.3 1544.88 1446.3 1549.97 L1446.3 1562.74 Q1446.3 1564.99 1447.15 1565.46 Q1448.03 1565.9 1451.7 1565.9 L1451.7 1568.04 Q1444.6 1567.84 1443.92 1567.84 Q1443.38 1567.84 1436.08 1568.04 Z" fill="#000000" fill-rule="nonzero" fill-opacity="1" /><polyline clip-path="url(#clip280)" style="stroke:#000000; stroke-linecap:round; stroke-linejoin:round; stroke-width:4; stroke-opacity:1; fill:none" points="260.635,1423.18 260.635,123.472 "/>
<polyline clip-path="url(#clip280)" style="stroke:#000000; stroke-linecap:round; stroke-linejoin:round; stroke-width:4; stroke-opacity:1; fill:none" points="2352.76,1423.18 2352.76,123.472 "/>
<polyline clip-path="url(#clip280)" style="stroke:#000000; stroke-linecap:round; stroke-linejoin:round; stroke-width:4; stroke-opacity:1; fill:none" points="260.635,1343.18 279.532,1343.18 "/>
<polyline clip-path="url(#clip280)" style="stroke:#000000; stroke-linecap:round; stroke-linejoin:round; stroke-width:4; stroke-opacity:1; fill:none" points="260.635,1026.81 279.532,1026.81 "/>
<polyline clip-path="url(#clip280)" style="stroke:#000000; stroke-linecap:round; stroke-linejoin:round; stroke-width:4; stroke-opacity:1; fill:none" points="260.635,710.442 279.532,710.442 "/>
<polyline clip-path="url(#clip280)" style="stroke:#000000; stroke-linecap:round; stroke-linejoin:round; stroke-width:4; stroke-opacity:1; fill:none" points="260.635,394.071 279.532,394.071 "/>
<polyline clip-path="url(#clip280)" style="stroke:#000000; stroke-linecap:round; stroke-linejoin:round; stroke-width:4; stroke-opacity:1; fill:none" points="2352.76,1343.18 2333.86,1343.18 "/>
<polyline clip-path="url(#clip280)" style="stroke:#000000; stroke-linecap:round; stroke-linejoin:round; stroke-width:4; stroke-opacity:1; fill:none" points="2352.76,1026.81 2333.86,1026.81 "/>
<polyline clip-path="url(#clip280)" style="stroke:#000000; stroke-linecap:round; stroke-linejoin:round; stroke-width:4; stroke-opacity:1; fill:none" points="2352.76,710.442 2333.86,710.442 "/>
<polyline clip-path="url(#clip280)" style="stroke:#000000; stroke-linecap:round; stroke-linejoin:round; stroke-width:4; stroke-opacity:1; fill:none" points="2352.76,394.071 2333.86,394.071 "/>
<path clip-path="url(#clip280)" d="M147.659 1347.1 Q147.956 1347.4 147.956 1347.82 Q147.956 1348.24 147.659 1348.53 Q147.363 1348.83 146.943 1348.83 L115.273 1348.83 Q114.853 1348.83 114.557 1348.53 Q114.26 1348.24 114.26 1347.82 Q114.26 1347.4 114.557 1347.1 Q114.853 1346.8 115.273 1346.8 L146.943 1346.8 Q147.363 1346.8 147.659 1347.1 Z" fill="#000000" fill-rule="nonzero" fill-opacity="1" /><path clip-path="url(#clip280)" d="M153.291 1352.31 Q153.291 1350.81 154.107 1350.24 Q154.922 1349.64 155.787 1349.64 Q156.948 1349.64 157.615 1350.39 Q158.306 1351.1 158.306 1352.11 Q158.306 1353.13 157.615 1353.87 Q156.948 1354.58 155.787 1354.58 Q155.218 1354.58 154.922 1354.49 Q155.589 1356.81 157.615 1358.49 Q159.665 1360.17 162.358 1360.17 Q165.742 1360.17 167.768 1356.88 Q168.978 1354.76 168.978 1349.94 Q168.978 1345.69 168.064 1343.57 Q166.656 1340.33 163.766 1340.33 Q159.665 1340.33 157.244 1343.86 Q156.948 1344.31 156.602 1344.33 Q156.108 1344.33 155.984 1344.06 Q155.885 1343.76 155.885 1343 L155.885 1328.03 Q155.885 1326.82 156.379 1326.82 Q156.577 1326.82 156.997 1326.97 Q160.184 1328.37 163.716 1328.4 Q167.348 1328.4 170.609 1326.92 Q170.856 1326.77 171.004 1326.77 Q171.498 1326.77 171.523 1327.34 Q171.523 1327.53 171.103 1328.13 Q170.707 1328.7 169.843 1329.46 Q168.978 1330.2 167.866 1330.92 Q166.755 1331.64 165.124 1332.13 Q163.519 1332.6 161.74 1332.6 Q159.616 1332.6 157.442 1331.93 L157.442 1341.79 Q160.06 1339.22 163.865 1339.22 Q167.916 1339.22 170.707 1342.48 Q173.499 1345.74 173.499 1350.29 Q173.499 1355.05 170.189 1358.32 Q166.903 1361.58 162.456 1361.58 Q158.405 1361.58 155.836 1358.69 Q153.291 1355.8 153.291 1352.31 Z" fill="#000000" fill-rule="nonzero" fill-opacity="1" /><path clip-path="url(#clip280)" d="M178.044 1344.28 Q178.044 1336.85 179.922 1332.8 Q182.54 1326.77 188.716 1326.77 Q190.025 1326.77 191.384 1327.14 Q192.767 1327.49 194.497 1328.84 Q196.251 1330.2 197.313 1332.43 Q199.339 1336.72 199.339 1344.28 Q199.339 1351.67 197.461 1355.7 Q194.719 1361.58 188.667 1361.58 Q186.394 1361.58 184.072 1360.41 Q181.774 1359.25 180.317 1356.46 Q178.044 1352.29 178.044 1344.28 M182.244 1343.67 Q182.244 1351.3 182.787 1354.34 Q183.405 1357.62 185.085 1359.06 Q186.789 1360.46 188.667 1360.46 Q190.692 1360.46 192.372 1358.96 Q194.077 1357.43 194.595 1354.14 Q195.164 1350.9 195.139 1343.67 Q195.139 1336.63 194.645 1333.81 Q193.978 1330.52 192.199 1329.21 Q190.445 1327.88 188.667 1327.88 Q188 1327.88 187.283 1328.08 Q186.592 1328.28 185.579 1328.84 Q184.566 1329.41 183.775 1330.82 Q183.01 1332.23 182.639 1334.35 Q182.244 1337.09 182.244 1343.67 Z" fill="#000000" fill-rule="nonzero" fill-opacity="1" /><path clip-path="url(#clip280)" d="M203.34 1344.28 Q203.34 1336.85 205.218 1332.8 Q207.836 1326.77 214.012 1326.77 Q215.322 1326.77 216.68 1327.14 Q218.064 1327.49 219.793 1328.84 Q221.547 1330.2 222.609 1332.43 Q224.635 1336.72 224.635 1344.28 Q224.635 1351.67 222.757 1355.7 Q220.015 1361.58 213.963 1361.58 Q211.69 1361.58 209.368 1360.41 Q207.071 1359.25 205.613 1356.46 Q203.34 1352.29 203.34 1344.28 M207.54 1343.67 Q207.54 1351.3 208.084 1354.34 Q208.701 1357.62 210.381 1359.06 Q212.085 1360.46 213.963 1360.46 Q215.989 1360.46 217.668 1358.96 Q219.373 1357.43 219.892 1354.14 Q220.46 1350.9 220.435 1343.67 Q220.435 1336.63 219.941 1333.81 Q219.274 1330.52 217.495 1329.21 Q215.742 1327.88 213.963 1327.88 Q213.296 1327.88 212.58 1328.08 Q211.888 1328.28 210.875 1328.84 Q209.862 1329.41 209.072 1330.82 Q208.306 1332.23 207.935 1334.35 Q207.54 1337.09 207.54 1343.67 Z" fill="#000000" fill-rule="nonzero" fill-opacity="1" /><path clip-path="url(#clip280)" d="M147.659 1030.73 Q147.956 1031.03 147.956 1031.45 Q147.956 1031.87 147.659 1032.16 Q147.363 1032.46 146.943 1032.46 L115.273 1032.46 Q114.853 1032.46 114.557 1032.16 Q114.26 1031.87 114.26 1031.45 Q114.26 1031.03 114.557 1030.73 Q114.853 1030.43 115.273 1030.43 L146.943 1030.43 Q147.363 1030.43 147.659 1030.73 Z" fill="#000000" fill-rule="nonzero" fill-opacity="1" /><path clip-path="url(#clip280)" d="M152.18 1035.74 L152.18 1034.19 L167.718 1010.45 Q168.113 1009.83 168.731 1009.85 Q169.299 1009.85 169.423 1010.08 Q169.546 1010.3 169.546 1011.16 L169.546 1034.19 L174.61 1034.19 L174.61 1035.74 L169.546 1035.74 L169.546 1040.14 Q169.546 1041.6 170.139 1042.07 Q170.757 1042.54 173.375 1042.54 L174.438 1042.54 L174.438 1044.09 Q172.362 1043.95 167.57 1043.95 Q162.802 1043.95 160.727 1044.09 L160.727 1042.54 L161.789 1042.54 Q164.408 1042.54 165.026 1042.09 Q165.643 1041.62 165.643 1040.14 L165.643 1035.74 L152.18 1035.74 M153.613 1034.19 L165.94 1034.19 L165.94 1015.31 L153.613 1034.19 Z" fill="#000000" fill-rule="nonzero" fill-opacity="1" /><path clip-path="url(#clip280)" d="M178.044 1027.91 Q178.044 1020.48 179.922 1016.43 Q182.54 1010.4 188.716 1010.4 Q190.025 1010.4 191.384 1010.77 Q192.767 1011.11 194.497 1012.47 Q196.251 1013.83 197.313 1016.06 Q199.339 1020.35 199.339 1027.91 Q199.339 1035.3 197.461 1039.33 Q194.719 1045.2 188.667 1045.2 Q186.394 1045.2 184.072 1044.04 Q181.774 1042.88 180.317 1040.09 Q178.044 1035.92 178.044 1027.91 M182.244 1027.3 Q182.244 1034.93 182.787 1037.97 Q183.405 1041.25 185.085 1042.69 Q186.789 1044.09 188.667 1044.09 Q190.692 1044.09 192.372 1042.59 Q194.077 1041.05 194.595 1037.77 Q195.164 1034.53 195.139 1027.3 Q195.139 1020.25 194.645 1017.44 Q193.978 1014.15 192.199 1012.84 Q190.445 1011.51 188.667 1011.51 Q188 1011.51 187.283 1011.71 Q186.592 1011.9 185.579 1012.47 Q184.566 1013.04 183.775 1014.45 Q183.01 1015.86 182.639 1017.98 Q182.244 1020.72 182.244 1027.3 Z" fill="#000000" fill-rule="nonzero" fill-opacity="1" /><path clip-path="url(#clip280)" d="M203.34 1027.91 Q203.34 1020.48 205.218 1016.43 Q207.836 1010.4 214.012 1010.4 Q215.322 1010.4 216.68 1010.77 Q218.064 1011.11 219.793 1012.47 Q221.547 1013.83 222.609 1016.06 Q224.635 1020.35 224.635 1027.91 Q224.635 1035.3 222.757 1039.33 Q220.015 1045.2 213.963 1045.2 Q211.69 1045.2 209.368 1044.04 Q207.071 1042.88 205.613 1040.09 Q203.34 1035.92 203.34 1027.91 M207.54 1027.3 Q207.54 1034.93 208.084 1037.97 Q208.701 1041.25 210.381 1042.69 Q212.085 1044.09 213.963 1044.09 Q215.989 1044.09 217.668 1042.59 Q219.373 1041.05 219.892 1037.77 Q220.46 1034.53 220.435 1027.3 Q220.435 1020.25 219.941 1017.44 Q219.274 1014.15 217.495 1012.84 Q215.742 1011.51 213.963 1011.51 Q213.296 1011.51 212.58 1011.71 Q211.888 1011.9 210.875 1012.47 Q209.862 1013.04 209.072 1014.45 Q208.306 1015.86 207.935 1017.98 Q207.54 1020.72 207.54 1027.3 Z" fill="#000000" fill-rule="nonzero" fill-opacity="1" /><path clip-path="url(#clip280)" d="M147.659 714.358 Q147.956 714.654 147.956 715.074 Q147.956 715.494 147.659 715.791 Q147.363 716.087 146.943 716.087 L115.273 716.087 Q114.853 716.087 114.557 715.791 Q114.26 715.494 114.26 715.074 Q114.26 714.654 114.557 714.358 Q114.853 714.061 115.273 714.061 L146.943 714.061 Q147.363 714.061 147.659 714.358 Z" fill="#000000" fill-rule="nonzero" fill-opacity="1" /><path clip-path="url(#clip280)" d="M152.896 720.904 Q152.896 719.397 153.761 718.681 Q154.625 717.965 155.737 717.965 Q156.898 717.965 157.713 718.73 Q158.553 719.471 158.553 720.781 Q158.553 722.189 157.565 722.979 Q156.602 723.77 155.218 723.572 Q156.429 725.598 158.652 726.512 Q160.9 727.426 162.975 727.426 Q165.149 727.426 166.903 725.548 Q168.682 723.671 168.682 719.076 Q168.682 715.173 167.15 712.925 Q165.643 710.677 162.654 710.677 L160.431 710.677 Q159.665 710.677 159.443 710.603 Q159.22 710.529 159.22 710.109 Q159.22 709.615 159.986 709.516 Q160.752 709.516 161.962 709.368 Q164.902 709.269 166.458 706.725 Q167.866 704.353 167.866 700.969 Q167.866 697.881 166.384 696.596 Q164.927 695.287 163.025 695.287 Q161.246 695.287 159.294 696.028 Q157.343 696.769 156.281 698.424 Q159.418 698.424 159.418 700.969 Q159.418 702.08 158.702 702.821 Q158.01 703.538 156.849 703.538 Q155.737 703.538 154.996 702.846 Q154.255 702.13 154.255 700.919 Q154.255 698.029 156.824 696.028 Q159.418 694.027 163.222 694.027 Q166.977 694.027 169.744 696.003 Q172.535 697.98 172.535 701.018 Q172.535 704.007 170.559 706.453 Q168.583 708.898 165.446 709.911 Q169.299 710.677 171.597 713.296 Q173.894 715.889 173.894 719.076 Q173.894 723.029 170.781 725.944 Q167.669 728.834 163.123 728.834 Q158.924 728.834 155.91 726.561 Q152.896 724.289 152.896 720.904 Z" fill="#000000" fill-rule="nonzero" fill-opacity="1" /><path clip-path="url(#clip280)" d="M178.044 711.542 Q178.044 704.106 179.922 700.055 Q182.54 694.027 188.716 694.027 Q190.025 694.027 191.384 694.398 Q192.767 694.743 194.497 696.102 Q196.251 697.461 197.313 699.684 Q199.339 703.982 199.339 711.542 Q199.339 718.928 197.461 722.955 Q194.719 728.834 188.667 728.834 Q186.394 728.834 184.072 727.673 Q181.774 726.512 180.317 723.72 Q178.044 719.546 178.044 711.542 M182.244 710.924 Q182.244 718.557 182.787 721.596 Q183.405 724.882 185.085 726.314 Q186.789 727.722 188.667 727.722 Q190.692 727.722 192.372 726.215 Q194.077 724.684 194.595 721.398 Q195.164 718.162 195.139 710.924 Q195.139 703.884 194.645 701.067 Q193.978 697.782 192.199 696.473 Q190.445 695.139 188.667 695.139 Q188 695.139 187.283 695.336 Q186.592 695.534 185.579 696.102 Q184.566 696.67 183.775 698.078 Q183.01 699.486 182.639 701.611 Q182.244 704.353 182.244 710.924 Z" fill="#000000" fill-rule="nonzero" fill-opacity="1" /><path clip-path="url(#clip280)" d="M203.34 711.542 Q203.34 704.106 205.218 700.055 Q207.836 694.027 214.012 694.027 Q215.322 694.027 216.68 694.398 Q218.064 694.743 219.793 696.102 Q221.547 697.461 222.609 699.684 Q224.635 703.982 224.635 711.542 Q224.635 718.928 222.757 722.955 Q220.015 728.834 213.963 728.834 Q211.69 728.834 209.368 727.673 Q207.071 726.512 205.613 723.72 Q203.34 719.546 203.34 711.542 M207.54 710.924 Q207.54 718.557 208.084 721.596 Q208.701 724.882 210.381 726.314 Q212.085 727.722 213.963 727.722 Q215.989 727.722 217.668 726.215 Q219.373 724.684 219.892 721.398 Q220.46 718.162 220.435 710.924 Q220.435 703.884 219.941 701.067 Q219.274 697.782 217.495 696.473 Q215.742 695.139 213.963 695.139 Q213.296 695.139 212.58 695.336 Q211.888 695.534 210.875 696.102 Q209.862 696.67 209.072 698.078 Q208.306 699.486 207.935 701.611 Q207.54 704.353 207.54 710.924 Z" fill="#000000" fill-rule="nonzero" fill-opacity="1" /><path clip-path="url(#clip280)" d="M147.659 397.987 Q147.956 398.283 147.956 398.703 Q147.956 399.123 147.659 399.42 Q147.363 399.716 146.943 399.716 L115.273 399.716 Q114.853 399.716 114.557 399.42 Q114.26 399.123 114.26 398.703 Q114.26 398.283 114.557 397.987 Q114.853 397.69 115.273 397.69 L146.943 397.69 Q147.363 397.69 147.659 397.987 Z" fill="#000000" fill-rule="nonzero" fill-opacity="1" /><path clip-path="url(#clip280)" d="M153.291 411.351 Q153.291 410.437 153.366 410.166 Q153.464 409.894 153.86 409.474 L163.568 398.654 Q168.879 392.676 168.879 387.463 Q168.879 384.079 167.101 381.658 Q165.347 379.237 162.111 379.237 Q159.887 379.237 158.01 380.596 Q156.132 381.954 155.268 384.375 Q155.416 384.326 155.935 384.326 Q157.195 384.326 157.886 385.116 Q158.603 385.907 158.603 386.969 Q158.603 388.328 157.713 388.995 Q156.849 389.637 155.984 389.637 Q155.638 389.637 155.169 389.563 Q154.724 389.489 154.008 388.797 Q153.291 388.081 153.291 386.821 Q153.291 383.288 155.959 380.472 Q158.652 377.656 162.753 377.656 Q167.397 377.656 170.436 380.423 Q173.499 383.165 173.499 387.463 Q173.499 388.97 173.029 390.354 Q172.585 391.712 171.967 392.775 Q171.374 393.837 169.744 395.541 Q168.113 397.246 166.804 398.456 Q165.495 399.667 162.555 402.236 L157.195 407.448 L166.31 407.448 Q170.757 407.448 171.103 407.053 Q171.597 406.337 172.214 402.557 L173.499 402.557 L172.066 411.351 L153.291 411.351 Z" fill="#000000" fill-rule="nonzero" fill-opacity="1" /><path clip-path="url(#clip280)" d="M178.044 395.171 Q178.044 387.735 179.922 383.684 Q182.54 377.656 188.716 377.656 Q190.025 377.656 191.384 378.027 Q192.767 378.372 194.497 379.731 Q196.251 381.09 197.313 383.313 Q199.339 387.612 199.339 395.171 Q199.339 402.557 197.461 406.584 Q194.719 412.463 188.667 412.463 Q186.394 412.463 184.072 411.302 Q181.774 410.141 180.317 407.349 Q178.044 403.175 178.044 395.171 M182.244 394.553 Q182.244 402.186 182.787 405.225 Q183.405 408.511 185.085 409.943 Q186.789 411.351 188.667 411.351 Q190.692 411.351 192.372 409.845 Q194.077 408.313 194.595 405.027 Q195.164 401.791 195.139 394.553 Q195.139 387.513 194.645 384.697 Q193.978 381.411 192.199 380.102 Q190.445 378.768 188.667 378.768 Q188 378.768 187.283 378.965 Q186.592 379.163 185.579 379.731 Q184.566 380.299 183.775 381.707 Q183.01 383.115 182.639 385.24 Q182.244 387.982 182.244 394.553 Z" fill="#000000" fill-rule="nonzero" fill-opacity="1" /><path clip-path="url(#clip280)" d="M203.34 395.171 Q203.34 387.735 205.218 383.684 Q207.836 377.656 214.012 377.656 Q215.322 377.656 216.68 378.027 Q218.064 378.372 219.793 379.731 Q221.547 381.09 222.609 383.313 Q224.635 387.612 224.635 395.171 Q224.635 402.557 222.757 406.584 Q220.015 412.463 213.963 412.463 Q211.69 412.463 209.368 411.302 Q207.071 410.141 205.613 407.349 Q203.34 403.175 203.34 395.171 M207.54 394.553 Q207.54 402.186 208.084 405.225 Q208.701 408.511 210.381 409.943 Q212.085 411.351 213.963 411.351 Q215.989 411.351 217.668 409.845 Q219.373 408.313 219.892 405.027 Q220.46 401.791 220.435 394.553 Q220.435 387.513 219.941 384.697 Q219.274 381.411 217.495 380.102 Q215.742 378.768 213.963 378.768 Q213.296 378.768 212.58 378.965 Q211.888 379.163 210.875 379.731 Q209.862 380.299 209.072 381.707 Q208.306 383.115 207.935 385.24 Q207.54 387.982 207.54 394.553 Z" fill="#000000" fill-rule="nonzero" fill-opacity="1" /><path clip-path="url(#clip280)" d="M64.0042 886.572 L61.8642 886.572 L61.8642 884.908 Q61.8642 881.138 61.2528 880.288 Q60.6074 879.405 58.5694 879.405 L21.9189 879.405 Q19.9148 879.405 19.3034 880.288 Q18.6581 881.172 18.6581 884.908 L18.6581 886.572 L16.4842 886.572 L16.4842 864.732 Q16.4842 857.157 20.2205 851.892 Q23.923 846.593 29.018 846.593 Q32.9242 846.593 35.9813 850.024 Q39.0383 853.454 40.363 858.753 Q42.7407 851.858 48.4132 850.262 L53.9839 849.378 Q55.9879 849.107 57.0069 848.937 Q58.0259 848.733 59.4186 848.427 Q60.8112 848.122 61.4906 847.816 Q62.136 847.476 62.8493 847.001 Q63.5286 846.525 63.7664 845.914 Q64.0042 845.268 64.0042 844.419 Q64.0042 842.823 62.5775 841.464 Q61.1509 840.105 57.8221 839.834 Q56.7012 839.698 56.7012 838.984 Q56.7012 838.101 57.8221 838.101 Q58.8072 838.101 59.9621 838.373 Q61.083 838.645 62.4077 839.324 Q63.7324 839.969 64.6156 841.396 Q65.5327 842.823 65.5327 844.691 Q65.5327 850.126 62.6115 853.454 Q61.3547 854.847 59.7243 855.492 Q58.0939 856.104 56.8031 856.206 Q55.5124 856.308 52.6591 856.308 Q48.6171 856.308 46.8508 856.749 Q45.0845 857.157 43.3521 858.957 Q40.9745 861.403 40.9745 865.445 L40.9745 873.427 L58.5694 873.427 Q60.5735 873.427 61.2189 872.578 Q61.8642 871.695 61.8642 867.924 L61.8642 866.26 L64.0042 866.26 Q63.8004 868.774 63.8004 876.416 Q63.8004 884.059 64.0042 886.572 M39.4459 873.427 L39.4459 865.717 Q39.4459 862.014 38.5628 859.535 Q37.6457 857.021 36.0153 855.832 Q34.3848 854.643 32.7544 854.202 Q31.09 853.76 29.018 853.76 Q26.5724 853.76 24.7382 854.304 Q22.9039 854.847 21.817 856.036 Q20.73 857.225 20.0507 858.414 Q19.3374 859.602 19.0657 861.437 Q18.7939 863.271 18.726 864.528 Q18.6581 865.784 18.6581 867.789 Q18.6581 871.185 18.7939 871.899 Q18.8619 872.68 19.2355 872.986 Q19.6091 873.291 20.0507 873.359 Q20.4583 873.427 21.4434 873.427 L39.4459 873.427 Z" fill="#000000" fill-rule="nonzero" fill-opacity="1" /><path clip-path="url(#clip280)" d="M48.685 835.893 Q42.1293 835.893 37.4758 831.681 Q32.8223 827.47 32.8223 821.423 Q32.8223 815.309 36.7965 812.15 Q40.7706 808.957 46.4771 808.957 Q47.5301 808.957 47.7339 809.229 Q47.9377 809.501 47.9377 810.69 L47.9377 830.119 Q55.0368 830.119 58.3656 828.013 Q63.0191 825.092 63.0191 820.167 Q63.0191 819.487 62.8832 818.672 Q62.7474 817.857 62.1699 816.192 Q61.5585 814.528 59.9621 813.068 Q58.3656 811.607 55.852 810.758 Q54.867 810.554 54.901 809.875 Q54.901 808.957 55.7162 808.957 Q56.3276 808.957 57.7202 809.637 Q59.0789 810.282 60.7093 811.539 Q62.3398 812.796 63.5626 815.241 Q64.7854 817.653 64.7854 820.574 Q64.7854 826.688 60.1659 831.308 Q55.5124 835.893 48.685 835.893 M46.4771 830.051 L46.4771 813.543 Q45.0165 813.543 43.3861 813.815 Q41.7557 814.053 39.5139 814.8 Q37.2381 815.513 35.8114 817.212 Q34.3848 818.91 34.3848 821.423 Q34.3848 822.544 34.8604 823.767 Q35.3359 824.956 36.4908 826.417 Q37.6457 827.877 40.2611 828.896 Q42.8766 829.915 46.4771 830.051 Z" fill="#000000" fill-rule="nonzero" fill-opacity="1" /><path clip-path="url(#clip280)" d="M36.1851 805.697 L34.0112 805.697 Q34.215 801.926 34.215 799.243 Q34.215 797.918 34.0112 791.634 L36.1851 791.634 Q36.1851 795.744 38.0533 795.744 Q38.4609 795.744 39.3101 795.405 L57.8901 788.781 L41.0424 782.803 Q37.6457 784.06 37.2381 784.399 Q36.1851 785.248 36.1851 788.781 L34.0112 788.781 Q34.215 785.656 34.215 782.599 Q34.215 781.41 34.0112 775.364 L36.1851 775.364 Q36.1851 779.474 38.0533 779.474 Q38.325 779.474 39.378 779.134 L58.7732 772.239 L40.9745 765.921 Q40.0573 765.581 39.5139 765.548 Q37.9853 765.548 37.1362 766.634 Q36.253 767.721 36.1851 769.59 L34.0112 769.59 Q34.215 765.615 34.215 763.136 Q34.215 760.351 34.0112 758.041 L36.1851 758.041 Q36.321 762.355 40.6348 763.883 L63.4607 772.035 Q64.7175 772.816 64.7854 773.428 Q64.7854 774.345 63.4607 774.821 L43.6918 781.92 L63.3927 788.951 Q64.2419 789.223 64.5137 789.46 Q64.7854 789.698 64.7854 790.344 Q64.7854 790.955 64.4118 791.227 Q64.0721 791.498 63.2229 791.804 L38.5968 800.568 Q37.0003 801.179 36.5927 802.096 Q36.1851 802.979 36.1851 805.697 Z" fill="#000000" fill-rule="nonzero" fill-opacity="1" /><path clip-path="url(#clip280)" d="M57.3806 755.765 Q51.4703 755.765 48.3453 748.802 Q46.3413 744.624 45.8317 735.996 L43.2842 735.996 Q38.9704 735.996 36.6946 738.272 Q34.3848 740.514 34.3848 743.367 Q34.3848 748.462 37.5777 750.908 Q37.6457 748.836 38.6987 748.088 Q39.7177 747.341 40.7706 747.341 Q42.1633 747.341 43.0804 748.224 Q43.9636 749.073 43.9636 750.534 Q43.9636 751.927 43.1144 752.844 Q42.2312 753.761 40.7027 753.761 Q37.306 753.761 35.0642 750.704 Q32.8223 747.613 32.8223 743.231 Q32.8223 737.525 36.6606 733.72 Q37.8495 732.531 39.378 731.954 Q40.9065 731.343 41.9255 731.275 Q42.9106 731.207 44.8807 731.207 L58.7732 731.207 Q59.1808 731.207 59.8602 731.071 Q60.5395 730.935 61.4227 730.324 Q62.2718 729.678 62.2718 728.625 Q62.2718 726.112 57.8221 726.146 L53.9159 726.146 L53.9159 724.379 L57.8221 724.379 Q61.5246 724.379 62.9851 726.349 Q64.4118 728.286 64.4118 730.086 Q64.4118 732.396 62.7134 733.856 Q61.0151 735.317 58.7053 735.521 Q61.3547 736.574 63.087 738.985 Q64.7854 741.363 64.7854 744.624 Q64.7854 747.137 64.14 749.515 Q63.5286 751.859 61.7963 753.829 Q60.03 755.765 57.3806 755.765 M57.3126 750.398 Q59.8941 750.398 61.5585 748.564 Q63.2229 746.73 63.2229 744.148 Q63.2229 741.227 60.9811 738.612 Q58.7053 735.996 54.2556 735.996 L47.2923 735.996 Q47.5641 743.707 50.6551 747.069 Q53.7121 750.398 57.3126 750.398 Z" fill="#000000" fill-rule="nonzero" fill-opacity="1" /><path clip-path="url(#clip280)" d="M64.0042 721.968 L61.8642 721.968 Q61.8642 718.265 61.4227 717.416 Q60.9471 716.533 58.7053 716.533 L40.0573 716.533 Q37.4758 716.533 36.8305 717.45 Q36.1851 718.333 36.1851 721.968 L34.0112 721.968 L33.2639 712.287 L40.9065 712.287 Q37.9174 711.302 35.6076 709.23 Q33.2639 707.124 33.2639 703.727 Q33.2639 701.486 34.5207 700.059 Q35.7775 698.598 37.5098 698.598 Q39.0383 698.598 39.8196 699.549 Q40.5668 700.467 40.5668 701.587 Q40.5668 702.844 39.7856 703.727 Q38.9704 704.577 37.5777 704.577 Q36.7286 704.577 36.0832 704.203 Q35.4038 703.795 35.1661 703.49 Q34.9283 703.184 34.8604 702.98 Q34.7924 703.116 34.7924 703.727 Q34.7924 707.566 38.6307 709.774 Q42.435 711.947 47.8698 711.947 L58.5694 711.947 Q60.5735 711.947 61.2189 711.132 Q61.8642 710.283 61.8642 706.649 L61.8642 705.188 L64.0042 705.188 Q63.8004 707.973 63.8004 714.019 Q63.8004 714.869 63.8343 716.193 Q63.8683 717.518 63.9362 719.25 Q64.0042 720.983 64.0042 721.968 Z" fill="#000000" fill-rule="nonzero" fill-opacity="1" /><path clip-path="url(#clip280)" d="M49.0586 694.352 Q42.435 694.352 37.8495 689.733 Q33.2639 685.113 33.2639 678.863 Q33.2639 673.565 37.5777 670.1 L22.5303 670.1 Q19.9488 670.1 19.3034 671.017 Q18.6581 671.9 18.6581 675.501 L16.4842 675.501 L15.7369 665.48 L57.958 665.48 Q60.5395 665.48 61.2189 664.597 Q61.8642 663.68 61.8642 660.08 L64.0042 660.08 L64.7854 670.304 L60.1659 670.304 Q64.7514 673.904 64.7854 679.611 Q64.7854 685.589 60.1998 689.971 Q55.6143 694.352 49.0586 694.352 M49.1266 688.578 Q55.5803 688.578 58.7732 686.574 Q63.2229 683.789 63.2229 679.271 Q63.2229 674.108 58.3656 671.051 Q57.1768 670.27 55.7841 670.304 L41.5179 670.304 Q40.1253 670.304 38.9704 671.051 Q34.7924 673.904 34.7924 678.558 Q34.7924 683.415 39.2421 686.438 Q42.5709 688.578 49.1266 688.578 Z" fill="#000000" fill-rule="nonzero" fill-opacity="1" /><path clip-path="url(#clip280)" d="M724.224 72.576 L724.224 69.8525 L726.342 69.8525 Q731.141 69.8525 732.222 69.0743 Q733.346 68.2529 733.346 65.6591 L733.346 19.0129 Q733.346 16.4623 732.222 15.6842 Q731.098 14.8628 726.342 14.8628 L724.224 14.8628 L724.224 12.096 L752.022 12.096 Q761.662 12.096 768.363 16.8514 Q775.107 21.5636 775.107 28.0482 Q775.107 33.0197 770.741 36.9105 Q766.374 40.8013 759.63 42.4873 Q768.406 45.5135 770.438 52.733 L771.562 59.8229 Q771.908 62.3735 772.124 63.6704 Q772.383 64.9674 772.772 66.7398 Q773.161 68.5123 773.551 69.3769 Q773.983 70.1983 774.588 71.1062 Q775.193 71.9708 775.971 72.2734 Q776.793 72.576 777.874 72.576 Q779.905 72.576 781.635 70.7603 Q783.364 68.9446 783.71 64.708 Q783.883 63.2814 784.791 63.2814 Q785.915 63.2814 785.915 64.708 Q785.915 65.9617 785.569 67.4315 Q785.223 68.8581 784.358 70.5441 Q783.537 72.2302 781.721 73.3542 Q779.905 74.5214 777.528 74.5214 Q770.611 74.5214 766.374 70.8035 Q764.602 69.204 763.78 67.1289 Q763.002 65.0538 762.872 63.4111 Q762.743 61.7683 762.743 58.1369 Q762.743 52.9924 762.181 50.7444 Q761.662 48.4964 759.371 46.2916 Q756.258 43.2655 751.114 43.2655 L740.954 43.2655 L740.954 65.6591 Q740.954 68.2097 742.035 69.0311 Q743.159 69.8525 747.958 69.8525 L750.076 69.8525 L750.076 72.576 Q746.877 72.3166 737.15 72.3166 Q727.423 72.3166 724.224 72.576 M740.954 41.3201 L750.768 41.3201 Q755.48 41.3201 758.636 40.1961 Q761.835 39.0288 763.348 36.9538 Q764.861 34.8787 765.423 32.8036 Q765.985 30.6853 765.985 28.0482 Q765.985 24.9356 765.293 22.6011 Q764.602 20.2666 763.089 18.8832 Q761.576 17.4999 760.062 16.6352 Q758.549 15.7274 756.215 15.3815 Q753.88 15.0357 752.281 14.9492 Q750.681 14.8628 748.131 14.8628 Q743.808 14.8628 742.9 15.0357 Q741.906 15.1222 741.516 15.5977 Q741.127 16.0732 741.041 16.6352 Q740.954 17.154 740.954 18.4077 L740.954 41.3201 Z" fill="#000000" fill-rule="nonzero" fill-opacity="1" /><path clip-path="url(#clip280)" d="M794.561 67.8206 Q788.725 62.0277 788.725 53.6409 Q788.725 45.2109 794.431 39.0721 Q800.181 32.8901 808.395 32.8901 Q816.436 32.8901 822.185 39.0288 Q827.978 45.1244 827.978 53.6409 Q827.978 61.9844 822.142 67.7774 Q816.349 73.5703 808.308 73.5703 Q800.44 73.5703 794.561 67.8206 M796.074 52.9059 Q796.074 61.5089 798.322 65.3997 Q801.78 71.3223 808.395 71.3223 Q811.68 71.3223 814.404 69.5498 Q817.17 67.7774 818.684 64.7944 Q820.629 60.9037 820.629 52.9059 Q820.629 44.3895 818.294 40.6284 Q814.836 34.8787 808.308 34.8787 Q805.455 34.8787 802.645 36.3918 Q799.878 37.8616 798.192 40.8013 Q796.074 44.6921 796.074 52.9059 Z" fill="#000000" fill-rule="nonzero" fill-opacity="1" /><path clip-path="url(#clip280)" d="M832.993 14.8628 L832.993 12.096 L845.746 11.1449 L845.746 39.2018 Q850.891 33.4521 857.894 33.4521 Q865.503 33.4521 871.079 39.2882 Q876.656 45.1244 876.656 53.468 Q876.656 61.898 870.82 67.7341 Q864.984 73.5703 856.9 73.5703 Q849.55 73.5703 845.314 67.0857 Q842.201 72.4895 842.115 72.576 L839.91 72.576 L839.91 19.7911 Q839.91 16.5055 838.743 15.6842 Q837.575 14.8628 832.993 14.8628 M846.005 62.5032 Q846.005 64.3621 847.259 66.2211 Q850.761 71.5817 856.467 71.5817 Q856.511 71.5817 856.554 71.5817 Q862.736 71.5817 866.583 65.9184 Q869.307 61.6818 869.307 53.3815 Q869.307 45.1676 866.756 41.0607 Q863.211 35.3974 857.462 35.3974 Q850.977 35.3974 847 41.0607 Q846.005 42.4873 846.005 44.2598 L846.005 62.5032 Z" fill="#000000" fill-rule="nonzero" fill-opacity="1" /><path clip-path="url(#clip280)" d="M890.404 67.8206 Q884.567 62.0277 884.567 53.6409 Q884.567 45.2109 890.274 39.0721 Q896.024 32.8901 904.237 32.8901 Q912.278 32.8901 918.028 39.0288 Q923.821 45.1244 923.821 53.6409 Q923.821 61.9844 917.985 67.7774 Q912.192 73.5703 904.151 73.5703 Q896.283 73.5703 890.404 67.8206 M891.917 52.9059 Q891.917 61.5089 894.165 65.3997 Q897.623 71.3223 904.237 71.3223 Q907.523 71.3223 910.247 69.5498 Q913.013 67.7774 914.526 64.7944 Q916.472 60.9037 916.472 52.9059 Q916.472 44.3895 914.137 40.6284 Q910.679 34.8787 904.151 34.8787 Q901.298 34.8787 898.488 36.3918 Q895.721 37.8616 894.035 40.8013 Q891.917 44.6921 891.917 52.9059 Z" fill="#000000" fill-rule="nonzero" fill-opacity="1" /><path clip-path="url(#clip280)" d="M928.058 37.1699 L928.058 35.2245 Q932.121 35.0516 934.802 32.1984 Q937.525 29.3019 938.433 25.757 Q939.384 22.212 939.471 18.1051 L941.675 18.1051 L941.675 34.4031 L954.342 34.4031 L954.342 37.1699 L941.675 37.1699 L941.675 61.7683 Q941.675 71.3223 947.641 71.3223 Q950.192 71.3223 951.878 68.7285 Q953.564 66.0914 953.564 61.4224 L953.564 56.5373 L955.769 56.5373 L955.769 61.5954 Q955.769 66.394 953.564 69.9821 Q951.359 73.5703 946.993 73.5703 Q945.393 73.5703 943.794 73.138 Q942.237 72.7489 940.162 71.7114 Q938.13 70.6306 936.834 68.0368 Q935.58 65.3997 935.58 61.5954 L935.58 37.1699 L928.058 37.1699 Z" fill="#000000" fill-rule="nonzero" fill-opacity="1" /><path clip-path="url(#clip280)" d="M993.25 72.576 L993.25 69.8525 L995.368 69.8525 Q1000.17 69.8525 1001.25 69.0743 Q1002.37 68.2529 1002.37 65.6591 L1002.37 19.0129 Q1002.37 16.4623 1001.25 15.6842 Q1000.12 14.8628 995.368 14.8628 L993.25 14.8628 L993.25 12.096 L1021.05 12.096 Q1030.69 12.096 1037.39 16.8514 Q1044.13 21.5636 1044.13 28.0482 Q1044.13 33.0197 1039.77 36.9105 Q1035.4 40.8013 1028.66 42.4873 Q1037.43 45.5135 1039.46 52.733 L1040.59 59.8229 Q1040.93 62.3735 1041.15 63.6704 Q1041.41 64.9674 1041.8 66.7398 Q1042.19 68.5123 1042.58 69.3769 Q1043.01 70.1983 1043.61 71.1062 Q1044.22 71.9708 1045 72.2734 Q1045.82 72.576 1046.9 72.576 Q1048.93 72.576 1050.66 70.7603 Q1052.39 68.9446 1052.74 64.708 Q1052.91 63.2814 1053.82 63.2814 Q1054.94 63.2814 1054.94 64.708 Q1054.94 65.9617 1054.59 67.4315 Q1054.25 68.8581 1053.38 70.5441 Q1052.56 72.2302 1050.75 73.3542 Q1048.93 74.5214 1046.55 74.5214 Q1039.64 74.5214 1035.4 70.8035 Q1033.63 69.204 1032.81 67.1289 Q1032.03 65.0538 1031.9 63.4111 Q1031.77 61.7683 1031.77 58.1369 Q1031.77 52.9924 1031.21 50.7444 Q1030.69 48.4964 1028.4 46.2916 Q1025.28 43.2655 1020.14 43.2655 L1009.98 43.2655 L1009.98 65.6591 Q1009.98 68.2097 1011.06 69.0311 Q1012.18 69.8525 1016.98 69.8525 L1019.1 69.8525 L1019.1 72.576 Q1015.9 72.3166 1006.18 72.3166 Q996.449 72.3166 993.25 72.576 M1009.98 41.3201 L1019.79 41.3201 Q1024.51 41.3201 1027.66 40.1961 Q1030.86 39.0288 1032.37 36.9538 Q1033.89 34.8787 1034.45 32.8036 Q1035.01 30.6853 1035.01 28.0482 Q1035.01 24.9356 1034.32 22.6011 Q1033.63 20.2666 1032.11 18.8832 Q1030.6 17.4999 1029.09 16.6352 Q1027.58 15.7274 1025.24 15.3815 Q1022.91 15.0357 1021.31 14.9492 Q1019.71 14.8628 1017.16 14.8628 Q1012.83 14.8628 1011.93 15.0357 Q1010.93 15.1222 1010.54 15.5977 Q1010.15 16.0732 1010.07 16.6352 Q1009.98 17.154 1009.98 18.4077 L1009.98 41.3201 Z" fill="#000000" fill-rule="nonzero" fill-opacity="1" /><path clip-path="url(#clip280)" d="M1057.75 53.0789 Q1057.75 44.7353 1063.11 38.8127 Q1068.47 32.8901 1076.17 32.8901 Q1083.95 32.8901 1087.97 37.9481 Q1092.03 43.0061 1092.03 50.2689 Q1092.03 51.609 1091.69 51.8684 Q1091.34 52.1278 1089.83 52.1278 L1065.1 52.1278 Q1065.1 61.163 1067.78 65.3997 Q1071.5 71.3223 1077.77 71.3223 Q1078.63 71.3223 1079.67 71.1494 Q1080.71 70.9765 1082.82 70.2415 Q1084.94 69.4634 1086.8 67.4315 Q1088.66 65.3997 1089.74 62.2006 Q1090 60.9469 1090.87 60.9901 Q1092.03 60.9901 1092.03 62.0277 Q1092.03 62.8058 1091.17 64.5783 Q1090.35 66.3075 1088.75 68.3826 Q1087.15 70.4577 1084.03 72.014 Q1080.97 73.5703 1077.25 73.5703 Q1069.47 73.5703 1063.59 67.6909 Q1057.75 61.7683 1057.75 53.0789 M1065.19 50.2689 L1086.2 50.2689 Q1086.2 48.4099 1085.85 46.3349 Q1085.55 44.2598 1084.6 41.4065 Q1083.69 38.5101 1081.53 36.6944 Q1079.37 34.8787 1076.17 34.8787 Q1074.74 34.8787 1073.18 35.4839 Q1071.67 36.0891 1069.81 37.559 Q1067.95 39.0288 1066.66 42.3576 Q1065.36 45.6864 1065.19 50.2689 Z" fill="#000000" fill-rule="nonzero" fill-opacity="1" /><path clip-path="url(#clip280)" d="M1096.18 37.1699 L1096.18 34.4031 Q1100.98 34.6625 1104.4 34.6625 Q1106.08 34.6625 1114.08 34.4031 L1114.08 37.1699 Q1108.85 37.1699 1108.85 39.5476 Q1108.85 40.0664 1109.28 41.1472 L1117.71 64.7944 L1125.32 43.3519 Q1123.72 39.0288 1123.29 38.5101 Q1122.21 37.1699 1117.71 37.1699 L1117.71 34.4031 Q1121.69 34.6625 1125.58 34.6625 Q1127.09 34.6625 1134.79 34.4031 L1134.79 37.1699 Q1129.56 37.1699 1129.56 39.5476 Q1129.56 39.8935 1129.99 41.2336 L1138.76 65.9184 L1146.81 43.2655 Q1147.24 42.0982 1147.28 41.4065 Q1147.28 39.4611 1145.9 38.3804 Q1144.51 37.2564 1142.14 37.1699 L1142.14 34.4031 Q1147.2 34.6625 1150.35 34.6625 Q1153.9 34.6625 1156.84 34.4031 L1156.84 37.1699 Q1151.35 37.3428 1149.4 42.8332 L1139.02 71.8843 Q1138.03 73.4838 1137.25 73.5703 Q1136.08 73.5703 1135.48 71.8843 L1126.44 46.7239 L1117.5 71.7978 Q1117.15 72.8786 1116.85 73.2245 Q1116.54 73.5703 1115.72 73.5703 Q1114.94 73.5703 1114.6 73.0948 Q1114.25 72.6625 1113.86 71.5817 L1102.71 40.2393 Q1101.93 38.2075 1100.77 37.6887 Q1099.64 37.1699 1096.18 37.1699 Z" fill="#000000" fill-rule="nonzero" fill-opacity="1" /><path clip-path="url(#clip280)" d="M1159.73 64.146 Q1159.73 56.6238 1168.59 52.6466 Q1173.91 50.0959 1184.89 49.4475 L1184.89 46.2052 Q1184.89 40.7148 1182 37.8184 Q1179.14 34.8787 1175.51 34.8787 Q1169.03 34.8787 1165.91 38.9424 Q1168.55 39.0288 1169.5 40.369 Q1170.45 41.6659 1170.45 43.0061 Q1170.45 44.7785 1169.33 45.9458 Q1168.25 47.0698 1166.39 47.0698 Q1164.62 47.0698 1163.45 45.989 Q1162.28 44.865 1162.28 42.9196 Q1162.28 38.5965 1166.17 35.7433 Q1170.11 32.8901 1175.68 32.8901 Q1182.95 32.8901 1187.79 37.7751 Q1189.3 39.2882 1190.04 41.2336 Q1190.81 43.179 1190.9 44.4759 Q1190.99 45.7296 1190.99 48.237 L1190.99 65.9184 Q1190.99 66.4372 1191.16 67.3018 Q1191.33 68.1665 1192.11 69.2905 Q1192.93 70.3712 1194.27 70.3712 Q1197.47 70.3712 1197.43 64.708 L1197.43 59.7364 L1199.68 59.7364 L1199.68 64.708 Q1199.68 69.4201 1197.17 71.2791 Q1194.71 73.0948 1192.41 73.0948 Q1189.47 73.0948 1187.62 70.9332 Q1185.76 68.7717 1185.5 65.832 Q1184.16 69.204 1181.09 71.4088 Q1178.06 73.5703 1173.91 73.5703 Q1170.71 73.5703 1167.69 72.7489 Q1164.7 71.9708 1162.2 69.766 Q1159.73 67.518 1159.73 64.146 M1166.56 64.0595 Q1166.56 67.3451 1168.9 69.4634 Q1171.23 71.5817 1174.52 71.5817 Q1178.23 71.5817 1181.56 68.7285 Q1184.89 65.832 1184.89 60.1687 L1184.89 51.3064 Q1175.08 51.6523 1170.8 55.5863 Q1166.56 59.477 1166.56 64.0595 Z" fill="#000000" fill-rule="nonzero" fill-opacity="1" /><path clip-path="url(#clip280)" d="M1202.75 72.576 L1202.75 69.8525 Q1207.46 69.8525 1208.54 69.2905 Q1209.66 68.6852 1209.66 65.832 L1209.66 42.0982 Q1209.66 38.8127 1208.5 37.9913 Q1207.37 37.1699 1202.75 37.1699 L1202.75 34.4031 L1215.07 33.4521 L1215.07 43.179 Q1216.32 39.3747 1218.96 36.435 Q1221.64 33.4521 1225.96 33.4521 Q1228.81 33.4521 1230.63 35.0516 Q1232.49 36.6511 1232.49 38.8559 Q1232.49 40.8013 1231.28 41.7956 Q1230.11 42.7467 1228.69 42.7467 Q1227.09 42.7467 1225.96 41.7524 Q1224.88 40.7148 1224.88 38.9424 Q1224.88 37.8616 1225.36 37.0402 Q1225.88 36.1756 1226.26 35.873 Q1226.65 35.5704 1226.91 35.4839 Q1226.74 35.3974 1225.96 35.3974 Q1221.08 35.3974 1218.27 40.2825 Q1215.5 45.1244 1215.5 52.0413 L1215.5 65.6591 Q1215.5 68.2097 1216.54 69.0311 Q1217.62 69.8525 1222.24 69.8525 L1224.1 69.8525 L1224.1 72.576 Q1220.56 72.3166 1212.86 72.3166 Q1211.78 72.3166 1210.1 72.3598 Q1208.41 72.4031 1206.21 72.4895 Q1204 72.576 1202.75 72.576 Z" fill="#000000" fill-rule="nonzero" fill-opacity="1" /><path clip-path="url(#clip280)" d="M1237.89 53.5544 Q1237.89 45.1244 1243.77 39.2882 Q1249.65 33.4521 1257.61 33.4521 Q1264.35 33.4521 1268.76 38.9424 L1268.76 19.7911 Q1268.76 16.5055 1267.59 15.6842 Q1266.47 14.8628 1261.89 14.8628 L1261.89 12.096 L1274.64 11.1449 L1274.64 64.8809 Q1274.64 68.1665 1275.76 69.0311 Q1276.93 69.8525 1281.51 69.8525 L1281.51 72.576 L1268.5 73.5703 L1268.5 67.6909 Q1263.92 73.5271 1256.66 73.5703 Q1249.05 73.5703 1243.47 67.7341 Q1237.89 61.898 1237.89 53.5544 M1245.24 53.6409 Q1245.24 61.8547 1247.79 65.9184 Q1251.34 71.5817 1257.09 71.5817 Q1263.66 71.5817 1267.55 65.3997 Q1268.54 63.8866 1268.5 62.1141 L1268.5 43.9572 Q1268.5 42.1847 1267.55 40.7148 Q1263.92 35.3974 1258 35.3974 Q1251.81 35.3974 1247.97 41.0607 Q1245.24 45.2973 1245.24 53.6409 Z" fill="#000000" fill-rule="nonzero" fill-opacity="1" /><path clip-path="url(#clip280)" d="M1315.88 87.0151 Q1320.59 87.0151 1321.67 86.4099 Q1322.8 85.8479 1322.8 83.0379 L1322.8 41.5795 Q1322.8 38.6398 1321.67 37.9048 Q1320.59 37.1699 1315.88 37.1699 L1315.88 34.4031 L1328.64 33.4521 L1328.64 39.2882 Q1333.95 33.4521 1341.04 33.4521 Q1348.56 33.4521 1354.05 39.2882 Q1359.55 45.1244 1359.55 53.468 Q1359.55 61.898 1353.71 67.7341 Q1347.87 73.5703 1339.79 73.5703 Q1335.38 73.5703 1332.4 71.3223 Q1329.46 69.0311 1328.89 67.3451 L1328.89 68.1665 L1328.89 83.0379 Q1328.89 85.8911 1330.02 86.4531 Q1331.14 87.0151 1335.81 87.0151 L1335.81 89.7387 Q1326.52 89.4793 1325.83 89.4793 Q1324.96 89.4793 1315.88 89.7387 L1315.88 87.0151 M1328.89 62.5032 Q1328.89 63.8434 1329.07 64.3189 Q1329.28 64.7944 1330.15 66.2211 Q1333.65 71.5817 1339.36 71.5817 Q1339.4 71.5817 1339.44 71.5817 Q1344.5 71.5817 1348.35 66.4372 Q1352.2 61.2495 1352.2 53.468 Q1352.2 46.0322 1348.69 40.8445 Q1345.19 35.6568 1340.35 35.6568 Q1336.89 35.6568 1333.87 37.5158 Q1330.84 39.3747 1328.89 42.7467 L1328.89 62.5032 Z" fill="#000000" fill-rule="nonzero" fill-opacity="1" /><path clip-path="url(#clip280)" d="M1367.46 53.0789 Q1367.46 44.7353 1372.82 38.8127 Q1378.18 32.8901 1385.87 32.8901 Q1393.65 32.8901 1397.67 37.9481 Q1401.74 43.0061 1401.74 50.2689 Q1401.74 51.609 1401.39 51.8684 Q1401.05 52.1278 1399.53 52.1278 L1374.81 52.1278 Q1374.81 61.163 1377.49 65.3997 Q1381.2 71.3223 1387.47 71.3223 Q1388.34 71.3223 1389.37 71.1494 Q1390.41 70.9765 1392.53 70.2415 Q1394.65 69.4634 1396.51 67.4315 Q1398.37 65.3997 1399.45 62.2006 Q1399.71 60.9469 1400.57 60.9901 Q1401.74 60.9901 1401.74 62.0277 Q1401.74 62.8058 1400.87 64.5783 Q1400.05 66.3075 1398.45 68.3826 Q1396.85 70.4577 1393.74 72.014 Q1390.67 73.5703 1386.95 73.5703 Q1379.17 73.5703 1373.29 67.6909 Q1367.46 61.7683 1367.46 53.0789 M1374.89 50.2689 L1395.9 50.2689 Q1395.9 48.4099 1395.56 46.3349 Q1395.25 44.2598 1394.3 41.4065 Q1393.39 38.5101 1391.23 36.6944 Q1389.07 34.8787 1385.87 34.8787 Q1384.45 34.8787 1382.89 35.4839 Q1381.38 36.0891 1379.52 37.559 Q1377.66 39.0288 1376.36 42.3576 Q1375.06 45.6864 1374.89 50.2689 Z" fill="#000000" fill-rule="nonzero" fill-opacity="1" /><path clip-path="url(#clip280)" d="M1406.75 72.576 L1406.75 69.8525 Q1411.47 69.8525 1412.55 69.2905 Q1413.67 68.6852 1413.67 65.832 L1413.67 42.0982 Q1413.67 38.8127 1412.5 37.9913 Q1411.38 37.1699 1406.75 37.1699 L1406.75 34.4031 L1419.07 33.4521 L1419.07 43.179 Q1420.33 39.3747 1422.96 36.435 Q1425.65 33.4521 1429.97 33.4521 Q1432.82 33.4521 1434.64 35.0516 Q1436.5 36.6511 1436.5 38.8559 Q1436.5 40.8013 1435.29 41.7956 Q1434.12 42.7467 1432.69 42.7467 Q1431.09 42.7467 1429.97 41.7524 Q1428.89 40.7148 1428.89 38.9424 Q1428.89 37.8616 1429.36 37.0402 Q1429.88 36.1756 1430.27 35.873 Q1430.66 35.5704 1430.92 35.4839 Q1430.75 35.3974 1429.97 35.3974 Q1425.08 35.3974 1422.27 40.2825 Q1419.51 45.1244 1419.51 52.0413 L1419.51 65.6591 Q1419.51 68.2097 1420.54 69.0311 Q1421.62 69.8525 1426.25 69.8525 L1428.11 69.8525 L1428.11 72.576 Q1424.56 72.3166 1416.87 72.3166 Q1415.79 72.3166 1414.1 72.3598 Q1412.42 72.4031 1410.21 72.4895 Q1408.01 72.576 1406.75 72.576 Z" fill="#000000" fill-rule="nonzero" fill-opacity="1" /><path clip-path="url(#clip280)" d="M1470.78 72.576 L1470.78 69.8525 L1473.11 69.8525 Q1478.08 69.8525 1479.21 69.0743 Q1480.38 68.2529 1480.38 65.6591 L1480.38 19.0129 Q1480.38 16.4623 1479.21 15.6842 Q1478.04 14.8628 1473.11 14.8628 L1470.78 14.8628 L1470.78 12.096 Q1473.89 12.3554 1484.35 12.3554 Q1494.73 12.3554 1497.8 12.096 L1497.8 14.8628 L1495.51 14.8628 Q1490.53 14.8628 1489.37 15.6842 Q1488.24 16.4623 1488.24 19.0129 L1488.24 65.6591 Q1488.24 68.2097 1489.37 69.0311 Q1490.53 69.8525 1495.51 69.8525 L1497.8 69.8525 L1497.8 72.576 Q1494.68 72.3166 1484.27 72.3166 Q1473.89 72.3166 1470.78 72.576 Z" fill="#000000" fill-rule="nonzero" fill-opacity="1" /><path clip-path="url(#clip280)" d="M1503.11 72.576 L1503.11 69.8525 Q1507.83 69.8525 1508.91 69.2905 Q1509.99 68.6852 1509.99 65.832 L1509.99 42.0982 Q1509.99 38.8127 1508.82 37.9913 Q1507.7 37.1699 1503.11 37.1699 L1503.11 34.4031 L1515.57 33.4521 L1515.57 42.7467 Q1519.72 33.4521 1528.66 33.4521 Q1535.32 33.4521 1537.96 36.7376 Q1539.9 38.9424 1540.29 41.4065 Q1540.73 43.8707 1540.73 50.2689 L1540.73 67.1721 Q1540.81 69.0311 1542.24 69.4634 Q1543.67 69.8525 1547.64 69.8525 L1547.64 72.576 Q1538.61 72.3166 1537.7 72.3166 Q1537.01 72.3166 1527.71 72.576 L1527.71 69.8525 Q1532.43 69.8525 1533.51 69.2905 Q1534.63 68.6852 1534.63 65.832 L1534.63 45.2109 Q1534.63 40.7148 1533.25 38.0778 Q1531.86 35.3974 1528.06 35.3974 Q1523.48 35.3974 1519.8 39.245 Q1516.13 43.0925 1516.13 49.5772 L1516.13 65.832 Q1516.13 68.6852 1517.21 69.2905 Q1518.33 69.8525 1523 69.8525 L1523 72.576 Q1513.97 72.3166 1513.1 72.3166 Q1512.41 72.3166 1503.11 72.576 Z" fill="#000000" fill-rule="nonzero" fill-opacity="1" /><path clip-path="url(#clip280)" d="M1548.59 37.1699 L1548.59 35.2245 Q1552.66 35.0516 1555.34 32.1984 Q1558.06 29.3019 1558.97 25.757 Q1559.92 22.212 1560.01 18.1051 L1562.21 18.1051 L1562.21 34.4031 L1574.88 34.4031 L1574.88 37.1699 L1562.21 37.1699 L1562.21 61.7683 Q1562.21 71.3223 1568.18 71.3223 Q1570.73 71.3223 1572.41 68.7285 Q1574.1 66.0914 1574.1 61.4224 L1574.1 56.5373 L1576.3 56.5373 L1576.3 61.5954 Q1576.3 66.394 1574.1 69.9821 Q1571.9 73.5703 1567.53 73.5703 Q1565.93 73.5703 1564.33 73.138 Q1562.77 72.7489 1560.7 71.7114 Q1558.67 70.6306 1557.37 68.0368 Q1556.12 65.3997 1556.12 61.5954 L1556.12 37.1699 L1548.59 37.1699 Z" fill="#000000" fill-rule="nonzero" fill-opacity="1" /><path clip-path="url(#clip280)" d="M1583.7 53.0789 Q1583.7 44.7353 1589.06 38.8127 Q1594.42 32.8901 1602.11 32.8901 Q1609.9 32.8901 1613.92 37.9481 Q1617.98 43.0061 1617.98 50.2689 Q1617.98 51.609 1617.63 51.8684 Q1617.29 52.1278 1615.77 52.1278 L1591.05 52.1278 Q1591.05 61.163 1593.73 65.3997 Q1597.44 71.3223 1603.71 71.3223 Q1604.58 71.3223 1605.62 71.1494 Q1606.65 70.9765 1608.77 70.2415 Q1610.89 69.4634 1612.75 67.4315 Q1614.61 65.3997 1615.69 62.2006 Q1615.95 60.9469 1616.81 60.9901 Q1617.98 60.9901 1617.98 62.0277 Q1617.98 62.8058 1617.11 64.5783 Q1616.29 66.3075 1614.69 68.3826 Q1613.09 70.4577 1609.98 72.014 Q1606.91 73.5703 1603.19 73.5703 Q1595.41 73.5703 1589.53 67.6909 Q1583.7 61.7683 1583.7 53.0789 M1591.13 50.2689 L1612.14 50.2689 Q1612.14 48.4099 1611.8 46.3349 Q1611.49 44.2598 1610.54 41.4065 Q1609.64 38.5101 1607.47 36.6944 Q1605.31 34.8787 1602.11 34.8787 Q1600.69 34.8787 1599.13 35.4839 Q1597.62 36.0891 1595.76 37.559 Q1593.9 39.0288 1592.6 42.3576 Q1591.31 45.6864 1591.13 50.2689 Z" fill="#000000" fill-rule="nonzero" fill-opacity="1" /><path clip-path="url(#clip280)" d="M1622.99 72.576 L1622.99 69.8525 Q1627.71 69.8525 1628.79 69.2905 Q1629.91 68.6852 1629.91 65.832 L1629.91 42.0982 Q1629.91 38.8127 1628.74 37.9913 Q1627.62 37.1699 1622.99 37.1699 L1622.99 34.4031 L1635.31 33.4521 L1635.31 43.179 Q1636.57 39.3747 1639.21 36.435 Q1641.89 33.4521 1646.21 33.4521 Q1649.06 33.4521 1650.88 35.0516 Q1652.74 36.6511 1652.74 38.8559 Q1652.74 40.8013 1651.53 41.7956 Q1650.36 42.7467 1648.93 42.7467 Q1647.33 42.7467 1646.21 41.7524 Q1645.13 40.7148 1645.13 38.9424 Q1645.13 37.8616 1645.6 37.0402 Q1646.12 36.1756 1646.51 35.873 Q1646.9 35.5704 1647.16 35.4839 Q1646.99 35.3974 1646.21 35.3974 Q1641.32 35.3974 1638.51 40.2825 Q1635.75 45.1244 1635.75 52.0413 L1635.75 65.6591 Q1635.75 68.2097 1636.78 69.0311 Q1637.87 69.8525 1642.49 69.8525 L1644.35 69.8525 L1644.35 72.576 Q1640.81 72.3166 1633.11 72.3166 Q1632.03 72.3166 1630.34 72.3598 Q1628.66 72.4031 1626.45 72.4895 Q1624.25 72.576 1622.99 72.576 Z" fill="#000000" fill-rule="nonzero" fill-opacity="1" /><path clip-path="url(#clip280)" d="M1658.83 64.146 Q1658.83 56.6238 1667.69 52.6466 Q1673.01 50.0959 1683.99 49.4475 L1683.99 46.2052 Q1683.99 40.7148 1681.1 37.8184 Q1678.24 34.8787 1674.61 34.8787 Q1668.13 34.8787 1665.01 38.9424 Q1667.65 39.0288 1668.6 40.369 Q1669.55 41.6659 1669.55 43.0061 Q1669.55 44.7785 1668.43 45.9458 Q1667.35 47.0698 1665.49 47.0698 Q1663.72 47.0698 1662.55 45.989 Q1661.38 44.865 1661.38 42.9196 Q1661.38 38.5965 1665.27 35.7433 Q1669.21 32.8901 1674.78 32.8901 Q1682.05 32.8901 1686.89 37.7751 Q1688.4 39.2882 1689.14 41.2336 Q1689.92 43.179 1690 44.4759 Q1690.09 45.7296 1690.09 48.237 L1690.09 65.9184 Q1690.09 66.4372 1690.26 67.3018 Q1690.43 68.1665 1691.21 69.2905 Q1692.03 70.3712 1693.37 70.3712 Q1696.57 70.3712 1696.53 64.708 L1696.53 59.7364 L1698.78 59.7364 L1698.78 64.708 Q1698.78 69.4201 1696.27 71.2791 Q1693.81 73.0948 1691.52 73.0948 Q1688.58 73.0948 1686.72 70.9332 Q1684.86 68.7717 1684.6 65.832 Q1683.26 69.204 1680.19 71.4088 Q1677.16 73.5703 1673.01 73.5703 Q1669.81 73.5703 1666.79 72.7489 Q1663.8 71.9708 1661.3 69.766 Q1658.83 67.518 1658.83 64.146 M1665.66 64.0595 Q1665.66 67.3451 1668 69.4634 Q1670.33 71.5817 1673.62 71.5817 Q1677.34 71.5817 1680.66 68.7285 Q1683.99 65.832 1683.99 60.1687 L1683.99 51.3064 Q1674.18 51.6523 1669.9 55.5863 Q1665.66 59.477 1665.66 64.0595 Z" fill="#000000" fill-rule="nonzero" fill-opacity="1" /><path clip-path="url(#clip280)" d="M1708.03 67.7341 Q1702.41 61.8547 1702.41 53.468 Q1702.41 45.0379 1707.94 38.9856 Q1713.48 32.8901 1721.6 32.8901 Q1727.01 32.8901 1731.07 35.4839 Q1735.13 38.0345 1735.13 42.4008 Q1735.13 44.3462 1733.97 45.4702 Q1732.84 46.551 1731.07 46.551 Q1729.21 46.551 1728.09 45.427 Q1727.01 44.2598 1727.01 42.4873 Q1727.01 41.7092 1727.27 40.931 Q1727.53 40.1528 1728.48 39.3315 Q1729.47 38.5101 1731.16 38.3804 Q1728 35.1381 1721.86 35.1381 Q1721.78 35.1381 1721.69 35.1381 Q1717.19 35.1381 1713.48 39.3747 Q1709.76 43.6113 1709.76 53.295 Q1709.76 58.353 1710.97 62.0709 Q1712.22 65.7455 1714.25 67.6477 Q1716.29 69.5498 1718.27 70.4577 Q1720.26 71.3223 1722.21 71.3223 Q1730.9 71.3223 1733.84 62.0277 Q1734.1 61.163 1734.96 61.163 Q1736.13 61.163 1736.13 62.0277 Q1736.13 62.46 1735.78 63.584 Q1735.44 64.708 1734.36 66.4804 Q1733.28 68.2529 1731.72 69.8092 Q1730.21 71.3223 1727.48 72.4463 Q1724.8 73.5703 1721.43 73.5703 Q1713.65 73.5703 1708.03 67.7341 Z" fill="#000000" fill-rule="nonzero" fill-opacity="1" /><path clip-path="url(#clip280)" d="M1740.37 37.1699 L1740.37 35.2245 Q1744.43 35.0516 1747.11 32.1984 Q1749.83 29.3019 1750.74 25.757 Q1751.69 22.212 1751.78 18.1051 L1753.98 18.1051 L1753.98 34.4031 L1766.65 34.4031 L1766.65 37.1699 L1753.98 37.1699 L1753.98 61.7683 Q1753.98 71.3223 1759.95 71.3223 Q1762.5 71.3223 1764.19 68.7285 Q1765.87 66.0914 1765.87 61.4224 L1765.87 56.5373 L1768.08 56.5373 L1768.08 61.5954 Q1768.08 66.394 1765.87 69.9821 Q1763.67 73.5703 1759.3 73.5703 Q1757.7 73.5703 1756.1 73.138 Q1754.55 72.7489 1752.47 71.7114 Q1750.44 70.6306 1749.14 68.0368 Q1747.89 65.3997 1747.89 61.5954 L1747.89 37.1699 L1740.37 37.1699 Z" fill="#000000" fill-rule="nonzero" fill-opacity="1" /><path clip-path="url(#clip280)" d="M1775.94 72.576 L1775.94 69.8525 Q1780.66 69.8525 1781.74 69.2905 Q1782.82 68.6852 1782.82 65.832 L1782.82 42.0118 Q1782.82 38.7262 1781.69 37.9481 Q1780.61 37.1699 1776.29 37.1699 L1776.29 34.4031 L1788.65 33.4521 L1788.65 65.9184 Q1788.65 68.5555 1789.61 69.204 Q1790.56 69.8525 1794.88 69.8525 L1794.88 72.576 Q1785.84 72.3166 1785.67 72.3166 Q1784.46 72.3166 1775.94 72.576 M1779.66 18.0186 Q1779.66 16.2462 1781 14.8195 Q1782.39 13.3497 1784.33 13.3497 Q1786.28 13.3497 1787.66 14.6899 Q1789.04 15.9868 1789.04 18.0619 Q1789.04 20.0937 1787.66 21.4339 Q1786.28 22.7308 1784.33 22.7308 Q1782.3 22.7308 1780.96 21.3042 Q1779.66 19.8776 1779.66 18.0186 Z" fill="#000000" fill-rule="nonzero" fill-opacity="1" /><path clip-path="url(#clip280)" d="M1805.82 67.8206 Q1799.98 62.0277 1799.98 53.6409 Q1799.98 45.2109 1805.69 39.0721 Q1811.44 32.8901 1819.65 32.8901 Q1827.69 32.8901 1833.44 39.0288 Q1839.23 45.1244 1839.23 53.6409 Q1839.23 61.9844 1833.4 67.7774 Q1827.61 73.5703 1819.56 73.5703 Q1811.7 73.5703 1805.82 67.8206 M1807.33 52.9059 Q1807.33 61.5089 1809.58 65.3997 Q1813.04 71.3223 1819.65 71.3223 Q1822.94 71.3223 1825.66 69.5498 Q1828.43 67.7774 1829.94 64.7944 Q1831.89 60.9037 1831.89 52.9059 Q1831.89 44.3895 1829.55 40.6284 Q1826.09 34.8787 1819.56 34.8787 Q1816.71 34.8787 1813.9 36.3918 Q1811.13 37.8616 1809.45 40.8013 Q1807.33 44.6921 1807.33 52.9059 Z" fill="#000000" fill-rule="nonzero" fill-opacity="1" /><path clip-path="url(#clip280)" d="M1844.64 72.576 L1844.64 69.8525 Q1849.35 69.8525 1850.43 69.2905 Q1851.51 68.6852 1851.51 65.832 L1851.51 42.0982 Q1851.51 38.8127 1850.35 37.9913 Q1849.22 37.1699 1844.64 37.1699 L1844.64 34.4031 L1857.09 33.4521 L1857.09 42.7467 Q1861.24 33.4521 1870.19 33.4521 Q1876.85 33.4521 1879.48 36.7376 Q1881.43 38.9424 1881.82 41.4065 Q1882.25 43.8707 1882.25 50.2689 L1882.25 67.1721 Q1882.34 69.0311 1883.76 69.4634 Q1885.19 69.8525 1889.17 69.8525 L1889.17 72.576 Q1880.13 72.3166 1879.22 72.3166 Q1878.53 72.3166 1869.24 72.576 L1869.24 69.8525 Q1873.95 69.8525 1875.03 69.2905 Q1876.15 68.6852 1876.15 65.832 L1876.15 45.2109 Q1876.15 40.7148 1874.77 38.0778 Q1873.39 35.3974 1869.58 35.3974 Q1865 35.3974 1861.33 39.245 Q1857.65 43.0925 1857.65 49.5772 L1857.65 65.832 Q1857.65 68.6852 1858.73 69.2905 Q1859.86 69.8525 1864.52 69.8525 L1864.52 72.576 Q1855.49 72.3166 1854.63 72.3166 Q1853.93 72.3166 1844.64 72.576 Z" fill="#000000" fill-rule="nonzero" fill-opacity="1" /><polyline clip-path="url(#clip282)" style="stroke:#009af9; stroke-linecap:round; stroke-linejoin:round; stroke-width:4; stroke-opacity:1; fill:none" points="319.846,160.256 339.782,814.857 359.718,343.864 379.655,701.144 399.591,205.397 419.528,908.998 439.464,252.61 459.4,605.833 479.337,698.487 499.273,337.897 519.209,647.528 539.146,284.39 559.082,625.633 579.018,388.447 598.955,808.672 618.891,615.83 638.827,730.437 658.764,241.504 678.7,554.058 698.636,529.866 718.573,757.295 738.509,535.338 758.446,741.687 778.382,307.27 798.318,661.974 818.255,308.9 838.191,634.841 858.127,269.291 878.064,783.687 898,231.206 917.936,739.837 937.873,367.338 957.809,601.566 977.745,260.958 997.682,1386.4 1017.62,296.469 1037.55,663.675 1057.49,343.685 1077.43,549.689 1097.36,302.79 1117.3,825.1 1137.24,365.593 1157.17,656.741 1177.11,208.06 1197.05,578.196 1216.98,243.943 1236.92,632.886 1256.85,176.089 1276.79,626.512 1296.73,200.633 1316.66,793.976 1336.6,263.82 1356.54,902.75 1376.47,197.828 1396.41,674.47 1416.35,410.261 1436.28,596.85 1456.22,287.881 1476.15,750.404 1496.09,231.09 1516.03,646.16 1535.96,282.526 1555.9,829.277 1575.84,274.334 1595.77,657.34 1615.71,275.435 1635.65,678.791 1655.58,762.466 1675.52,745.382 1695.45,291.244 1715.39,609.617 1735.33,257.288 1755.26,663.458 1775.2,330.983 1795.14,609.808 1815.07,250.584 1835.01,690.702 1854.95,282.837 1874.88,513.001 1894.82,284.866 1914.75,807.074 1934.69,580.314 1954.63,970.119 1974.56,383.98 1994.5,635.637 2014.44,466.345 2034.37,476.555 2054.31,264.312 2074.25,783.672 2094.18,321.16 2114.12,750.448 2134.05,313.592 2153.99,593.962 2173.93,196.106 2193.86,679.933 2213.8,277.311 2233.74,561.924 2253.67,337.436 2273.61,682.726 2293.54,278.327 "/>
</svg>
