<?xml version="1.0" encoding="utf-8"?>
<svg xmlns="http://www.w3.org/2000/svg" xmlns:xlink="http://www.w3.org/1999/xlink" width="600" height="400" viewBox="0 0 2400 1600">
<defs>
  <clipPath id="clip200">
    <rect x="0" y="0" width="2400" height="1600"/>
  </clipPath>
</defs>
<path clip-path="url(#clip200)" d="M0 1600 L2400 1600 L2400 0 L0 0  Z" fill="#ffffff" fill-rule="evenodd" fill-opacity="1"/>
<defs>
  <clipPath id="clip201">
    <rect x="480" y="0" width="1681" height="1600"/>
  </clipPath>
</defs>
<path clip-path="url(#clip200)" d="M272.297 1423.18 L2352.76 1423.18 L2352.76 123.472 L272.297 123.472  Z" fill="#ffffff" fill-rule="evenodd" fill-opacity="1"/>
<defs>
  <clipPath id="clip202">
    <rect x="272" y="123" width="2081" height="1301"/>
  </clipPath>
</defs>
<polyline clip-path="url(#clip202)" style="stroke:#000000; stroke-linecap:round; stroke-linejoin:round; stroke-width:2; stroke-opacity:0.1; fill:none" points="329.213,1423.18 329.213,123.472 "/>
<polyline clip-path="url(#clip202)" style="stroke:#000000; stroke-linecap:round; stroke-linejoin:round; stroke-width:2; stroke-opacity:0.1; fill:none" points="820.378,1423.18 820.378,123.472 "/>
<polyline clip-path="url(#clip202)" style="stroke:#000000; stroke-linecap:round; stroke-linejoin:round; stroke-width:2; stroke-opacity:0.1; fill:none" points="1311.54,1423.18 1311.54,123.472 "/>
<polyline clip-path="url(#clip202)" style="stroke:#000000; stroke-linecap:round; stroke-linejoin:round; stroke-width:2; stroke-opacity:0.1; fill:none" points="1802.71,1423.18 1802.71,123.472 "/>
<polyline clip-path="url(#clip202)" style="stroke:#000000; stroke-linecap:round; stroke-linejoin:round; stroke-width:2; stroke-opacity:0.1; fill:none" points="2293.87,1423.18 2293.87,123.472 "/>
<polyline clip-path="url(#clip202)" style="stroke:#000000; stroke-linecap:round; stroke-linejoin:round; stroke-width:2; stroke-opacity:0.1; fill:none" points="272.297,1237.14 2352.76,1237.14 "/>
<polyline clip-path="url(#clip202)" style="stroke:#000000; stroke-linecap:round; stroke-linejoin:round; stroke-width:2; stroke-opacity:0.1; fill:none" points="272.297,1011.92 2352.76,1011.92 "/>
<polyline clip-path="url(#clip202)" style="stroke:#000000; stroke-linecap:round; stroke-linejoin:round; stroke-width:2; stroke-opacity:0.1; fill:none" points="272.297,786.695 2352.76,786.695 "/>
<polyline clip-path="url(#clip202)" style="stroke:#000000; stroke-linecap:round; stroke-linejoin:round; stroke-width:2; stroke-opacity:0.1; fill:none" points="272.297,561.473 2352.76,561.473 "/>
<polyline clip-path="url(#clip202)" style="stroke:#000000; stroke-linecap:round; stroke-linejoin:round; stroke-width:2; stroke-opacity:0.1; fill:none" points="272.297,336.251 2352.76,336.251 "/>
<polyline clip-path="url(#clip200)" style="stroke:#000000; stroke-linecap:round; stroke-linejoin:round; stroke-width:4; stroke-opacity:1; fill:none" points="272.297,1423.18 2352.76,1423.18 "/>
<polyline clip-path="url(#clip200)" style="stroke:#000000; stroke-linecap:round; stroke-linejoin:round; stroke-width:4; stroke-opacity:1; fill:none" points="329.213,1423.18 329.213,1404.28 "/>
<polyline clip-path="url(#clip200)" style="stroke:#000000; stroke-linecap:round; stroke-linejoin:round; stroke-width:4; stroke-opacity:1; fill:none" points="820.378,1423.18 820.378,1404.28 "/>
<polyline clip-path="url(#clip200)" style="stroke:#000000; stroke-linecap:round; stroke-linejoin:round; stroke-width:4; stroke-opacity:1; fill:none" points="1311.54,1423.18 1311.54,1404.28 "/>
<polyline clip-path="url(#clip200)" style="stroke:#000000; stroke-linecap:round; stroke-linejoin:round; stroke-width:4; stroke-opacity:1; fill:none" points="1802.71,1423.18 1802.71,1404.28 "/>
<polyline clip-path="url(#clip200)" style="stroke:#000000; stroke-linecap:round; stroke-linejoin:round; stroke-width:4; stroke-opacity:1; fill:none" points="2293.87,1423.18 2293.87,1404.28 "/>
<path clip-path="url(#clip200)" d="M329.213 1454.1 Q325.602 1454.1 323.773 1457.66 Q321.967 1461.2 321.967 1468.33 Q321.967 1475.44 323.773 1479.01 Q325.602 1482.55 329.213 1482.55 Q332.847 1482.55 334.653 1479.01 Q336.481 1475.44 336.481 1468.33 Q336.481 1461.2 334.653 1457.66 Q332.847 1454.1 329.213 1454.1 M329.213 1450.39 Q335.023 1450.39 338.078 1455 Q341.157 1459.58 341.157 1468.33 Q341.157 1477.06 338.078 1481.67 Q335.023 1486.25 329.213 1486.25 Q323.403 1486.25 320.324 1481.67 Q317.268 1477.06 317.268 1468.33 Q317.268 1459.58 320.324 1455 Q323.403 1450.39 329.213 1450.39 Z" fill="#000000" fill-rule="nonzero" fill-opacity="1" /><path clip-path="url(#clip200)" d="M784.071 1481.64 L800.39 1481.64 L800.39 1485.58 L778.446 1485.58 L778.446 1481.64 Q781.108 1478.89 785.691 1474.26 Q790.297 1469.61 791.478 1468.27 Q793.723 1465.74 794.603 1464.01 Q795.506 1462.25 795.506 1460.56 Q795.506 1457.8 793.561 1456.07 Q791.64 1454.33 788.538 1454.33 Q786.339 1454.33 783.885 1455.09 Q781.455 1455.86 778.677 1457.41 L778.677 1452.69 Q781.501 1451.55 783.955 1450.97 Q786.409 1450.39 788.446 1450.39 Q793.816 1450.39 797.01 1453.08 Q800.205 1455.77 800.205 1460.26 Q800.205 1462.39 799.395 1464.31 Q798.608 1466.2 796.501 1468.8 Q795.922 1469.47 792.821 1472.69 Q789.719 1475.88 784.071 1481.64 Z" fill="#000000" fill-rule="nonzero" fill-opacity="1" /><path clip-path="url(#clip200)" d="M810.251 1451.02 L828.607 1451.02 L828.607 1454.96 L814.533 1454.96 L814.533 1463.43 Q815.552 1463.08 816.57 1462.92 Q817.589 1462.73 818.608 1462.73 Q824.395 1462.73 827.774 1465.9 Q831.154 1469.08 831.154 1474.49 Q831.154 1480.07 827.682 1483.17 Q824.209 1486.25 817.89 1486.25 Q815.714 1486.25 813.446 1485.88 Q811.2 1485.51 808.793 1484.77 L808.793 1480.07 Q810.876 1481.2 813.098 1481.76 Q815.321 1482.32 817.797 1482.32 Q821.802 1482.32 824.14 1480.21 Q826.478 1478.1 826.478 1474.49 Q826.478 1470.88 824.14 1468.77 Q821.802 1466.67 817.797 1466.67 Q815.922 1466.67 814.047 1467.08 Q812.196 1467.5 810.251 1468.38 L810.251 1451.02 Z" fill="#000000" fill-rule="nonzero" fill-opacity="1" /><path clip-path="url(#clip200)" d="M850.367 1454.1 Q846.756 1454.1 844.927 1457.66 Q843.121 1461.2 843.121 1468.33 Q843.121 1475.44 844.927 1479.01 Q846.756 1482.55 850.367 1482.55 Q854.001 1482.55 855.806 1479.01 Q857.635 1475.44 857.635 1468.33 Q857.635 1461.2 855.806 1457.66 Q854.001 1454.1 850.367 1454.1 M850.367 1450.39 Q856.177 1450.39 859.232 1455 Q862.311 1459.58 862.311 1468.33 Q862.311 1477.06 859.232 1481.67 Q856.177 1486.25 850.367 1486.25 Q844.556 1486.25 841.478 1481.67 Q838.422 1477.06 838.422 1468.33 Q838.422 1459.58 841.478 1455 Q844.556 1450.39 850.367 1450.39 Z" fill="#000000" fill-rule="nonzero" fill-opacity="1" /><path clip-path="url(#clip200)" d="M1271.16 1451.02 L1289.52 1451.02 L1289.52 1454.96 L1275.44 1454.96 L1275.44 1463.43 Q1276.46 1463.08 1277.48 1462.92 Q1278.5 1462.73 1279.52 1462.73 Q1285.31 1462.73 1288.69 1465.9 Q1292.06 1469.08 1292.06 1474.49 Q1292.06 1480.07 1288.59 1483.17 Q1285.12 1486.25 1278.8 1486.25 Q1276.63 1486.25 1274.36 1485.88 Q1272.11 1485.51 1269.7 1484.77 L1269.7 1480.07 Q1271.79 1481.2 1274.01 1481.76 Q1276.23 1482.32 1278.71 1482.32 Q1282.71 1482.32 1285.05 1480.21 Q1287.39 1478.1 1287.39 1474.49 Q1287.39 1470.88 1285.05 1468.77 Q1282.71 1466.67 1278.71 1466.67 Q1276.83 1466.67 1274.96 1467.08 Q1273.11 1467.5 1271.16 1468.38 L1271.16 1451.02 Z" fill="#000000" fill-rule="nonzero" fill-opacity="1" /><path clip-path="url(#clip200)" d="M1311.28 1454.1 Q1307.67 1454.1 1305.84 1457.66 Q1304.03 1461.2 1304.03 1468.33 Q1304.03 1475.44 1305.84 1479.01 Q1307.67 1482.55 1311.28 1482.55 Q1314.91 1482.55 1316.72 1479.01 Q1318.55 1475.44 1318.55 1468.33 Q1318.55 1461.2 1316.72 1457.66 Q1314.91 1454.1 1311.28 1454.1 M1311.28 1450.39 Q1317.09 1450.39 1320.14 1455 Q1323.22 1459.58 1323.22 1468.33 Q1323.22 1477.06 1320.14 1481.67 Q1317.09 1486.25 1311.28 1486.25 Q1305.47 1486.25 1302.39 1481.67 Q1299.33 1477.06 1299.33 1468.33 Q1299.33 1459.58 1302.39 1455 Q1305.47 1450.39 1311.28 1450.39 Z" fill="#000000" fill-rule="nonzero" fill-opacity="1" /><path clip-path="url(#clip200)" d="M1341.44 1454.1 Q1337.83 1454.1 1336 1457.66 Q1334.19 1461.2 1334.19 1468.33 Q1334.19 1475.44 1336 1479.01 Q1337.83 1482.55 1341.44 1482.55 Q1345.07 1482.55 1346.88 1479.01 Q1348.71 1475.44 1348.71 1468.33 Q1348.71 1461.2 1346.88 1457.66 Q1345.07 1454.1 1341.44 1454.1 M1341.44 1450.39 Q1347.25 1450.39 1350.31 1455 Q1353.38 1459.58 1353.38 1468.33 Q1353.38 1477.06 1350.31 1481.67 Q1347.25 1486.25 1341.44 1486.25 Q1335.63 1486.25 1332.55 1481.67 Q1329.5 1477.06 1329.5 1468.33 Q1329.5 1459.58 1332.55 1455 Q1335.63 1450.39 1341.44 1450.39 Z" fill="#000000" fill-rule="nonzero" fill-opacity="1" /><path clip-path="url(#clip200)" d="M1760.99 1451.02 L1783.21 1451.02 L1783.21 1453.01 L1770.66 1485.58 L1765.78 1485.58 L1777.58 1454.96 L1760.99 1454.96 L1760.99 1451.02 Z" fill="#000000" fill-rule="nonzero" fill-opacity="1" /><path clip-path="url(#clip200)" d="M1792.37 1451.02 L1810.73 1451.02 L1810.73 1454.96 L1796.66 1454.96 L1796.66 1463.43 Q1797.67 1463.08 1798.69 1462.92 Q1799.71 1462.73 1800.73 1462.73 Q1806.52 1462.73 1809.9 1465.9 Q1813.28 1469.08 1813.28 1474.49 Q1813.28 1480.07 1809.8 1483.17 Q1806.33 1486.25 1800.01 1486.25 Q1797.84 1486.25 1795.57 1485.88 Q1793.32 1485.51 1790.92 1484.77 L1790.92 1480.07 Q1793 1481.2 1795.22 1481.76 Q1797.44 1482.32 1799.92 1482.32 Q1803.92 1482.32 1806.26 1480.21 Q1808.6 1478.1 1808.6 1474.49 Q1808.6 1470.88 1806.26 1468.77 Q1803.92 1466.67 1799.92 1466.67 Q1798.05 1466.67 1796.17 1467.08 Q1794.32 1467.5 1792.37 1468.38 L1792.37 1451.02 Z" fill="#000000" fill-rule="nonzero" fill-opacity="1" /><path clip-path="url(#clip200)" d="M1832.49 1454.1 Q1828.88 1454.1 1827.05 1457.66 Q1825.24 1461.2 1825.24 1468.33 Q1825.24 1475.44 1827.05 1479.01 Q1828.88 1482.55 1832.49 1482.55 Q1836.12 1482.55 1837.93 1479.01 Q1839.76 1475.44 1839.76 1468.33 Q1839.76 1461.2 1837.93 1457.66 Q1836.12 1454.1 1832.49 1454.1 M1832.49 1450.39 Q1838.3 1450.39 1841.36 1455 Q1844.43 1459.58 1844.43 1468.33 Q1844.43 1477.06 1841.36 1481.67 Q1838.3 1486.25 1832.49 1486.25 Q1826.68 1486.25 1823.6 1481.67 Q1820.54 1477.06 1820.54 1468.33 Q1820.54 1459.58 1823.6 1455 Q1826.68 1450.39 1832.49 1450.39 Z" fill="#000000" fill-rule="nonzero" fill-opacity="1" /><path clip-path="url(#clip200)" d="M2238.4 1481.64 L2246.04 1481.64 L2246.04 1455.28 L2237.73 1456.95 L2237.73 1452.69 L2245.99 1451.02 L2250.67 1451.02 L2250.67 1481.64 L2258.31 1481.64 L2258.31 1485.58 L2238.4 1485.58 L2238.4 1481.64 Z" fill="#000000" fill-rule="nonzero" fill-opacity="1" /><path clip-path="url(#clip200)" d="M2277.75 1454.1 Q2274.14 1454.1 2272.31 1457.66 Q2270.51 1461.2 2270.51 1468.33 Q2270.51 1475.44 2272.31 1479.01 Q2274.14 1482.55 2277.75 1482.55 Q2281.39 1482.55 2283.19 1479.01 Q2285.02 1475.44 2285.02 1468.33 Q2285.02 1461.2 2283.19 1457.66 Q2281.39 1454.1 2277.75 1454.1 M2277.75 1450.39 Q2283.56 1450.39 2286.62 1455 Q2289.7 1459.58 2289.7 1468.33 Q2289.7 1477.06 2286.62 1481.67 Q2283.56 1486.25 2277.75 1486.25 Q2271.94 1486.25 2268.86 1481.67 Q2265.81 1477.06 2265.81 1468.33 Q2265.81 1459.58 2268.86 1455 Q2271.94 1450.39 2277.75 1450.39 Z" fill="#000000" fill-rule="nonzero" fill-opacity="1" /><path clip-path="url(#clip200)" d="M2307.91 1454.1 Q2304.3 1454.1 2302.47 1457.66 Q2300.67 1461.2 2300.67 1468.33 Q2300.67 1475.44 2302.47 1479.01 Q2304.3 1482.55 2307.91 1482.55 Q2311.55 1482.55 2313.35 1479.01 Q2315.18 1475.44 2315.18 1468.33 Q2315.18 1461.2 2313.35 1457.66 Q2311.55 1454.1 2307.91 1454.1 M2307.91 1450.39 Q2313.72 1450.39 2316.78 1455 Q2319.86 1459.58 2319.86 1468.33 Q2319.86 1477.06 2316.78 1481.67 Q2313.72 1486.25 2307.91 1486.25 Q2302.1 1486.25 2299.03 1481.67 Q2295.97 1477.06 2295.97 1468.33 Q2295.97 1459.58 2299.03 1455 Q2302.1 1450.39 2307.91 1450.39 Z" fill="#000000" fill-rule="nonzero" fill-opacity="1" /><path clip-path="url(#clip200)" d="M2338.08 1454.1 Q2334.47 1454.1 2332.64 1457.66 Q2330.83 1461.2 2330.83 1468.33 Q2330.83 1475.44 2332.64 1479.01 Q2334.47 1482.55 2338.08 1482.55 Q2341.71 1482.55 2343.52 1479.01 Q2345.34 1475.44 2345.34 1468.33 Q2345.34 1461.2 2343.52 1457.66 Q2341.71 1454.1 2338.08 1454.1 M2338.08 1450.39 Q2343.89 1450.39 2346.94 1455 Q2350.02 1459.58 2350.02 1468.33 Q2350.02 1477.06 2346.94 1481.67 Q2343.89 1486.25 2338.08 1486.25 Q2332.27 1486.25 2329.19 1481.67 Q2326.13 1477.06 2326.13 1468.33 Q2326.13 1459.58 2329.19 1455 Q2332.27 1450.39 2338.08 1450.39 Z" fill="#000000" fill-rule="nonzero" fill-opacity="1" /><path clip-path="url(#clip200)" d="M1163.95 1520.52 L1204.15 1520.52 L1204.15 1525.93 L1187.28 1525.93 L1187.28 1568.04 L1180.82 1568.04 L1180.82 1525.93 L1163.95 1525.93 L1163.95 1520.52 Z" fill="#000000" fill-rule="nonzero" fill-opacity="1" /><path clip-path="url(#clip200)" d="M1208.1 1532.4 L1213.95 1532.4 L1213.95 1568.04 L1208.1 1568.04 L1208.1 1532.4 M1208.1 1518.52 L1213.95 1518.52 L1213.95 1525.93 L1208.1 1525.93 L1208.1 1518.52 Z" fill="#000000" fill-rule="nonzero" fill-opacity="1" /><path clip-path="url(#clip200)" d="M1253.96 1539.24 Q1256.16 1535.29 1259.21 1533.41 Q1262.27 1531.54 1266.41 1531.54 Q1271.98 1531.54 1275 1535.45 Q1278.02 1539.33 1278.02 1546.53 L1278.02 1568.04 L1272.14 1568.04 L1272.14 1546.72 Q1272.14 1541.59 1270.32 1539.11 Q1268.51 1536.63 1264.78 1536.63 Q1260.23 1536.63 1257.59 1539.65 Q1254.95 1542.68 1254.95 1547.9 L1254.95 1568.04 L1249.06 1568.04 L1249.06 1546.72 Q1249.06 1541.56 1247.25 1539.11 Q1245.43 1536.63 1241.64 1536.63 Q1237.16 1536.63 1234.51 1539.68 Q1231.87 1542.71 1231.87 1547.9 L1231.87 1568.04 L1225.98 1568.04 L1225.98 1532.4 L1231.87 1532.4 L1231.87 1537.93 Q1233.88 1534.66 1236.68 1533.1 Q1239.48 1531.54 1243.33 1531.54 Q1247.21 1531.54 1249.92 1533.51 Q1252.66 1535.48 1253.96 1539.24 Z" fill="#000000" fill-rule="nonzero" fill-opacity="1" /><path clip-path="url(#clip200)" d="M1320.2 1548.76 L1320.2 1551.62 L1293.27 1551.62 Q1293.65 1557.67 1296.9 1560.85 Q1300.18 1564 1306 1564 Q1309.38 1564 1312.53 1563.17 Q1315.71 1562.35 1318.83 1560.69 L1318.83 1566.23 Q1315.68 1567.57 1312.37 1568.27 Q1309.06 1568.97 1305.65 1568.97 Q1297.12 1568.97 1292.12 1564 Q1287.16 1559.04 1287.16 1550.57 Q1287.16 1541.82 1291.87 1536.69 Q1296.61 1531.54 1304.63 1531.54 Q1311.83 1531.54 1316 1536.18 Q1320.2 1540.8 1320.2 1548.76 M1314.34 1547.04 Q1314.28 1542.23 1311.64 1539.37 Q1309.03 1536.5 1304.7 1536.5 Q1299.79 1536.5 1296.83 1539.27 Q1293.91 1542.04 1293.46 1547.07 L1314.34 1547.04 Z" fill="#000000" fill-rule="nonzero" fill-opacity="1" /><path clip-path="url(#clip200)" d="M1352.53 1533.45 L1352.53 1538.98 Q1350.05 1537.71 1347.38 1537.07 Q1344.7 1536.44 1341.84 1536.44 Q1337.48 1536.44 1335.28 1537.77 Q1333.12 1539.11 1333.12 1541.79 Q1333.12 1543.82 1334.68 1545 Q1336.24 1546.15 1340.95 1547.2 L1342.95 1547.64 Q1349.19 1548.98 1351.8 1551.43 Q1354.44 1553.85 1354.44 1558.21 Q1354.44 1563.17 1350.5 1566.07 Q1346.58 1568.97 1339.71 1568.97 Q1336.84 1568.97 1333.72 1568.39 Q1330.64 1567.85 1327.2 1566.74 L1327.2 1560.69 Q1330.45 1562.38 1333.6 1563.24 Q1336.75 1564.07 1339.84 1564.07 Q1343.97 1564.07 1346.2 1562.66 Q1348.43 1561.23 1348.43 1558.65 Q1348.43 1556.27 1346.81 1554.99 Q1345.21 1553.72 1339.77 1552.54 L1337.73 1552.07 Q1332.29 1550.92 1329.87 1548.56 Q1327.45 1546.18 1327.45 1542.04 Q1327.45 1537.01 1331.02 1534.27 Q1334.58 1531.54 1341.14 1531.54 Q1344.39 1531.54 1347.25 1532.01 Q1350.12 1532.49 1352.53 1533.45 Z" fill="#000000" fill-rule="nonzero" fill-opacity="1" /><path clip-path="url(#clip200)" d="M1369.56 1522.27 L1369.56 1532.4 L1381.63 1532.4 L1381.63 1536.95 L1369.56 1536.95 L1369.56 1556.3 Q1369.56 1560.66 1370.74 1561.9 Q1371.95 1563.14 1375.61 1563.14 L1381.63 1563.14 L1381.63 1568.04 L1375.61 1568.04 Q1368.83 1568.04 1366.25 1565.53 Q1363.67 1562.98 1363.67 1556.3 L1363.67 1536.95 L1359.38 1536.95 L1359.38 1532.4 L1363.67 1532.4 L1363.67 1522.27 L1369.56 1522.27 Z" fill="#000000" fill-rule="nonzero" fill-opacity="1" /><path clip-path="url(#clip200)" d="M1419.82 1548.76 L1419.82 1551.62 L1392.89 1551.62 Q1393.28 1557.67 1396.52 1560.85 Q1399.8 1564 1405.62 1564 Q1409 1564 1412.15 1563.17 Q1415.33 1562.35 1418.45 1560.69 L1418.45 1566.23 Q1415.3 1567.57 1411.99 1568.27 Q1408.68 1568.97 1405.27 1568.97 Q1396.74 1568.97 1391.75 1564 Q1386.78 1559.04 1386.78 1550.57 Q1386.78 1541.82 1391.49 1536.69 Q1396.24 1531.54 1404.26 1531.54 Q1411.45 1531.54 1415.62 1536.18 Q1419.82 1540.8 1419.82 1548.76 M1413.96 1547.04 Q1413.9 1542.23 1411.26 1539.37 Q1408.65 1536.5 1404.32 1536.5 Q1399.42 1536.5 1396.46 1539.27 Q1393.53 1542.04 1393.08 1547.07 L1413.96 1547.04 Z" fill="#000000" fill-rule="nonzero" fill-opacity="1" /><path clip-path="url(#clip200)" d="M1435.1 1562.7 L1435.1 1581.6 L1429.21 1581.6 L1429.21 1532.4 L1435.1 1532.4 L1435.1 1537.81 Q1436.94 1534.62 1439.74 1533.1 Q1442.58 1531.54 1446.49 1531.54 Q1452.99 1531.54 1457.03 1536.69 Q1461.1 1541.85 1461.1 1550.25 Q1461.1 1558.65 1457.03 1563.81 Q1452.99 1568.97 1446.49 1568.97 Q1442.58 1568.97 1439.74 1567.44 Q1436.94 1565.88 1435.1 1562.7 M1455.02 1550.25 Q1455.02 1543.79 1452.35 1540.13 Q1449.71 1536.44 1445.06 1536.44 Q1440.41 1536.44 1437.74 1540.13 Q1435.1 1543.79 1435.1 1550.25 Q1435.1 1556.71 1437.74 1560.4 Q1440.41 1564.07 1445.06 1564.07 Q1449.71 1564.07 1452.35 1560.4 Q1455.02 1556.71 1455.02 1550.25 Z" fill="#000000" fill-rule="nonzero" fill-opacity="1" /><polyline clip-path="url(#clip200)" style="stroke:#000000; stroke-linecap:round; stroke-linejoin:round; stroke-width:4; stroke-opacity:1; fill:none" points="272.297,1423.18 272.297,123.472 "/>
<polyline clip-path="url(#clip200)" style="stroke:#000000; stroke-linecap:round; stroke-linejoin:round; stroke-width:4; stroke-opacity:1; fill:none" points="272.297,1237.14 291.194,1237.14 "/>
<polyline clip-path="url(#clip200)" style="stroke:#000000; stroke-linecap:round; stroke-linejoin:round; stroke-width:4; stroke-opacity:1; fill:none" points="272.297,1011.92 291.194,1011.92 "/>
<polyline clip-path="url(#clip200)" style="stroke:#000000; stroke-linecap:round; stroke-linejoin:round; stroke-width:4; stroke-opacity:1; fill:none" points="272.297,786.695 291.194,786.695 "/>
<polyline clip-path="url(#clip200)" style="stroke:#000000; stroke-linecap:round; stroke-linejoin:round; stroke-width:4; stroke-opacity:1; fill:none" points="272.297,561.473 291.194,561.473 "/>
<polyline clip-path="url(#clip200)" style="stroke:#000000; stroke-linecap:round; stroke-linejoin:round; stroke-width:4; stroke-opacity:1; fill:none" points="272.297,336.251 291.194,336.251 "/>
<path clip-path="url(#clip200)" d="M115.256 1237.59 L144.931 1237.59 L144.931 1241.53 L115.256 1241.53 L115.256 1237.59 Z" fill="#000000" fill-rule="nonzero" fill-opacity="1" /><path clip-path="url(#clip200)" d="M155.834 1250.48 L163.473 1250.48 L163.473 1224.12 L155.163 1225.79 L155.163 1221.53 L163.427 1219.86 L168.102 1219.86 L168.102 1250.48 L175.741 1250.48 L175.741 1254.42 L155.834 1254.42 L155.834 1250.48 Z" fill="#000000" fill-rule="nonzero" fill-opacity="1" /><path clip-path="url(#clip200)" d="M189.213 1250.48 L205.533 1250.48 L205.533 1254.42 L183.588 1254.42 L183.588 1250.48 Q186.251 1247.73 190.834 1243.1 Q195.44 1238.45 196.621 1237.11 Q198.866 1234.58 199.746 1232.85 Q200.649 1231.09 200.649 1229.4 Q200.649 1226.64 198.704 1224.91 Q196.783 1223.17 193.681 1223.17 Q191.482 1223.17 189.028 1223.93 Q186.598 1224.7 183.82 1226.25 L183.82 1221.53 Q186.644 1220.39 189.098 1219.81 Q191.551 1219.23 193.588 1219.23 Q198.959 1219.23 202.153 1221.92 Q205.348 1224.61 205.348 1229.1 Q205.348 1231.23 204.537 1233.15 Q203.75 1235.04 201.644 1237.64 Q201.065 1238.31 197.963 1241.53 Q194.862 1244.72 189.213 1250.48 Z" fill="#000000" fill-rule="nonzero" fill-opacity="1" /><path clip-path="url(#clip200)" d="M215.394 1219.86 L233.75 1219.86 L233.75 1223.8 L219.676 1223.8 L219.676 1232.27 Q220.695 1231.92 221.713 1231.76 Q222.732 1231.57 223.75 1231.57 Q229.537 1231.57 232.917 1234.74 Q236.297 1237.92 236.297 1243.33 Q236.297 1248.91 232.824 1252.01 Q229.352 1255.09 223.033 1255.09 Q220.857 1255.09 218.588 1254.72 Q216.343 1254.35 213.936 1253.61 L213.936 1248.91 Q216.019 1250.04 218.241 1250.6 Q220.463 1251.16 222.94 1251.16 Q226.945 1251.16 229.283 1249.05 Q231.621 1246.94 231.621 1243.33 Q231.621 1239.72 229.283 1237.61 Q226.945 1235.51 222.94 1235.51 Q221.065 1235.51 219.19 1235.92 Q217.338 1236.34 215.394 1237.22 L215.394 1219.86 Z" fill="#000000" fill-rule="nonzero" fill-opacity="1" /><path clip-path="url(#clip200)" d="M114.26 1012.37 L143.936 1012.37 L143.936 1016.3 L114.26 1016.3 L114.26 1012.37 Z" fill="#000000" fill-rule="nonzero" fill-opacity="1" /><path clip-path="url(#clip200)" d="M154.839 1025.26 L162.477 1025.26 L162.477 998.897 L154.167 1000.56 L154.167 996.304 L162.431 994.638 L167.107 994.638 L167.107 1025.26 L174.746 1025.26 L174.746 1029.2 L154.839 1029.2 L154.839 1025.26 Z" fill="#000000" fill-rule="nonzero" fill-opacity="1" /><path clip-path="url(#clip200)" d="M194.19 997.716 Q190.579 997.716 188.75 1001.28 Q186.945 1004.82 186.945 1011.95 Q186.945 1019.06 188.75 1022.62 Q190.579 1026.17 194.19 1026.17 Q197.825 1026.17 199.63 1022.62 Q201.459 1019.06 201.459 1011.95 Q201.459 1004.82 199.63 1001.28 Q197.825 997.716 194.19 997.716 M194.19 994.013 Q200 994.013 203.056 998.619 Q206.135 1003.2 206.135 1011.95 Q206.135 1020.68 203.056 1025.29 Q200 1029.87 194.19 1029.87 Q188.38 1029.87 185.301 1025.29 Q182.246 1020.68 182.246 1011.95 Q182.246 1003.2 185.301 998.619 Q188.38 994.013 194.19 994.013 Z" fill="#000000" fill-rule="nonzero" fill-opacity="1" /><path clip-path="url(#clip200)" d="M224.352 997.716 Q220.741 997.716 218.912 1001.28 Q217.107 1004.82 217.107 1011.95 Q217.107 1019.06 218.912 1022.62 Q220.741 1026.17 224.352 1026.17 Q227.986 1026.17 229.792 1022.62 Q231.621 1019.06 231.621 1011.95 Q231.621 1004.82 229.792 1001.28 Q227.986 997.716 224.352 997.716 M224.352 994.013 Q230.162 994.013 233.218 998.619 Q236.297 1003.2 236.297 1011.95 Q236.297 1020.68 233.218 1025.29 Q230.162 1029.87 224.352 1029.87 Q218.542 1029.87 215.463 1025.29 Q212.408 1020.68 212.408 1011.95 Q212.408 1003.2 215.463 998.619 Q218.542 994.013 224.352 994.013 Z" fill="#000000" fill-rule="nonzero" fill-opacity="1" /><path clip-path="url(#clip200)" d="M145.417 787.147 L175.093 787.147 L175.093 791.082 L145.417 791.082 L145.417 787.147 Z" fill="#000000" fill-rule="nonzero" fill-opacity="1" /><path clip-path="url(#clip200)" d="M184.005 769.415 L206.227 769.415 L206.227 771.406 L193.681 803.975 L188.797 803.975 L200.602 773.351 L184.005 773.351 L184.005 769.415 Z" fill="#000000" fill-rule="nonzero" fill-opacity="1" /><path clip-path="url(#clip200)" d="M215.394 769.415 L233.75 769.415 L233.75 773.351 L219.676 773.351 L219.676 781.823 Q220.695 781.476 221.713 781.313 Q222.732 781.128 223.75 781.128 Q229.537 781.128 232.917 784.3 Q236.297 787.471 236.297 792.888 Q236.297 798.466 232.824 801.568 Q229.352 804.647 223.033 804.647 Q220.857 804.647 218.588 804.276 Q216.343 803.906 213.936 803.165 L213.936 798.466 Q216.019 799.6 218.241 800.156 Q220.463 800.712 222.94 800.712 Q226.945 800.712 229.283 798.605 Q231.621 796.499 231.621 792.888 Q231.621 789.276 229.283 787.17 Q226.945 785.063 222.94 785.063 Q221.065 785.063 219.19 785.48 Q217.338 785.897 215.394 786.776 L215.394 769.415 Z" fill="#000000" fill-rule="nonzero" fill-opacity="1" /><path clip-path="url(#clip200)" d="M144.422 561.925 L174.098 561.925 L174.098 565.86 L144.422 565.86 L144.422 561.925 Z" fill="#000000" fill-rule="nonzero" fill-opacity="1" /><path clip-path="url(#clip200)" d="M184.237 544.193 L202.593 544.193 L202.593 548.128 L188.519 548.128 L188.519 556.601 Q189.538 556.253 190.556 556.091 Q191.575 555.906 192.593 555.906 Q198.38 555.906 201.76 559.077 Q205.139 562.249 205.139 567.665 Q205.139 573.244 201.667 576.346 Q198.195 579.424 191.875 579.424 Q189.7 579.424 187.431 579.054 Q185.186 578.684 182.778 577.943 L182.778 573.244 Q184.862 574.378 187.084 574.934 Q189.306 575.489 191.783 575.489 Q195.787 575.489 198.125 573.383 Q200.463 571.276 200.463 567.665 Q200.463 564.054 198.125 561.948 Q195.787 559.841 191.783 559.841 Q189.908 559.841 188.033 560.258 Q186.181 560.675 184.237 561.554 L184.237 544.193 Z" fill="#000000" fill-rule="nonzero" fill-opacity="1" /><path clip-path="url(#clip200)" d="M224.352 547.272 Q220.741 547.272 218.912 550.837 Q217.107 554.378 217.107 561.508 Q217.107 568.614 218.912 572.179 Q220.741 575.721 224.352 575.721 Q227.986 575.721 229.792 572.179 Q231.621 568.614 231.621 561.508 Q231.621 554.378 229.792 550.837 Q227.986 547.272 224.352 547.272 M224.352 543.568 Q230.162 543.568 233.218 548.175 Q236.297 552.758 236.297 561.508 Q236.297 570.235 233.218 574.841 Q230.162 579.424 224.352 579.424 Q218.542 579.424 215.463 574.841 Q212.408 570.235 212.408 561.508 Q212.408 552.758 215.463 548.175 Q218.542 543.568 224.352 543.568 Z" fill="#000000" fill-rule="nonzero" fill-opacity="1" /><path clip-path="url(#clip200)" d="M145.417 336.702 L175.093 336.702 L175.093 340.637 L145.417 340.637 L145.417 336.702 Z" fill="#000000" fill-rule="nonzero" fill-opacity="1" /><path clip-path="url(#clip200)" d="M189.213 349.596 L205.533 349.596 L205.533 353.531 L183.588 353.531 L183.588 349.596 Q186.251 346.841 190.834 342.212 Q195.44 337.559 196.621 336.216 Q198.866 333.693 199.746 331.957 Q200.649 330.198 200.649 328.508 Q200.649 325.753 198.704 324.017 Q196.783 322.281 193.681 322.281 Q191.482 322.281 189.028 323.045 Q186.598 323.809 183.82 325.36 L183.82 320.638 Q186.644 319.503 189.098 318.925 Q191.551 318.346 193.588 318.346 Q198.959 318.346 202.153 321.031 Q205.348 323.716 205.348 328.207 Q205.348 330.337 204.537 332.258 Q203.75 334.156 201.644 336.749 Q201.065 337.42 197.963 340.637 Q194.862 343.832 189.213 349.596 Z" fill="#000000" fill-rule="nonzero" fill-opacity="1" /><path clip-path="url(#clip200)" d="M215.394 318.971 L233.75 318.971 L233.75 322.906 L219.676 322.906 L219.676 331.378 Q220.695 331.031 221.713 330.869 Q222.732 330.684 223.75 330.684 Q229.537 330.684 232.917 333.855 Q236.297 337.026 236.297 342.443 Q236.297 348.022 232.824 351.124 Q229.352 354.202 223.033 354.202 Q220.857 354.202 218.588 353.832 Q216.343 353.461 213.936 352.721 L213.936 348.022 Q216.019 349.156 218.241 349.712 Q220.463 350.267 222.94 350.267 Q226.945 350.267 229.283 348.161 Q231.621 346.054 231.621 342.443 Q231.621 338.832 229.283 336.725 Q226.945 334.619 222.94 334.619 Q221.065 334.619 219.19 335.036 Q217.338 335.452 215.394 336.332 L215.394 318.971 Z" fill="#000000" fill-rule="nonzero" fill-opacity="1" /><path clip-path="url(#clip200)" d="M22.818 1013.92 L46.4666 1022.64 L46.4666 1005.17 L22.818 1013.92 M16.4842 1017.55 L16.4842 1010.26 L64.0042 992.147 L64.0042 998.831 L51.8138 1003.16 L51.8138 1024.58 L64.0042 1028.91 L64.0042 1035.69 L16.4842 1017.55 Z" fill="#000000" fill-rule="nonzero" fill-opacity="1" /><path clip-path="url(#clip200)" d="M28.3562 993.484 L28.3562 987.277 L58.275 976.137 L28.3562 964.997 L28.3562 958.791 L64.0042 972.159 L64.0042 980.116 L28.3562 993.484 Z" fill="#000000" fill-rule="nonzero" fill-opacity="1" /><path clip-path="url(#clip200)" d="M44.7161 920.215 L47.5806 920.215 L47.5806 947.142 Q53.6281 946.76 56.8109 943.513 Q59.9619 940.235 59.9619 934.41 Q59.9619 931.036 59.1344 927.885 Q58.3069 924.702 56.6518 921.583 L62.1899 921.583 Q63.5267 924.734 64.227 928.044 Q64.9272 931.355 64.9272 934.76 Q64.9272 943.29 59.9619 948.287 Q54.9967 953.253 46.5303 953.253 Q37.7774 953.253 32.6531 948.542 Q27.4968 943.8 27.4968 935.779 Q27.4968 928.586 32.1438 924.416 Q36.7589 920.215 44.7161 920.215 M42.9973 926.071 Q38.1912 926.135 35.3266 928.777 Q32.4621 931.386 32.4621 935.715 Q32.4621 940.617 35.2312 943.577 Q38.0002 946.505 43.0292 946.951 L42.9973 926.071 Z" fill="#000000" fill-rule="nonzero" fill-opacity="1" /><path clip-path="url(#clip200)" d="M33.8307 889.946 Q33.2578 890.932 33.0032 892.11 Q32.7167 893.256 32.7167 894.656 Q32.7167 899.622 35.9632 902.295 Q39.1779 904.937 45.2253 904.937 L64.0042 904.937 L64.0042 910.825 L28.3562 910.825 L28.3562 904.937 L33.8944 904.937 Q30.6479 903.091 29.0883 900.131 Q27.4968 897.171 27.4968 892.938 Q27.4968 892.333 27.5923 891.601 Q27.656 890.869 27.8151 889.978 L33.8307 889.946 Z" fill="#000000" fill-rule="nonzero" fill-opacity="1" /><path clip-path="url(#clip200)" d="M46.0847 867.602 Q46.0847 874.7 47.7079 877.437 Q49.3312 880.174 53.2461 880.174 Q56.3653 880.174 58.2114 878.137 Q60.0256 876.068 60.0256 872.536 Q60.0256 867.666 56.5881 864.738 Q53.1188 861.777 47.3897 861.777 L46.0847 861.777 L46.0847 867.602 M43.6657 855.921 L64.0042 855.921 L64.0042 861.777 L58.5933 861.777 Q61.8398 863.783 63.3994 866.775 Q64.9272 869.766 64.9272 874.095 Q64.9272 879.57 61.8716 882.816 Q58.7843 886.031 53.6281 886.031 Q47.6125 886.031 44.5569 882.02 Q41.5014 877.978 41.5014 869.989 L41.5014 861.777 L40.9285 861.777 Q36.8862 861.777 34.6901 864.451 Q32.4621 867.093 32.4621 871.899 Q32.4621 874.954 33.1941 877.851 Q33.9262 880.747 35.3903 883.421 L29.9795 883.421 Q28.7381 880.206 28.1334 877.182 Q27.4968 874.159 27.4968 871.294 Q27.4968 863.56 31.5072 859.74 Q35.5176 855.921 43.6657 855.921 Z" fill="#000000" fill-rule="nonzero" fill-opacity="1" /><path clip-path="url(#clip200)" d="M45.7664 820.4 Q39.4007 820.4 35.8996 823.042 Q32.3984 825.652 32.3984 830.395 Q32.3984 835.105 35.8996 837.747 Q39.4007 840.357 45.7664 840.357 Q52.1003 840.357 55.6014 837.747 Q59.1026 835.105 59.1026 830.395 Q59.1026 825.652 55.6014 823.042 Q52.1003 820.4 45.7664 820.4 M59.58 814.544 Q68.683 814.544 73.1071 818.586 Q77.5631 822.628 77.5631 830.967 Q77.5631 834.055 77.0857 836.792 Q76.6401 839.529 75.6852 842.107 L69.9879 842.107 Q71.3884 839.529 72.0568 837.015 Q72.7252 834.5 72.7252 831.89 Q72.7252 826.13 69.7015 823.265 Q66.7096 820.4 60.6303 820.4 L57.7339 820.4 Q60.885 822.215 62.4446 825.047 Q64.0042 827.88 64.0042 831.827 Q64.0042 838.384 59.0071 842.394 Q54.01 846.404 45.7664 846.404 Q37.491 846.404 32.4939 842.394 Q27.4968 838.384 27.4968 831.827 Q27.4968 827.88 29.0564 825.047 Q30.616 822.215 33.7671 820.4 L28.3562 820.4 L28.3562 814.544 L59.58 814.544 Z" fill="#000000" fill-rule="nonzero" fill-opacity="1" /><path clip-path="url(#clip200)" d="M44.7161 771.989 L47.5806 771.989 L47.5806 798.916 Q53.6281 798.534 56.8109 795.288 Q59.9619 792.009 59.9619 786.185 Q59.9619 782.811 59.1344 779.66 Q58.3069 776.477 56.6518 773.358 L62.1899 773.358 Q63.5267 776.509 64.227 779.819 Q64.9272 783.129 64.9272 786.535 Q64.9272 795.065 59.9619 800.062 Q54.9967 805.027 46.5303 805.027 Q37.7774 805.027 32.6531 800.317 Q27.4968 795.574 27.4968 787.553 Q27.4968 780.36 32.1438 776.191 Q36.7589 771.989 44.7161 771.989 M42.9973 777.846 Q38.1912 777.909 35.3266 780.551 Q32.4621 783.161 32.4621 787.49 Q32.4621 792.391 35.2312 795.351 Q38.0002 798.28 43.0292 798.725 L42.9973 777.846 Z" fill="#000000" fill-rule="nonzero" fill-opacity="1" /><path clip-path="url(#clip200)" d="M41.7242 718.867 Q42.4244 716.799 44.7161 714.857 Q47.0077 712.884 51.0181 710.91 L64.0042 704.385 L64.0042 711.292 L51.8138 717.371 Q47.0395 719.727 45.48 721.955 Q43.9204 724.151 43.9204 727.97 L43.9204 734.973 L64.0042 734.973 L64.0042 741.402 L16.4842 741.402 L16.4842 726.888 Q16.4842 718.74 19.8898 714.73 Q23.2955 710.719 30.1704 710.719 Q34.6582 710.719 37.6183 712.82 Q40.5784 714.889 41.7242 718.867 M21.7677 734.973 L38.6368 734.973 L38.6368 726.888 Q38.6368 722.241 36.5043 719.886 Q34.34 717.499 30.1704 717.499 Q26.0009 717.499 23.9002 719.886 Q21.7677 722.241 21.7677 726.888 L21.7677 734.973 Z" fill="#000000" fill-rule="nonzero" fill-opacity="1" /><path clip-path="url(#clip200)" d="M44.7161 668.801 L47.5806 668.801 L47.5806 695.728 Q53.6281 695.346 56.8109 692.1 Q59.9619 688.821 59.9619 682.997 Q59.9619 679.623 59.1344 676.472 Q58.3069 673.289 56.6518 670.17 L62.1899 670.17 Q63.5267 673.321 64.227 676.631 Q64.9272 679.941 64.9272 683.347 Q64.9272 691.877 59.9619 696.874 Q54.9967 701.839 46.5303 701.839 Q37.7774 701.839 32.6531 697.128 Q27.4968 692.386 27.4968 684.365 Q27.4968 677.172 32.1438 673.002 Q36.7589 668.801 44.7161 668.801 M42.9973 674.658 Q38.1912 674.721 35.3266 677.363 Q32.4621 679.973 32.4621 684.302 Q32.4621 689.203 35.2312 692.163 Q38.0002 695.091 43.0292 695.537 L42.9973 674.658 Z" fill="#000000" fill-rule="nonzero" fill-opacity="1" /><path clip-path="url(#clip200)" d="M28.3562 662.595 L28.3562 656.738 L56.1743 649.418 L28.3562 642.129 L28.3562 635.222 L56.1743 627.901 L28.3562 620.613 L28.3562 614.756 L64.0042 624.082 L64.0042 630.989 L34.7856 638.659 L64.0042 646.362 L64.0042 653.269 L28.3562 662.595 Z" fill="#000000" fill-rule="nonzero" fill-opacity="1" /><path clip-path="url(#clip200)" d="M46.0847 589.675 Q46.0847 596.773 47.7079 599.51 Q49.3312 602.248 53.2461 602.248 Q56.3653 602.248 58.2114 600.211 Q60.0256 598.142 60.0256 594.609 Q60.0256 589.739 56.5881 586.811 Q53.1188 583.851 47.3897 583.851 L46.0847 583.851 L46.0847 589.675 M43.6657 577.994 L64.0042 577.994 L64.0042 583.851 L58.5933 583.851 Q61.8398 585.856 63.3994 588.848 Q64.9272 591.84 64.9272 596.168 Q64.9272 601.643 61.8716 604.889 Q58.7843 608.104 53.6281 608.104 Q47.6125 608.104 44.5569 604.094 Q41.5014 600.051 41.5014 592.062 L41.5014 583.851 L40.9285 583.851 Q36.8862 583.851 34.6901 586.524 Q32.4621 589.166 32.4621 593.972 Q32.4621 597.028 33.1941 599.924 Q33.9262 602.821 35.3903 605.494 L29.9795 605.494 Q28.7381 602.279 28.1334 599.256 Q27.4968 596.232 27.4968 593.367 Q27.4968 585.633 31.5072 581.814 Q35.5176 577.994 43.6657 577.994 Z" fill="#000000" fill-rule="nonzero" fill-opacity="1" /><path clip-path="url(#clip200)" d="M33.8307 545.275 Q33.2578 546.261 33.0032 547.439 Q32.7167 548.585 32.7167 549.985 Q32.7167 554.95 35.9632 557.624 Q39.1779 560.266 45.2253 560.266 L64.0042 560.266 L64.0042 566.154 L28.3562 566.154 L28.3562 560.266 L33.8944 560.266 Q30.6479 558.42 29.0883 555.46 Q27.4968 552.5 27.4968 548.266 Q27.4968 547.662 27.5923 546.93 Q27.656 546.198 27.8151 545.306 L33.8307 545.275 Z" fill="#000000" fill-rule="nonzero" fill-opacity="1" /><path clip-path="url(#clip200)" d="M33.7671 516.82 L14.479 516.82 L14.479 510.963 L64.0042 510.963 L64.0042 516.82 L58.657 516.82 Q61.8398 518.666 63.3994 521.499 Q64.9272 524.3 64.9272 528.246 Q64.9272 534.707 59.771 538.782 Q54.6147 542.824 46.212 542.824 Q37.8093 542.824 32.6531 538.782 Q27.4968 534.707 27.4968 528.246 Q27.4968 524.3 29.0564 521.499 Q30.5842 518.666 33.7671 516.82 M46.212 536.776 Q52.6732 536.776 56.3653 534.135 Q60.0256 531.461 60.0256 526.814 Q60.0256 522.167 56.3653 519.493 Q52.6732 516.82 46.212 516.82 Q39.7508 516.82 36.0905 519.493 Q32.3984 522.167 32.3984 526.814 Q32.3984 531.461 36.0905 534.135 Q39.7508 536.776 46.212 536.776 Z" fill="#000000" fill-rule="nonzero" fill-opacity="1" /><path clip-path="url(#clip200)" d="M584.802 20.1573 L573.702 50.2555 L595.942 50.2555 L584.802 20.1573 M580.184 12.096 L589.46 12.096 L612.51 72.576 L604.003 72.576 L598.494 57.061 L571.231 57.061 L565.722 72.576 L557.093 72.576 L580.184 12.096 Z" fill="#000000" fill-rule="nonzero" fill-opacity="1" /><path clip-path="url(#clip200)" d="M610.808 27.2059 L618.708 27.2059 L632.886 65.2844 L647.064 27.2059 L654.963 27.2059 L637.949 72.576 L627.822 72.576 L610.808 27.2059 Z" fill="#000000" fill-rule="nonzero" fill-opacity="1" /><path clip-path="url(#clip200)" d="M704.06 48.0275 L704.06 51.6733 L669.79 51.6733 Q670.276 59.3701 674.408 63.421 Q678.58 67.4314 685.993 67.4314 Q690.287 67.4314 694.297 66.3781 Q698.348 65.3249 702.318 63.2184 L702.318 70.267 Q698.308 71.9684 694.095 72.8596 Q689.882 73.7508 685.548 73.7508 Q674.691 73.7508 668.331 67.4314 Q662.012 61.1119 662.012 50.3365 Q662.012 39.1965 668.007 32.6746 Q674.043 26.1121 684.251 26.1121 Q693.406 26.1121 698.713 32.0264 Q704.06 37.9003 704.06 48.0275 M696.606 45.84 Q696.525 39.7232 693.163 36.0774 Q689.841 32.4315 684.332 32.4315 Q678.094 32.4315 674.327 35.9558 Q670.6 39.4801 670.033 45.8805 L696.606 45.84 Z" fill="#000000" fill-rule="nonzero" fill-opacity="1" /><path clip-path="url(#clip200)" d="M742.584 34.1734 Q741.328 33.4443 739.83 33.1202 Q738.371 32.7556 736.589 32.7556 Q730.27 32.7556 726.867 36.8875 Q723.504 40.9789 723.504 48.6757 L723.504 72.576 L716.01 72.576 L716.01 27.2059 L723.504 27.2059 L723.504 34.2544 Q725.854 30.1225 729.621 28.1376 Q733.389 26.1121 738.776 26.1121 Q739.546 26.1121 740.478 26.2337 Q741.409 26.3147 742.544 26.5172 L742.584 34.1734 Z" fill="#000000" fill-rule="nonzero" fill-opacity="1" /><path clip-path="url(#clip200)" d="M771.022 49.7694 Q761.988 49.7694 758.504 51.8354 Q755.021 53.9013 755.021 58.8839 Q755.021 62.8538 757.613 65.2034 Q760.246 67.5124 764.743 67.5124 Q770.941 67.5124 774.667 63.1374 Q778.435 58.7219 778.435 51.4303 L778.435 49.7694 L771.022 49.7694 M785.888 46.6907 L785.888 72.576 L778.435 72.576 L778.435 65.6895 Q775.883 69.8214 772.075 71.8063 Q768.267 73.7508 762.758 73.7508 Q755.79 73.7508 751.658 69.8619 Q747.567 65.9325 747.567 59.3701 Q747.567 51.7138 752.671 47.825 Q757.816 43.9361 767.983 43.9361 L778.435 43.9361 L778.435 43.2069 Q778.435 38.0623 775.032 35.2672 Q771.67 32.4315 765.553 32.4315 Q761.664 32.4315 757.978 33.3632 Q754.291 34.295 750.889 36.1584 L750.889 29.2718 Q754.98 27.692 758.828 26.9223 Q762.677 26.1121 766.323 26.1121 Q776.166 26.1121 781.027 31.2163 Q785.888 36.3204 785.888 46.6907 Z" fill="#000000" fill-rule="nonzero" fill-opacity="1" /><path clip-path="url(#clip200)" d="M831.097 49.3643 Q831.097 41.2625 827.734 36.8065 Q824.413 32.3505 818.377 32.3505 Q812.381 32.3505 809.019 36.8065 Q805.697 41.2625 805.697 49.3643 Q805.697 57.4256 809.019 61.8816 Q812.381 66.3376 818.377 66.3376 Q824.413 66.3376 827.734 61.8816 Q831.097 57.4256 831.097 49.3643 M838.55 66.9452 Q838.55 78.5308 833.406 84.1616 Q828.261 89.8329 817.648 89.8329 Q813.718 89.8329 810.234 89.2252 Q806.751 88.6581 803.469 87.4428 L803.469 80.1917 Q806.751 81.9741 809.951 82.8248 Q813.151 83.6755 816.473 83.6755 Q823.805 83.6755 827.451 79.8271 Q831.097 76.0193 831.097 68.282 L831.097 64.5957 Q828.787 68.6061 825.182 70.5911 Q821.577 72.576 816.554 72.576 Q808.209 72.576 803.105 66.2161 Q798.001 59.8562 798.001 49.3643 Q798.001 38.832 803.105 32.472 Q808.209 26.1121 816.554 26.1121 Q821.577 26.1121 825.182 28.0971 Q828.787 30.082 831.097 34.0924 L831.097 27.2059 L838.55 27.2059 L838.55 66.9452 Z" fill="#000000" fill-rule="nonzero" fill-opacity="1" /><path clip-path="url(#clip200)" d="M892.711 48.0275 L892.711 51.6733 L858.44 51.6733 Q858.926 59.3701 863.058 63.421 Q867.231 67.4314 874.644 67.4314 Q878.938 67.4314 882.948 66.3781 Q886.999 65.3249 890.969 63.2184 L890.969 70.267 Q886.958 71.9684 882.746 72.8596 Q878.533 73.7508 874.198 73.7508 Q863.342 73.7508 856.982 67.4314 Q850.662 61.1119 850.662 50.3365 Q850.662 39.1965 856.658 32.6746 Q862.694 26.1121 872.902 26.1121 Q882.057 26.1121 887.364 32.0264 Q892.711 37.9003 892.711 48.0275 M885.257 45.84 Q885.176 39.7232 881.814 36.0774 Q878.492 32.4315 872.983 32.4315 Q866.744 32.4315 862.977 35.9558 Q859.25 39.4801 858.683 45.8805 L885.257 45.84 Z" fill="#000000" fill-rule="nonzero" fill-opacity="1" /><path clip-path="url(#clip200)" d="M960.32 44.2197 Q962.953 45.1109 965.424 48.0275 Q967.936 50.9442 970.448 56.0483 L978.752 72.576 L969.962 72.576 L962.224 57.061 Q959.227 50.9847 956.391 48.9997 Q953.596 47.0148 948.735 47.0148 L939.823 47.0148 L939.823 72.576 L931.64 72.576 L931.64 12.096 L950.112 12.096 Q960.482 12.096 965.587 16.4305 Q970.691 20.7649 970.691 29.5149 Q970.691 35.2267 968.017 38.994 Q965.384 42.7613 960.32 44.2197 M939.823 18.8205 L939.823 40.2903 L950.112 40.2903 Q956.026 40.2903 959.024 37.5762 Q962.062 34.8216 962.062 29.5149 Q962.062 24.2082 959.024 21.5346 Q956.026 18.8205 950.112 18.8205 L939.823 18.8205 Z" fill="#000000" fill-rule="nonzero" fill-opacity="1" /><path clip-path="url(#clip200)" d="M1002.81 32.4315 Q996.819 32.4315 993.335 37.1306 Q989.851 41.7891 989.851 49.9314 Q989.851 58.0738 993.295 62.7728 Q996.778 67.4314 1002.81 67.4314 Q1008.77 67.4314 1012.25 62.7323 Q1015.74 58.0333 1015.74 49.9314 Q1015.74 41.8701 1012.25 37.1711 Q1008.77 32.4315 1002.81 32.4315 M1002.81 26.1121 Q1012.54 26.1121 1018.09 32.4315 Q1023.64 38.7509 1023.64 49.9314 Q1023.64 61.0714 1018.09 67.4314 Q1012.54 73.7508 1002.81 73.7508 Q993.052 73.7508 987.502 67.4314 Q981.993 61.0714 981.993 49.9314 Q981.993 38.7509 987.502 32.4315 Q993.052 26.1121 1002.81 26.1121 Z" fill="#000000" fill-rule="nonzero" fill-opacity="1" /><path clip-path="url(#clip200)" d="M1068.56 49.9314 Q1068.56 41.7081 1065.16 37.0496 Q1061.8 32.3505 1055.88 32.3505 Q1049.97 32.3505 1046.56 37.0496 Q1043.2 41.7081 1043.2 49.9314 Q1043.2 58.1548 1046.56 62.8538 Q1049.97 67.5124 1055.88 67.5124 Q1061.8 67.5124 1065.16 62.8538 Q1068.56 58.1548 1068.56 49.9314 M1043.2 34.0924 Q1045.55 30.0415 1049.12 28.0971 Q1052.72 26.1121 1057.7 26.1121 Q1065.97 26.1121 1071.11 32.6746 Q1076.3 39.2371 1076.3 49.9314 Q1076.3 60.6258 1071.11 67.1883 Q1065.97 73.7508 1057.7 73.7508 Q1052.72 73.7508 1049.12 71.8063 Q1045.55 69.8214 1043.2 65.7705 L1043.2 72.576 L1035.71 72.576 L1035.71 9.54393 L1043.2 9.54393 L1043.2 34.0924 Z" fill="#000000" fill-rule="nonzero" fill-opacity="1" /><path clip-path="url(#clip200)" d="M1106.23 32.4315 Q1100.24 32.4315 1096.75 37.1306 Q1093.27 41.7891 1093.27 49.9314 Q1093.27 58.0738 1096.71 62.7728 Q1100.2 67.4314 1106.23 67.4314 Q1112.19 67.4314 1115.67 62.7323 Q1119.16 58.0333 1119.16 49.9314 Q1119.16 41.8701 1115.67 37.1711 Q1112.19 32.4315 1106.23 32.4315 M1106.23 26.1121 Q1115.96 26.1121 1121.51 32.4315 Q1127.06 38.7509 1127.06 49.9314 Q1127.06 61.0714 1121.51 67.4314 Q1115.96 73.7508 1106.23 73.7508 Q1096.47 73.7508 1090.92 67.4314 Q1085.41 61.0714 1085.41 49.9314 Q1085.41 38.7509 1090.92 32.4315 Q1096.47 26.1121 1106.23 26.1121 Z" fill="#000000" fill-rule="nonzero" fill-opacity="1" /><path clip-path="url(#clip200)" d="M1146.78 14.324 L1146.78 27.2059 L1162.14 27.2059 L1162.14 32.9987 L1146.78 32.9987 L1146.78 57.6282 Q1146.78 63.1779 1148.28 64.7578 Q1149.82 66.3376 1154.48 66.3376 L1162.14 66.3376 L1162.14 72.576 L1154.48 72.576 Q1145.85 72.576 1142.57 69.3758 Q1139.29 66.1351 1139.29 57.6282 L1139.29 32.9987 L1133.82 32.9987 L1133.82 27.2059 L1139.29 27.2059 L1139.29 14.324 L1146.78 14.324 Z" fill="#000000" fill-rule="nonzero" fill-opacity="1" /><path clip-path="url(#clip200)" d="M1227.32 44.2197 Q1229.95 45.1109 1232.42 48.0275 Q1234.93 50.9442 1237.44 56.0483 L1245.75 72.576 L1236.96 72.576 L1229.22 57.061 Q1226.22 50.9847 1223.39 48.9997 Q1220.59 47.0148 1215.73 47.0148 L1206.82 47.0148 L1206.82 72.576 L1198.64 72.576 L1198.64 12.096 L1217.11 12.096 Q1227.48 12.096 1232.58 16.4305 Q1237.69 20.7649 1237.69 29.5149 Q1237.69 35.2267 1235.01 38.994 Q1232.38 42.7613 1227.32 44.2197 M1206.82 18.8205 L1206.82 40.2903 L1217.11 40.2903 Q1223.02 40.2903 1226.02 37.5762 Q1229.06 34.8216 1229.06 29.5149 Q1229.06 24.2082 1226.02 21.5346 Q1223.02 18.8205 1217.11 18.8205 L1206.82 18.8205 Z" fill="#000000" fill-rule="nonzero" fill-opacity="1" /><path clip-path="url(#clip200)" d="M1291.04 48.0275 L1291.04 51.6733 L1256.77 51.6733 Q1257.25 59.3701 1261.38 63.421 Q1265.56 67.4314 1272.97 67.4314 Q1277.26 67.4314 1281.27 66.3781 Q1285.32 65.3249 1289.29 63.2184 L1289.29 70.267 Q1285.28 71.9684 1281.07 72.8596 Q1276.86 73.7508 1272.52 73.7508 Q1261.67 73.7508 1255.31 67.4314 Q1248.99 61.1119 1248.99 50.3365 Q1248.99 39.1965 1254.98 32.6746 Q1261.02 26.1121 1271.23 26.1121 Q1280.38 26.1121 1285.69 32.0264 Q1291.04 37.9003 1291.04 48.0275 M1283.58 45.84 Q1283.5 39.7232 1280.14 36.0774 Q1276.82 32.4315 1271.31 32.4315 Q1265.07 32.4315 1261.3 35.9558 Q1257.58 39.4801 1257.01 45.8805 L1283.58 45.84 Z" fill="#000000" fill-rule="nonzero" fill-opacity="1" /><path clip-path="url(#clip200)" d="M1298.94 27.2059 L1306.39 27.2059 L1315.71 62.6108 L1324.98 27.2059 L1333.77 27.2059 L1343.09 62.6108 L1352.37 27.2059 L1359.82 27.2059 L1347.95 72.576 L1339.16 72.576 L1329.4 35.3887 L1319.6 72.576 L1310.8 72.576 L1298.94 27.2059 Z" fill="#000000" fill-rule="nonzero" fill-opacity="1" /><path clip-path="url(#clip200)" d="M1391.74 49.7694 Q1382.71 49.7694 1379.22 51.8354 Q1375.74 53.9013 1375.74 58.8839 Q1375.74 62.8538 1378.33 65.2034 Q1380.97 67.5124 1385.46 67.5124 Q1391.66 67.5124 1395.39 63.1374 Q1399.15 58.7219 1399.15 51.4303 L1399.15 49.7694 L1391.74 49.7694 M1406.61 46.6907 L1406.61 72.576 L1399.15 72.576 L1399.15 65.6895 Q1396.6 69.8214 1392.79 71.8063 Q1388.99 73.7508 1383.48 73.7508 Q1376.51 73.7508 1372.38 69.8619 Q1368.29 65.9325 1368.29 59.3701 Q1368.29 51.7138 1373.39 47.825 Q1378.54 43.9361 1388.7 43.9361 L1399.15 43.9361 L1399.15 43.2069 Q1399.15 38.0623 1395.75 35.2672 Q1392.39 32.4315 1386.27 32.4315 Q1382.38 32.4315 1378.7 33.3632 Q1375.01 34.295 1371.61 36.1584 L1371.61 29.2718 Q1375.7 27.692 1379.55 26.9223 Q1383.4 26.1121 1387.04 26.1121 Q1396.89 26.1121 1401.75 31.2163 Q1406.61 36.3204 1406.61 46.6907 Z" fill="#000000" fill-rule="nonzero" fill-opacity="1" /><path clip-path="url(#clip200)" d="M1448.25 34.1734 Q1447 33.4443 1445.5 33.1202 Q1444.04 32.7556 1442.26 32.7556 Q1435.94 32.7556 1432.53 36.8875 Q1429.17 40.9789 1429.17 48.6757 L1429.17 72.576 L1421.68 72.576 L1421.68 27.2059 L1429.17 27.2059 L1429.17 34.2544 Q1431.52 30.1225 1435.29 28.1376 Q1439.06 26.1121 1444.44 26.1121 Q1445.21 26.1121 1446.15 26.2337 Q1447.08 26.3147 1448.21 26.5172 L1448.25 34.1734 Z" fill="#000000" fill-rule="nonzero" fill-opacity="1" /><path clip-path="url(#clip200)" d="M1484.47 34.0924 L1484.47 9.54393 L1491.92 9.54393 L1491.92 72.576 L1484.47 72.576 L1484.47 65.7705 Q1482.12 69.8214 1478.51 71.8063 Q1474.95 73.7508 1469.92 73.7508 Q1461.7 73.7508 1456.52 67.1883 Q1451.37 60.6258 1451.37 49.9314 Q1451.37 39.2371 1456.52 32.6746 Q1461.7 26.1121 1469.92 26.1121 Q1474.95 26.1121 1478.51 28.0971 Q1482.12 30.0415 1484.47 34.0924 M1459.07 49.9314 Q1459.07 58.1548 1462.43 62.8538 Q1465.83 67.5124 1471.75 67.5124 Q1477.66 67.5124 1481.06 62.8538 Q1484.47 58.1548 1484.47 49.9314 Q1484.47 41.7081 1481.06 37.0496 Q1477.66 32.3505 1471.75 32.3505 Q1465.83 32.3505 1462.43 37.0496 Q1459.07 41.7081 1459.07 49.9314 Z" fill="#000000" fill-rule="nonzero" fill-opacity="1" /><path clip-path="url(#clip200)" d="M1540.86 65.7705 L1540.86 89.8329 L1533.36 89.8329 L1533.36 27.2059 L1540.86 27.2059 L1540.86 34.0924 Q1543.2 30.0415 1546.77 28.0971 Q1550.38 26.1121 1555.36 26.1121 Q1563.62 26.1121 1568.77 32.6746 Q1573.95 39.2371 1573.95 49.9314 Q1573.95 60.6258 1568.77 67.1883 Q1563.62 73.7508 1555.36 73.7508 Q1550.38 73.7508 1546.77 71.8063 Q1543.2 69.8214 1540.86 65.7705 M1566.21 49.9314 Q1566.21 41.7081 1562.81 37.0496 Q1559.45 32.3505 1553.53 32.3505 Q1547.62 32.3505 1544.22 37.0496 Q1540.86 41.7081 1540.86 49.9314 Q1540.86 58.1548 1544.22 62.8538 Q1547.62 67.5124 1553.53 67.5124 Q1559.45 67.5124 1562.81 62.8538 Q1566.21 58.1548 1566.21 49.9314 Z" fill="#000000" fill-rule="nonzero" fill-opacity="1" /><path clip-path="url(#clip200)" d="M1625.11 48.0275 L1625.11 51.6733 L1590.84 51.6733 Q1591.33 59.3701 1595.46 63.421 Q1599.63 67.4314 1607.05 67.4314 Q1611.34 67.4314 1615.35 66.3781 Q1619.4 65.3249 1623.37 63.2184 L1623.37 70.267 Q1619.36 71.9684 1615.15 72.8596 Q1610.94 73.7508 1606.6 73.7508 Q1595.75 73.7508 1589.39 67.4314 Q1583.07 61.1119 1583.07 50.3365 Q1583.07 39.1965 1589.06 32.6746 Q1595.1 26.1121 1605.31 26.1121 Q1614.46 26.1121 1619.77 32.0264 Q1625.11 37.9003 1625.11 48.0275 M1617.66 45.84 Q1617.58 39.7232 1614.22 36.0774 Q1610.9 32.4315 1605.39 32.4315 Q1599.15 32.4315 1595.38 35.9558 Q1591.65 39.4801 1591.09 45.8805 L1617.66 45.84 Z" fill="#000000" fill-rule="nonzero" fill-opacity="1" /><path clip-path="url(#clip200)" d="M1663.64 34.1734 Q1662.38 33.4443 1660.88 33.1202 Q1659.43 32.7556 1657.64 32.7556 Q1651.32 32.7556 1647.92 36.8875 Q1644.56 40.9789 1644.56 48.6757 L1644.56 72.576 L1637.06 72.576 L1637.06 27.2059 L1644.56 27.2059 L1644.56 34.2544 Q1646.91 30.1225 1650.68 28.1376 Q1654.44 26.1121 1659.83 26.1121 Q1660.6 26.1121 1661.53 26.2337 Q1662.46 26.3147 1663.6 26.5172 L1663.64 34.1734 Z" fill="#000000" fill-rule="nonzero" fill-opacity="1" /><path clip-path="url(#clip200)" d="M1689.77 12.096 L1740.93 12.096 L1740.93 18.9825 L1719.46 18.9825 L1719.46 72.576 L1711.24 72.576 L1711.24 18.9825 L1689.77 18.9825 L1689.77 12.096 Z" fill="#000000" fill-rule="nonzero" fill-opacity="1" /><path clip-path="url(#clip200)" d="M1745.95 27.2059 L1753.41 27.2059 L1753.41 72.576 L1745.95 72.576 L1745.95 27.2059 M1745.95 9.54393 L1753.41 9.54393 L1753.41 18.9825 L1745.95 18.9825 L1745.95 9.54393 Z" fill="#000000" fill-rule="nonzero" fill-opacity="1" /><path clip-path="url(#clip200)" d="M1804.33 35.9153 Q1807.12 30.8922 1811.01 28.5022 Q1814.9 26.1121 1820.17 26.1121 Q1827.25 26.1121 1831.1 31.0947 Q1834.95 36.0368 1834.95 45.1919 L1834.95 72.576 L1827.46 72.576 L1827.46 45.4349 Q1827.46 38.913 1825.15 35.7533 Q1822.84 32.5936 1818.1 32.5936 Q1812.31 32.5936 1808.94 36.4419 Q1805.58 40.2903 1805.58 46.9338 L1805.58 72.576 L1798.09 72.576 L1798.09 45.4349 Q1798.09 38.8725 1795.78 35.7533 Q1793.47 32.5936 1788.65 32.5936 Q1782.94 32.5936 1779.58 36.4824 Q1776.21 40.3308 1776.21 46.9338 L1776.21 72.576 L1768.72 72.576 L1768.72 27.2059 L1776.21 27.2059 L1776.21 34.2544 Q1778.77 30.082 1782.33 28.0971 Q1785.89 26.1121 1790.8 26.1121 Q1795.74 26.1121 1799.18 28.6237 Q1802.67 31.1352 1804.33 35.9153 Z" fill="#000000" fill-rule="nonzero" fill-opacity="1" /><path clip-path="url(#clip200)" d="M1888.63 48.0275 L1888.63 51.6733 L1854.35 51.6733 Q1854.84 59.3701 1858.97 63.421 Q1863.15 67.4314 1870.56 67.4314 Q1874.85 67.4314 1878.86 66.3781 Q1882.91 65.3249 1886.88 63.2184 L1886.88 70.267 Q1882.87 71.9684 1878.66 72.8596 Q1874.45 73.7508 1870.11 73.7508 Q1859.26 73.7508 1852.9 67.4314 Q1846.58 61.1119 1846.58 50.3365 Q1846.58 39.1965 1852.57 32.6746 Q1858.61 26.1121 1868.82 26.1121 Q1877.97 26.1121 1883.28 32.0264 Q1888.63 37.9003 1888.63 48.0275 M1881.17 45.84 Q1881.09 39.7232 1877.73 36.0774 Q1874.41 32.4315 1868.9 32.4315 Q1862.66 32.4315 1858.89 35.9558 Q1855.17 39.4801 1854.6 45.8805 L1881.17 45.84 Z" fill="#000000" fill-rule="nonzero" fill-opacity="1" /><path clip-path="url(#clip200)" d="M1929.78 28.5427 L1929.78 35.5912 Q1926.62 33.9709 1923.22 33.1607 Q1919.82 32.3505 1916.17 32.3505 Q1910.62 32.3505 1907.83 34.0519 Q1905.07 35.7533 1905.07 39.156 Q1905.07 41.7486 1907.06 43.2475 Q1909.04 44.7058 1915.04 46.0426 L1917.59 46.6097 Q1925.53 48.3111 1928.85 51.4303 Q1932.21 54.509 1932.21 60.0587 Q1932.21 66.3781 1927.19 70.0644 Q1922.21 73.7508 1913.46 73.7508 Q1909.81 73.7508 1905.84 73.0216 Q1901.91 72.3329 1897.54 70.9151 L1897.54 63.2184 Q1901.67 65.3654 1905.68 66.4591 Q1909.69 67.5124 1913.62 67.5124 Q1918.89 67.5124 1921.72 65.73 Q1924.56 63.9071 1924.56 60.6258 Q1924.56 57.5877 1922.49 55.9673 Q1920.47 54.3469 1913.54 52.8481 L1910.95 52.2405 Q1904.02 50.7821 1900.94 47.7845 Q1897.86 44.7463 1897.86 39.4801 Q1897.86 33.0797 1902.4 29.5959 Q1906.94 26.1121 1915.28 26.1121 Q1919.41 26.1121 1923.06 26.7198 Q1926.7 27.3274 1929.78 28.5427 Z" fill="#000000" fill-rule="nonzero" fill-opacity="1" /><path clip-path="url(#clip200)" d="M1951.46 14.324 L1951.46 27.2059 L1966.81 27.2059 L1966.81 32.9987 L1951.46 32.9987 L1951.46 57.6282 Q1951.46 63.1779 1952.95 64.7578 Q1954.49 66.3376 1959.15 66.3376 L1966.81 66.3376 L1966.81 72.576 L1959.15 72.576 Q1950.52 72.576 1947.24 69.3758 Q1943.96 66.1351 1943.96 57.6282 L1943.96 32.9987 L1938.49 32.9987 L1938.49 27.2059 L1943.96 27.2059 L1943.96 14.324 L1951.46 14.324 Z" fill="#000000" fill-rule="nonzero" fill-opacity="1" /><path clip-path="url(#clip200)" d="M2015.42 48.0275 L2015.42 51.6733 L1981.15 51.6733 Q1981.63 59.3701 1985.77 63.421 Q1989.94 67.4314 1997.35 67.4314 Q2001.65 67.4314 2005.66 66.3781 Q2009.71 65.3249 2013.68 63.2184 L2013.68 70.267 Q2009.67 71.9684 2005.45 72.8596 Q2001.24 73.7508 1996.91 73.7508 Q1986.05 73.7508 1979.69 67.4314 Q1973.37 61.1119 1973.37 50.3365 Q1973.37 39.1965 1979.37 32.6746 Q1985.4 26.1121 1995.61 26.1121 Q2004.76 26.1121 2010.07 32.0264 Q2015.42 37.9003 2015.42 48.0275 M2007.97 45.84 Q2007.88 39.7232 2004.52 36.0774 Q2001.2 32.4315 1995.69 32.4315 Q1989.45 32.4315 1985.69 35.9558 Q1981.96 39.4801 1981.39 45.8805 L2007.97 45.84 Z" fill="#000000" fill-rule="nonzero" fill-opacity="1" /><path clip-path="url(#clip200)" d="M2034.86 65.7705 L2034.86 89.8329 L2027.37 89.8329 L2027.37 27.2059 L2034.86 27.2059 L2034.86 34.0924 Q2037.21 30.0415 2040.78 28.0971 Q2044.38 26.1121 2049.37 26.1121 Q2057.63 26.1121 2062.77 32.6746 Q2067.96 39.2371 2067.96 49.9314 Q2067.96 60.6258 2062.77 67.1883 Q2057.63 73.7508 2049.37 73.7508 Q2044.38 73.7508 2040.78 71.8063 Q2037.21 69.8214 2034.86 65.7705 M2060.22 49.9314 Q2060.22 41.7081 2056.82 37.0496 Q2053.46 32.3505 2047.54 32.3505 Q2041.63 32.3505 2038.23 37.0496 Q2034.86 41.7081 2034.86 49.9314 Q2034.86 58.1548 2038.23 62.8538 Q2041.63 67.5124 2047.54 67.5124 Q2053.46 67.5124 2056.82 62.8538 Q2060.22 58.1548 2060.22 49.9314 Z" fill="#000000" fill-rule="nonzero" fill-opacity="1" /><polyline clip-path="url(#clip202)" style="stroke:#009af9; stroke-linecap:round; stroke-linejoin:round; stroke-width:4; stroke-opacity:1; fill:none" points="331.177,1118.25 333.142,909.166 335.107,732.752 337.071,573.884 339.036,405.618 341.001,281.797 342.965,278.623 344.93,305.022 346.895,308.856 348.859,160.256 350.824,984.93 352.789,869.107 354.753,745.776 356.718,650.343 358.683,531.532 360.647,410.757 362.612,275.403 364.577,322.275 366.541,374.518 368.506,269.493 370.471,844.141 372.435,682.964 374.4,529.301 376.365,396.756 378.329,373.598 380.294,295.706 382.259,332.319 384.223,375.006 386.188,390.142 388.153,410.735 390.117,709.278 392.082,696.24 394.047,502.338 396.011,342.792 397.976,204.143 399.941,241.422 401.905,348.187 403.87,411.687 405.835,373.768 407.799,339.081 409.764,603.596 411.729,421.148 413.693,269.111 415.658,165.529 417.623,242.792 419.587,222.685 421.552,333.118 423.517,295.57 425.481,287.326 427.446,301.402 429.411,561.473 431.375,444.911 433.34,293.436 435.305,298.435 437.269,166.246 439.234,217.074 441.199,249.697 443.163,289.284 445.128,367.939 447.093,310.45 449.057,603.596 451.022,409.321 452.987,252.376 454.951,291.649 456.916,194.701 458.881,223.876 460.845,229.325 462.81,275.061 464.774,472.151 466.739,459.442 468.704,561.473 470.668,411.166 472.633,338.454 474.598,256.939 476.562,217.957 478.527,338.122 480.492,186.383 482.456,291.09 484.421,435.375 486.386,477.659 488.35,603.596 490.315,403.953 492.28,325.47 494.244,255.792 496.209,222.249 498.174,163.379 500.138,214.651 502.103,213.222 504.068,178.512 506.032,200.919 507.997,635.376 509.962,445.679 511.926,466.894 513.891,377.016 515.856,354.806 517.82,303.492 519.785,328.215 521.75,270.587 523.714,310.491 525.679,310.071 527.644,603.596 529.608,487.076 531.573,376.637 533.538,233.013 535.502,256.486 537.467,276.348 539.432,282.731 541.396,351.364 543.361,343.911 545.326,281.994 547.29,635.376 549.255,465.42 551.22,326.632 553.184,184.771 555.149,185.603 557.114,239.227 559.078,288.523 561.043,315.274 563.008,350.115 564.972,450.445 566.937,603.596 568.902,406.641 570.866,268.394 572.831,292.537 574.796,232.635 576.76,271.206 578.725,242.494 580.69,296.958 582.654,279.442 584.619,372.564 586.584,635.376 588.548,588.402 590.513,471.387 592.478,263.835 594.442,230.678 596.407,181.09 598.372,211.655 600.336,265.003 602.301,350.839 604.266,334.514 606.23,656.437 608.195,495.462 610.159,446.667 612.124,437.106 614.089,444.741 616.053,519.39 618.018,507.934 619.983,605.661 621.947,586.009 623.912,532.559 625.877,635.376 627.841,477.786 629.806,492.803 631.771,460.448 633.735,373.367 635.7,348.137 637.665,315.413 639.629,415.078 641.594,428.507 643.559,473.171 645.523,656.437 647.488,519.656 649.453,434.214 651.417,322.891 653.382,312.277 655.347,367.955 657.311,318.564 659.276,417.636 661.241,316.306 663.205,443.039 665.17,635.376 667.135,581.506 669.099,429.365 671.064,337.402 673.029,306.501 674.993,342.32 676.958,382.516 678.923,463.667 680.887,422.668 682.852,433.273 684.817,656.437 686.781,468.95 688.746,395.498 690.711,319.277 692.675,289.886 694.64,372.402 696.605,372.813 698.569,408.64 700.534,543.905 702.499,582.458 704.463,709.278 706.428,570.594 708.393,466.55 710.357,400.705 712.322,382.163 714.287,305.643 716.251,374.265 718.216,505.136 720.181,493.578 722.145,556.923 724.11,656.437 726.075,532.276 728.039,367.577 730.004,216.378 731.969,278.004 733.933,221.044 735.898,244.716 737.863,228.551 739.827,240.484 741.792,221.661 743.757,635.376 745.721,565.084 747.686,406.184 749.651,467.601 751.615,463.601 753.58,477.139 755.544,484.584 757.509,519.842 759.474,559.152 761.438,508.253 763.403,594.654 765.368,376.959 767.332,234.202 769.297,269.642 771.262,245.973 773.226,201.56 775.191,248.026 777.156,306.756 779.12,406.557 781.085,419.199 783.05,566.952 785.014,473.737 786.979,326.442 788.944,342.956 790.908,299.861 792.873,249.202 794.838,257.643 796.802,323.656 798.767,265.145 800.732,326.28 802.696,588.014 804.661,388.163 806.626,259.83 808.59,206.245 810.555,277.343 812.52,287.072 814.484,361.118 816.449,314.533 818.414,371.109 820.378,415.984 822.343,694.098 824.308,526.007 826.272,363.718 828.237,395.861 830.202,385.632 832.166,406.005 834.131,394.481 836.096,405.502 838.06,413.845 840.025,401.919 841.99,641.257 843.954,456.281 845.919,378.5 847.884,483.073 849.848,412.596 851.813,371.151 853.778,453.518 855.742,482.073 857.707,520.537 859.672,671.342 861.636,620.195 863.601,619.792 865.566,598.649 867.53,417.796 869.495,313.047 871.46,303.156 873.424,371.756 875.389,296.448 877.354,289.122 879.318,409.418 881.283,723.869 883.248,524.749 885.212,474.956 887.177,415.121 889.142,351.878 891.106,305.713 893.071,222.565 895.036,293.924 897,396.258 898.965,415.139 900.929,702.807 902.894,584.117 904.859,568.36 906.823,571.034 908.788,484.802 910.753,506.51 912.717,473.473 914.682,460.018 916.647,456.706 918.611,503.956 920.576,723.869 922.541,578.549 924.505,478.322 926.47,503.962 928.435,469.925 930.399,558.901 932.364,508.053 934.329,495.728 936.293,535.547 938.258,517.002 940.223,702.807 942.187,554.01 944.152,400.241 946.117,426.729 948.081,485.139 950.046,471.494 952.011,481.732 953.975,466.115 955.94,406.31 957.905,412.256 959.869,723.869 961.834,622.276 963.799,545.796 965.763,458.412 967.728,416.274 969.693,415.984 971.657,579.657 973.622,566.483 975.587,513.82 977.551,584.186 979.516,702.807 981.481,597.773 983.445,505.639 985.41,435.993 987.375,338.971 989.339,411.643 991.304,399.291 993.269,360.606 995.233,280.713 997.198,279.904 999.163,811.47 1001.13,640.838 1003.09,598.339 1005.06,441.353 1007.02,344.562 1008.99,359.628 1010.95,416.193 1012.92,331.741 1014.88,314.752 1016.84,384.857 1018.81,790.409 1020.77,648.124 1022.74,671.59 1024.7,658.879 1026.67,512.459 1028.63,532.536 1030.6,499.885 1032.56,597.5 1034.53,533.959 1036.49,446.33 1038.46,811.47 1040.42,622.74 1042.39,611.987 1044.35,452.027 1046.31,323.882 1048.28,256.23 1050.24,314.536 1052.21,331.935 1054.17,424.347 1056.14,391.791 1058.1,790.409 1060.07,660.533 1062.03,694.174 1064,599.62 1065.96,521.496 1067.93,536.864 1069.89,624.385 1071.86,601.688 1073.82,522.232 1075.78,526.487 1077.75,811.47 1079.71,678.53 1081.68,574.999 1083.64,543.297 1085.61,516.485 1087.57,565.009 1089.54,540.689 1091.5,451.587 1093.47,474.935 1095.43,598.666 1097.4,790.409 1099.36,753.046 1101.33,690.537 1103.29,574.912 1105.25,566.158 1107.22,526.568 1109.18,562.359 1111.15,508.002 1113.11,572.921 1115.08,560.747 1117.04,811.47 1119.01,685.711 1120.97,485.832 1122.94,396.549 1124.9,324.907 1126.87,288.955 1128.83,236.429 1130.79,299.544 1132.76,299.845 1134.72,321.233 1136.69,790.409 1138.65,736.006 1140.62,668.976 1142.58,581.138 1144.55,632.857 1146.51,621.587 1148.48,616.378 1150.44,681.524 1152.41,562.735 1154.37,540.143 1156.34,811.47 1158.3,672.899 1160.26,518.137 1162.23,436.006 1164.19,441.005 1166.16,409.092 1168.12,356.149 1170.09,314.781 1172.05,473.477 1174.02,532.777 1175.98,790.409 1177.95,795.133 1179.91,712.985 1181.88,619.106 1183.84,645.965 1185.81,528.699 1187.77,434.879 1189.73,470.587 1191.7,381.86 1193.66,388.293 1195.63,811.47 1197.59,822 1199.56,659.228 1201.52,654.942 1203.49,645.367 1205.45,587.162 1207.42,684.664 1209.38,668.779 1211.35,610.976 1213.31,613.142 1215.28,790.409 1217.24,639.748 1219.2,483.034 1221.17,457.12 1223.13,479.619 1225.1,331.32 1227.06,298.435 1229.03,417.407 1230.99,458.954 1232.96,450.755 1234.92,811.47 1236.89,786.157 1238.85,627.75 1240.82,527.584 1242.78,450.179 1244.75,459.138 1246.71,409.548 1248.67,295.417 1250.64,383.466 1252.6,449.94 1254.57,790.409 1256.53,718.625 1258.5,624.103 1260.46,622.239 1262.43,482.193 1264.39,578.889 1266.36,570.824 1268.32,517.321 1270.29,488.075 1272.25,545.389 1274.22,811.47 1276.18,751.165 1278.14,648.136 1280.11,577.323 1282.07,491.73 1284.04,410.283 1286,443.82 1287.97,392.294 1289.93,359.558 1291.9,302.124 1293.86,790.409 1295.83,617.858 1297.79,470.978 1299.76,421.314 1301.72,386.598 1303.69,400.34 1305.65,420.936 1307.61,304.578 1309.58,364.171 1311.54,300.885 1313.51,811.47 1315.47,696.495 1317.44,520.188 1319.4,475.365 1321.37,432.605 1323.33,388.777 1325.3,471.261 1327.26,563.613 1329.23,576.852 1331.19,628.751 1333.16,864.311 1335.12,840.073 1337.08,880.144 1339.05,717.022 1341.01,595.281 1342.98,588.129 1344.94,512.01 1346.91,480.332 1348.87,387.381 1350.84,406.7 1352.8,811.47 1354.77,709.689 1356.73,661.003 1358.7,554.707 1360.66,640.226 1362.63,695.154 1364.59,783.931 1366.55,658.283 1368.52,653.718 1370.48,615.544 1372.45,864.311 1374.41,669.303 1376.38,546.02 1378.34,424.816 1380.31,362.614 1382.27,448.896 1384.24,603.96 1386.2,416.468 1388.17,378.546 1390.13,494.954 1392.1,811.47 1394.06,717.378 1396.02,594.496 1397.99,536.32 1399.95,587.885 1401.92,647.53 1403.88,488.827 1405.85,471.635 1407.81,482.537 1409.78,437.491 1411.74,790.409 1413.71,785.895 1415.67,619.17 1417.64,560.821 1419.6,642.34 1421.56,532.64 1423.53,605.828 1425.49,567.335 1427.46,446.62 1429.42,450.585 1431.39,811.47 1433.35,661.904 1435.32,759.065 1437.28,616.682 1439.25,541.627 1441.21,553.039 1443.18,615.683 1445.14,596.644 1447.11,530.958 1449.07,540.03 1451.03,864.311 1453,727.236 1454.96,604.818 1456.93,414.912 1458.89,402.017 1460.86,398.837 1462.82,533.953 1464.79,524.205 1466.75,617.659 1468.72,639.518 1470.68,811.47 1472.65,682.502 1474.61,487.732 1476.58,375.052 1478.54,316.336 1480.5,322.345 1482.47,373.444 1484.43,360.044 1486.4,341.886 1488.36,389.487 1490.33,870.447 1492.29,689.55 1494.26,511.308 1496.22,393.805 1498.19,350.727 1500.15,300.789 1502.12,191.978 1504.08,211.94 1506.05,240.648 1508.01,251.825 1509.97,957.013 1511.94,760.577 1513.9,561.277 1515.87,492.74 1517.83,405.411 1519.8,424.735 1521.76,339.938 1523.73,326.468 1525.69,315.656 1527.66,377.035 1529.62,935.951 1531.59,861.032 1533.55,816.725 1535.52,718.39 1537.48,833.008 1539.44,753.41 1541.41,632.989 1543.37,753.938 1545.34,685.772 1547.3,732.249 1549.27,957.013 1551.23,810.531 1553.2,684.261 1555.16,608.063 1557.13,586.056 1559.09,463.783 1561.06,468.283 1563.02,493.561 1564.99,562.379 1566.95,590.898 1568.91,935.951 1570.88,859.054 1572.84,775.727 1574.81,658.844 1576.77,699.542 1578.74,570.432 1580.7,576.853 1582.67,572.952 1584.63,535.684 1586.6,522.655 1588.56,957.013 1590.53,849.781 1592.49,652.718 1594.46,547.03 1596.42,594.477 1598.38,581.554 1600.35,515.292 1602.31,466.214 1604.28,395.596 1606.24,531.584 1608.21,935.951 1610.17,860.589 1612.14,759.905 1614.1,741.739 1616.07,679.633 1618.03,657.586 1620,620.251 1621.96,663.097 1623.93,620.576 1625.89,772.221 1627.85,957.013 1629.82,796.149 1631.78,700.156 1633.75,661.29 1635.71,633.189 1637.68,537.194 1639.64,555.601 1641.61,424.801 1643.57,482.503 1645.54,482.086 1647.5,935.951 1649.47,899.456 1651.43,799.81 1653.4,759.738 1655.36,691.618 1657.32,553.817 1659.29,591.453 1661.25,488.056 1663.22,564.247 1665.18,454.515 1667.15,957.013 1669.11,864.813 1671.08,759.603 1673.04,667.951 1675.01,615.647 1676.97,616.228 1678.94,575.277 1680.9,594.125 1682.87,509.813 1684.83,596.783 1686.79,935.951 1688.76,945.436 1690.72,867.92 1692.69,755.152 1694.65,540.02 1696.62,547.195 1698.58,632.468 1700.55,730.492 1702.51,718.79 1704.48,646.041 1706.44,957.013 1708.41,868.395 1710.37,686.645 1712.33,597.499 1714.3,598.074 1716.26,577.822 1718.23,517.936 1720.19,594.491 1722.16,589.01 1724.12,679.154 1726.09,935.951 1728.05,760.57 1730.02,561.699 1731.98,507.78 1733.95,429.226 1735.91,440.827 1737.88,484.281 1739.84,373.608 1741.8,340.239 1743.77,341.584 1745.73,1214.34 1747.7,1006.74 1749.66,819.085 1751.63,725.375 1753.59,556.515 1755.56,542.276 1757.52,429.195 1759.49,426.192 1761.45,496.443 1763.42,396.665 1765.38,1386.4 1767.35,1332.82 1769.31,1246.62 1771.27,1107.05 1773.24,1032.92 1775.2,979.86 1777.17,895.657 1779.13,773.699 1781.1,653.973 1783.06,696.148 1785.03,1214.34 1786.99,1083.93 1788.96,937.039 1790.92,895.679 1792.89,757.264 1794.85,723.12 1796.82,807.012 1798.78,746.318 1800.74,703.68 1802.71,754.656 1804.67,935.951 1806.64,769.792 1808.6,708.945 1810.57,625.528 1812.53,452.492 1814.5,404.594 1816.46,455.665 1818.43,452.394 1820.39,537.577 1822.36,569.772 1824.32,1214.34 1826.29,979.272 1828.25,972.521 1830.21,825.841 1832.18,745.01 1834.14,678.382 1836.11,636.161 1838.07,607.936 1840.04,544.039 1842,716.481 1843.97,1386.4 1845.93,1265.87 1847.9,1152.36 1849.86,1020.09 1851.83,831.98 1853.79,713.474 1855.76,549.894 1857.72,560.704 1859.68,462.786 1861.65,509.778 1863.61,1214.34 1865.58,1087.24 1867.54,967.36 1869.51,801.635 1871.47,635.405 1873.44,492.821 1875.4,448.04 1877.37,439.41 1879.33,539.413 1881.3,490.11 1883.26,935.951 1885.23,872.773 1887.19,787.677 1889.15,769.151 1891.12,740.847 1893.08,688.537 1895.05,590.52 1897.01,594.832 1898.98,523.756 1900.94,517.964 1902.91,1214.34 1904.87,1153.88 1906.84,1100.32 1908.8,922.991 1910.77,804.219 1912.73,840.33 1914.7,630.333 1916.66,727.932 1918.62,728.327 1920.59,673.792 1922.55,1386.4 1924.52,1201.06 1926.48,1001.73 1928.45,857.525 1930.41,741.846 1932.38,648.758 1934.34,565.286 1936.31,476.039 1938.27,506.559 1940.24,570.616 1942.2,1214.34 1944.17,1112.96 1946.13,1037.88 1948.09,832.122 1950.06,742.613 1952.02,648.794 1953.99,598.562 1955.95,520.886 1957.92,627.039 1959.88,571.691 1961.85,935.951 1963.81,799.497 1965.78,803.809 1967.74,698.078 1969.71,702.948 1971.67,616.094 1973.64,613.614 1975.6,626.894 1977.56,572.661 1979.53,606.884 1981.49,1214.34 1983.46,1113.26 1985.42,947.657 1987.39,813.573 1989.35,758.404 1991.32,646.899 1993.28,572.627 1995.25,512.479 1997.21,416.558 1999.18,428.802 2001.14,1386.4 2003.1,1377.92 2005.07,1317.31 2007.03,1142.5 2009,1042.05 2010.96,912.241 2012.93,833.636 2014.89,931.535 2016.86,844.573 2018.82,819.697 2020.79,1214.34 2022.75,1097.22 2024.72,899.833 2026.68,749.317 2028.65,577.432 2030.61,426.635 2032.57,431.798 2034.54,389.322 2036.5,415.992 2038.47,319.902 2040.43,935.951 2042.4,925.149 2044.36,870.598 2046.33,771.599 2048.29,729.509 2050.26,765.333 2052.22,723.278 2054.19,727.121 2056.15,717.687 2058.12,742.227 2060.08,1214.34 2062.04,1010.9 2064.01,829.247 2065.97,768.055 2067.94,568.212 2069.9,415.154 2071.87,289.263 2073.83,406.551 2075.8,420.801 2077.76,361.16 2079.73,1386.4 2081.69,1260.64 2083.66,1181.49 2085.62,1060.15 2087.59,935.584 2089.55,943.539 2091.51,801.997 2093.48,729.453 2095.44,713.264 2097.41,717.698 2099.37,1214.34 2101.34,1038.91 2103.3,833.904 2105.27,750.406 2107.23,606.279 2109.2,536.218 2111.16,517.658 2113.13,479.782 2115.09,485.523 2117.06,496.015 2119.02,935.951 2120.98,883.324 2122.95,710.774 2124.91,555.043 2126.88,554.796 2128.84,495.369 2130.81,435.93 2132.77,428.386 2134.74,470.659 2136.7,544.114 2138.67,1214.34 2140.63,1222.22 2142.6,1142.46 2144.56,1009.49 2146.53,958.088 2148.49,963.096 2150.45,1050.41 2152.42,1038.97 2154.38,1164.23 2156.35,1166.88 2158.31,1386.4 2160.28,1230.12 2162.24,1068.3 2164.21,887.102 2166.17,807.813 2168.14,762.286 2170.1,636.928 2172.07,561.915 2174.03,413.338 2176,439.814 2177.96,1214.34 2179.92,1031.12 2181.89,815.577 2183.85,720.713 2185.82,624.118 2187.78,662.305 2189.75,567.78 2191.71,481.759 2193.68,519.477 2195.64,468.136 2197.61,935.951 2199.57,784.012 2201.54,860.237 2203.5,717.396 2205.47,582.083 2207.43,469.419 2209.39,413.245 2211.36,536.755 2213.32,578.402 2215.29,619.092 2217.25,1214.34 2219.22,1201.68 2221.18,1071.03 2223.15,882.028 2225.11,758.961 2227.08,639.532 2229.04,531.406 2231.01,559.056 2232.97,511.292 2234.94,643.723 2236.9,1386.4 2238.86,1194.38 2240.83,1022.18 2242.79,1011.48 2244.76,923.156 2246.72,789.175 2248.69,698.548 2250.65,664.84 2252.62,571.839 2254.58,547.53 2256.55,1214.34 2258.51,1001.57 2260.48,822.028 2262.44,701.426 2264.41,549.613 2266.37,380.636 2268.33,423.171 2270.3,472.087 2272.26,474.788 2274.23,572.688 2276.19,935.951 2278.16,870.064 2280.12,773.231 2282.09,710.79 2284.05,738.901 2286.02,705.648 2287.98,773.376 2289.95,662.937 2291.91,633.295 2293.87,604.122 "/>
</svg>
