<?xml version="1.0" encoding="utf-8"?>
<svg xmlns="http://www.w3.org/2000/svg" xmlns:xlink="http://www.w3.org/1999/xlink" width="600" height="400" viewBox="0 0 2400 1600">
<defs>
  <clipPath id="clip290">
    <rect x="0" y="0" width="2400" height="1600"/>
  </clipPath>
</defs>
<path clip-path="url(#clip290)" d="M0 1600 L2400 1600 L2400 0 L0 0  Z" fill="#ffffff" fill-rule="evenodd" fill-opacity="1"/>
<defs>
  <clipPath id="clip291">
    <rect x="480" y="0" width="1681" height="1600"/>
  </clipPath>
</defs>
<path clip-path="url(#clip290)" d="M285.931 1423.18 L2352.76 1423.18 L2352.76 123.472 L285.931 123.472  Z" fill="#ffffff" fill-rule="evenodd" fill-opacity="1"/>
<defs>
  <clipPath id="clip292">
    <rect x="285" y="123" width="2068" height="1301"/>
  </clipPath>
</defs>
<polyline clip-path="url(#clip292)" style="stroke:#000000; stroke-linecap:round; stroke-linejoin:round; stroke-width:2; stroke-opacity:0.1; fill:none" points="324.731,1423.18 324.731,123.472 "/>
<polyline clip-path="url(#clip292)" style="stroke:#000000; stroke-linecap:round; stroke-linejoin:round; stroke-width:2; stroke-opacity:0.1; fill:none" points="817.113,1423.18 817.113,123.472 "/>
<polyline clip-path="url(#clip292)" style="stroke:#000000; stroke-linecap:round; stroke-linejoin:round; stroke-width:2; stroke-opacity:0.1; fill:none" points="1309.5,1423.18 1309.5,123.472 "/>
<polyline clip-path="url(#clip292)" style="stroke:#000000; stroke-linecap:round; stroke-linejoin:round; stroke-width:2; stroke-opacity:0.1; fill:none" points="1801.88,1423.18 1801.88,123.472 "/>
<polyline clip-path="url(#clip292)" style="stroke:#000000; stroke-linecap:round; stroke-linejoin:round; stroke-width:2; stroke-opacity:0.1; fill:none" points="2294.26,1423.18 2294.26,123.472 "/>
<polyline clip-path="url(#clip292)" style="stroke:#000000; stroke-linecap:round; stroke-linejoin:round; stroke-width:2; stroke-opacity:0.1; fill:none" points="324.731,1423.18 324.731,123.472 "/>
<polyline clip-path="url(#clip292)" style="stroke:#000000; stroke-linecap:round; stroke-linejoin:round; stroke-width:2; stroke-opacity:0.1; fill:none" points="817.113,1423.18 817.113,123.472 "/>
<polyline clip-path="url(#clip292)" style="stroke:#000000; stroke-linecap:round; stroke-linejoin:round; stroke-width:2; stroke-opacity:0.1; fill:none" points="1309.5,1423.18 1309.5,123.472 "/>
<polyline clip-path="url(#clip292)" style="stroke:#000000; stroke-linecap:round; stroke-linejoin:round; stroke-width:2; stroke-opacity:0.1; fill:none" points="1801.88,1423.18 1801.88,123.472 "/>
<polyline clip-path="url(#clip292)" style="stroke:#000000; stroke-linecap:round; stroke-linejoin:round; stroke-width:2; stroke-opacity:0.1; fill:none" points="2294.26,1423.18 2294.26,123.472 "/>
<polyline clip-path="url(#clip292)" style="stroke:#000000; stroke-linecap:round; stroke-linejoin:round; stroke-width:2; stroke-opacity:0.1; fill:none" points="285.931,1236.66 2352.76,1236.66 "/>
<polyline clip-path="url(#clip292)" style="stroke:#000000; stroke-linecap:round; stroke-linejoin:round; stroke-width:2; stroke-opacity:0.1; fill:none" points="285.931,995.393 2352.76,995.393 "/>
<polyline clip-path="url(#clip292)" style="stroke:#000000; stroke-linecap:round; stroke-linejoin:round; stroke-width:2; stroke-opacity:0.1; fill:none" points="285.931,754.127 2352.76,754.127 "/>
<polyline clip-path="url(#clip292)" style="stroke:#000000; stroke-linecap:round; stroke-linejoin:round; stroke-width:2; stroke-opacity:0.1; fill:none" points="285.931,512.861 2352.76,512.861 "/>
<polyline clip-path="url(#clip292)" style="stroke:#000000; stroke-linecap:round; stroke-linejoin:round; stroke-width:2; stroke-opacity:0.1; fill:none" points="285.931,271.595 2352.76,271.595 "/>
<polyline clip-path="url(#clip292)" style="stroke:#000000; stroke-linecap:round; stroke-linejoin:round; stroke-width:2; stroke-opacity:0.1; fill:none" points="285.931,1236.66 2352.76,1236.66 "/>
<polyline clip-path="url(#clip292)" style="stroke:#000000; stroke-linecap:round; stroke-linejoin:round; stroke-width:2; stroke-opacity:0.1; fill:none" points="285.931,995.393 2352.76,995.393 "/>
<polyline clip-path="url(#clip292)" style="stroke:#000000; stroke-linecap:round; stroke-linejoin:round; stroke-width:2; stroke-opacity:0.1; fill:none" points="285.931,754.127 2352.76,754.127 "/>
<polyline clip-path="url(#clip292)" style="stroke:#000000; stroke-linecap:round; stroke-linejoin:round; stroke-width:2; stroke-opacity:0.1; fill:none" points="285.931,512.861 2352.76,512.861 "/>
<polyline clip-path="url(#clip292)" style="stroke:#000000; stroke-linecap:round; stroke-linejoin:round; stroke-width:2; stroke-opacity:0.1; fill:none" points="285.931,271.595 2352.76,271.595 "/>
<polyline clip-path="url(#clip290)" style="stroke:#000000; stroke-linecap:round; stroke-linejoin:round; stroke-width:4; stroke-opacity:1; fill:none" points="285.931,1423.18 2352.76,1423.18 "/>
<polyline clip-path="url(#clip290)" style="stroke:#000000; stroke-linecap:round; stroke-linejoin:round; stroke-width:4; stroke-opacity:1; fill:none" points="285.931,123.472 2352.76,123.472 "/>
<polyline clip-path="url(#clip290)" style="stroke:#000000; stroke-linecap:round; stroke-linejoin:round; stroke-width:4; stroke-opacity:1; fill:none" points="324.731,1423.18 324.731,1404.28 "/>
<polyline clip-path="url(#clip290)" style="stroke:#000000; stroke-linecap:round; stroke-linejoin:round; stroke-width:4; stroke-opacity:1; fill:none" points="817.113,1423.18 817.113,1404.28 "/>
<polyline clip-path="url(#clip290)" style="stroke:#000000; stroke-linecap:round; stroke-linejoin:round; stroke-width:4; stroke-opacity:1; fill:none" points="1309.5,1423.18 1309.5,1404.28 "/>
<polyline clip-path="url(#clip290)" style="stroke:#000000; stroke-linecap:round; stroke-linejoin:round; stroke-width:4; stroke-opacity:1; fill:none" points="1801.88,1423.18 1801.88,1404.28 "/>
<polyline clip-path="url(#clip290)" style="stroke:#000000; stroke-linecap:round; stroke-linejoin:round; stroke-width:4; stroke-opacity:1; fill:none" points="2294.26,1423.18 2294.26,1404.28 "/>
<polyline clip-path="url(#clip290)" style="stroke:#000000; stroke-linecap:round; stroke-linejoin:round; stroke-width:4; stroke-opacity:1; fill:none" points="324.731,123.472 324.731,142.37 "/>
<polyline clip-path="url(#clip290)" style="stroke:#000000; stroke-linecap:round; stroke-linejoin:round; stroke-width:4; stroke-opacity:1; fill:none" points="817.113,123.472 817.113,142.37 "/>
<polyline clip-path="url(#clip290)" style="stroke:#000000; stroke-linecap:round; stroke-linejoin:round; stroke-width:4; stroke-opacity:1; fill:none" points="1309.5,123.472 1309.5,142.37 "/>
<polyline clip-path="url(#clip290)" style="stroke:#000000; stroke-linecap:round; stroke-linejoin:round; stroke-width:4; stroke-opacity:1; fill:none" points="1801.88,123.472 1801.88,142.37 "/>
<polyline clip-path="url(#clip290)" style="stroke:#000000; stroke-linecap:round; stroke-linejoin:round; stroke-width:4; stroke-opacity:1; fill:none" points="2294.26,123.472 2294.26,142.37 "/>
<path clip-path="url(#clip290)" d="M314.084 1469.4 Q314.084 1461.96 315.961 1457.91 Q318.58 1451.88 324.755 1451.88 Q326.065 1451.88 327.423 1452.26 Q328.807 1452.6 330.536 1453.96 Q332.29 1455.32 333.352 1457.54 Q335.378 1461.84 335.378 1469.4 Q335.378 1476.79 333.5 1480.81 Q330.758 1486.69 324.706 1486.69 Q322.433 1486.69 320.111 1485.53 Q317.814 1484.37 316.356 1481.58 Q314.084 1477.4 314.084 1469.4 M318.283 1468.78 Q318.283 1476.41 318.827 1479.45 Q319.444 1482.74 321.124 1484.17 Q322.829 1485.58 324.706 1485.58 Q326.732 1485.58 328.412 1484.07 Q330.116 1482.54 330.635 1479.26 Q331.203 1476.02 331.178 1468.78 Q331.178 1461.74 330.684 1458.92 Q330.017 1455.64 328.239 1454.33 Q326.485 1453 324.706 1453 Q324.039 1453 323.323 1453.19 Q322.631 1453.39 321.618 1453.96 Q320.605 1454.53 319.815 1455.94 Q319.049 1457.34 318.678 1459.47 Q318.283 1462.21 318.283 1468.78 Z" fill="#000000" fill-rule="nonzero" fill-opacity="1" /><path clip-path="url(#clip290)" d="M794.361 1485.58 Q794.361 1484.67 794.436 1484.39 Q794.534 1484.12 794.93 1483.7 L804.638 1472.88 Q809.949 1466.9 809.949 1461.69 Q809.949 1458.31 808.171 1455.89 Q806.417 1453.47 803.181 1453.47 Q800.957 1453.47 799.08 1454.82 Q797.202 1456.18 796.338 1458.6 Q796.486 1458.55 797.005 1458.55 Q798.265 1458.55 798.956 1459.34 Q799.673 1460.14 799.673 1461.2 Q799.673 1462.56 798.783 1463.22 Q797.919 1463.87 797.054 1463.87 Q796.708 1463.87 796.239 1463.79 Q795.794 1463.72 795.078 1463.03 Q794.361 1462.31 794.361 1461.05 Q794.361 1457.52 797.029 1454.7 Q799.722 1451.88 803.823 1451.88 Q808.467 1451.88 811.506 1454.65 Q814.569 1457.39 814.569 1461.69 Q814.569 1463.2 814.099 1464.58 Q813.655 1465.94 813.037 1467 Q812.444 1468.07 810.814 1469.77 Q809.184 1471.47 807.874 1472.68 Q806.565 1473.9 803.625 1476.46 L798.265 1481.68 L807.38 1481.68 Q811.827 1481.68 812.173 1481.28 Q812.667 1480.57 813.284 1476.79 L814.569 1476.79 L813.136 1485.58 L794.361 1485.58 Z" fill="#000000" fill-rule="nonzero" fill-opacity="1" /><path clip-path="url(#clip290)" d="M819.658 1477.43 Q819.658 1475.92 820.473 1475.35 Q821.288 1474.76 822.153 1474.76 Q823.314 1474.76 823.981 1475.5 Q824.673 1476.22 824.673 1477.23 Q824.673 1478.24 823.981 1478.98 Q823.314 1479.7 822.153 1479.7 Q821.585 1479.7 821.288 1479.6 Q821.955 1481.92 823.981 1483.6 Q826.031 1485.28 828.724 1485.28 Q832.108 1485.28 834.134 1482 Q835.344 1479.87 835.344 1475.06 Q835.344 1470.81 834.43 1468.68 Q833.022 1465.45 830.132 1465.45 Q826.031 1465.45 823.61 1468.98 Q823.314 1469.42 822.968 1469.45 Q822.474 1469.45 822.35 1469.18 Q822.252 1468.88 822.252 1468.11 L822.252 1453.14 Q822.252 1451.93 822.746 1451.93 Q822.943 1451.93 823.363 1452.08 Q826.55 1453.49 830.083 1453.51 Q833.714 1453.51 836.975 1452.03 Q837.222 1451.88 837.37 1451.88 Q837.864 1451.88 837.889 1452.45 Q837.889 1452.65 837.469 1453.24 Q837.074 1453.81 836.209 1454.58 Q835.344 1455.32 834.233 1456.03 Q833.121 1456.75 831.491 1457.25 Q829.885 1457.71 828.106 1457.71 Q825.982 1457.71 823.808 1457.05 L823.808 1466.9 Q826.426 1464.33 830.231 1464.33 Q834.282 1464.33 837.074 1467.6 Q839.865 1470.86 839.865 1475.4 Q839.865 1480.17 836.555 1483.43 Q833.269 1486.69 828.823 1486.69 Q824.771 1486.69 822.202 1483.8 Q819.658 1480.91 819.658 1477.43 Z" fill="#000000" fill-rule="nonzero" fill-opacity="1" /><path clip-path="url(#clip290)" d="M1286.47 1477.43 Q1286.47 1475.92 1287.29 1475.35 Q1288.1 1474.76 1288.97 1474.76 Q1290.13 1474.76 1290.8 1475.5 Q1291.49 1476.22 1291.49 1477.23 Q1291.49 1478.24 1290.8 1478.98 Q1290.13 1479.7 1288.97 1479.7 Q1288.4 1479.7 1288.1 1479.6 Q1288.77 1481.92 1290.8 1483.6 Q1292.85 1485.28 1295.54 1485.28 Q1298.92 1485.28 1300.95 1482 Q1302.16 1479.87 1302.16 1475.06 Q1302.16 1470.81 1301.24 1468.68 Q1299.84 1465.45 1296.95 1465.45 Q1292.85 1465.45 1290.42 1468.98 Q1290.13 1469.42 1289.78 1469.45 Q1289.29 1469.45 1289.16 1469.18 Q1289.07 1468.88 1289.07 1468.11 L1289.07 1453.14 Q1289.07 1451.93 1289.56 1451.93 Q1289.76 1451.93 1290.18 1452.08 Q1293.36 1453.49 1296.9 1453.51 Q1300.53 1453.51 1303.79 1452.03 Q1304.04 1451.88 1304.18 1451.88 Q1304.68 1451.88 1304.7 1452.45 Q1304.7 1452.65 1304.28 1453.24 Q1303.89 1453.81 1303.02 1454.58 Q1302.16 1455.32 1301.05 1456.03 Q1299.94 1456.75 1298.31 1457.25 Q1296.7 1457.71 1294.92 1457.71 Q1292.8 1457.71 1290.62 1457.05 L1290.62 1466.9 Q1293.24 1464.33 1297.05 1464.33 Q1301.1 1464.33 1303.89 1467.6 Q1306.68 1470.86 1306.68 1475.4 Q1306.68 1480.17 1303.37 1483.43 Q1300.08 1486.69 1295.64 1486.69 Q1291.59 1486.69 1289.02 1483.8 Q1286.47 1480.91 1286.47 1477.43 Z" fill="#000000" fill-rule="nonzero" fill-opacity="1" /><path clip-path="url(#clip290)" d="M1311.23 1469.4 Q1311.23 1461.96 1313.1 1457.91 Q1315.72 1451.88 1321.9 1451.88 Q1323.21 1451.88 1324.56 1452.26 Q1325.95 1452.6 1327.68 1453.96 Q1329.43 1455.32 1330.49 1457.54 Q1332.52 1461.84 1332.52 1469.4 Q1332.52 1476.79 1330.64 1480.81 Q1327.9 1486.69 1321.85 1486.69 Q1319.57 1486.69 1317.25 1485.53 Q1314.96 1484.37 1313.5 1481.58 Q1311.23 1477.4 1311.23 1469.4 M1315.42 1468.78 Q1315.42 1476.41 1315.97 1479.45 Q1316.59 1482.74 1318.27 1484.17 Q1319.97 1485.58 1321.85 1485.58 Q1323.87 1485.58 1325.55 1484.07 Q1327.26 1482.54 1327.78 1479.26 Q1328.34 1476.02 1328.32 1468.78 Q1328.32 1461.74 1327.83 1458.92 Q1327.16 1455.64 1325.38 1454.33 Q1323.63 1453 1321.85 1453 Q1321.18 1453 1320.46 1453.19 Q1319.77 1453.39 1318.76 1453.96 Q1317.75 1454.53 1316.96 1455.94 Q1316.19 1457.34 1315.82 1459.47 Q1315.42 1462.21 1315.42 1468.78 Z" fill="#000000" fill-rule="nonzero" fill-opacity="1" /><path clip-path="url(#clip290)" d="M1779.29 1461.79 L1780.94 1451.39 L1782.2 1451.39 Q1782.35 1452.01 1782.6 1452.28 Q1782.87 1452.55 1784.3 1452.77 Q1785.76 1453 1788.7 1453 L1800.98 1453 Q1800.98 1454.16 1800.53 1454.77 L1793.69 1464.38 Q1791.52 1467.42 1790.55 1473.03 Q1789.98 1476.79 1790.01 1481.33 L1790.01 1483.9 Q1790.01 1486.69 1787.66 1486.69 Q1785.34 1486.69 1785.34 1483.9 Q1785.34 1474.24 1791.56 1464.88 Q1792.23 1463.91 1794.68 1460.48 Q1797.15 1457.05 1797.25 1456.9 L1786.77 1456.9 Q1782.18 1456.9 1781.81 1457.2 Q1781.31 1457.64 1780.55 1461.79 L1779.29 1461.79 Z" fill="#000000" fill-rule="nonzero" fill-opacity="1" /><path clip-path="url(#clip290)" d="M1804.26 1477.43 Q1804.26 1475.92 1805.08 1475.35 Q1805.89 1474.76 1806.76 1474.76 Q1807.92 1474.76 1808.59 1475.5 Q1809.28 1476.22 1809.28 1477.23 Q1809.28 1478.24 1808.59 1478.98 Q1807.92 1479.7 1806.76 1479.7 Q1806.19 1479.7 1805.89 1479.6 Q1806.56 1481.92 1808.59 1483.6 Q1810.64 1485.28 1813.33 1485.28 Q1816.71 1485.28 1818.74 1482 Q1819.95 1479.87 1819.95 1475.06 Q1819.95 1470.81 1819.03 1468.68 Q1817.63 1465.45 1814.74 1465.45 Q1810.64 1465.45 1808.21 1468.98 Q1807.92 1469.42 1807.57 1469.45 Q1807.08 1469.45 1806.95 1469.18 Q1806.86 1468.88 1806.86 1468.11 L1806.86 1453.14 Q1806.86 1451.93 1807.35 1451.93 Q1807.55 1451.93 1807.97 1452.08 Q1811.15 1453.49 1814.69 1453.51 Q1818.32 1453.51 1821.58 1452.03 Q1821.83 1451.88 1821.97 1451.88 Q1822.47 1451.88 1822.49 1452.45 Q1822.49 1452.65 1822.07 1453.24 Q1821.68 1453.81 1820.81 1454.58 Q1819.95 1455.32 1818.84 1456.03 Q1817.73 1456.75 1816.1 1457.25 Q1814.49 1457.71 1812.71 1457.71 Q1810.59 1457.71 1808.41 1457.05 L1808.41 1466.9 Q1811.03 1464.33 1814.84 1464.33 Q1818.89 1464.33 1821.68 1467.6 Q1824.47 1470.86 1824.47 1475.4 Q1824.47 1480.17 1821.16 1483.43 Q1817.87 1486.69 1813.43 1486.69 Q1809.38 1486.69 1806.81 1483.8 Q1804.26 1480.91 1804.26 1477.43 Z" fill="#000000" fill-rule="nonzero" fill-opacity="1" /><path clip-path="url(#clip290)" d="M2259.58 1456.7 L2259.58 1455.12 Q2265.65 1455.12 2268.79 1451.88 Q2269.66 1451.88 2269.8 1452.08 Q2269.95 1452.28 2269.95 1453.19 L2269.95 1481.58 Q2269.95 1483.08 2270.69 1483.55 Q2271.43 1484.02 2274.67 1484.02 L2276.28 1484.02 L2276.28 1485.58 Q2274.5 1485.43 2268.08 1485.43 Q2261.65 1485.43 2259.9 1485.58 L2259.9 1484.02 L2261.5 1484.02 Q2264.69 1484.02 2265.46 1483.58 Q2266.22 1483.11 2266.22 1481.58 L2266.22 1455.37 Q2263.58 1456.7 2259.58 1456.7 Z" fill="#000000" fill-rule="nonzero" fill-opacity="1" /><path clip-path="url(#clip290)" d="M2282.35 1469.4 Q2282.35 1461.96 2284.23 1457.91 Q2286.85 1451.88 2293.03 1451.88 Q2294.33 1451.88 2295.69 1452.26 Q2297.08 1452.6 2298.81 1453.96 Q2300.56 1455.32 2301.62 1457.54 Q2303.65 1461.84 2303.65 1469.4 Q2303.65 1476.79 2301.77 1480.81 Q2299.03 1486.69 2292.98 1486.69 Q2290.7 1486.69 2288.38 1485.53 Q2286.08 1484.37 2284.63 1481.58 Q2282.35 1477.4 2282.35 1469.4 M2286.55 1468.78 Q2286.55 1476.41 2287.1 1479.45 Q2287.71 1482.74 2289.39 1484.17 Q2291.1 1485.58 2292.98 1485.58 Q2295 1485.58 2296.68 1484.07 Q2298.39 1482.54 2298.91 1479.26 Q2299.47 1476.02 2299.45 1468.78 Q2299.45 1461.74 2298.95 1458.92 Q2298.29 1455.64 2296.51 1454.33 Q2294.75 1453 2292.98 1453 Q2292.31 1453 2291.59 1453.19 Q2290.9 1453.39 2289.89 1453.96 Q2288.88 1454.53 2288.09 1455.94 Q2287.32 1457.34 2286.95 1459.47 Q2286.55 1462.21 2286.55 1468.78 Z" fill="#000000" fill-rule="nonzero" fill-opacity="1" /><path clip-path="url(#clip290)" d="M2307.65 1469.4 Q2307.65 1461.96 2309.53 1457.91 Q2312.15 1451.88 2318.32 1451.88 Q2319.63 1451.88 2320.99 1452.26 Q2322.37 1452.6 2324.1 1453.96 Q2325.86 1455.32 2326.92 1457.54 Q2328.94 1461.84 2328.94 1469.4 Q2328.94 1476.79 2327.07 1480.81 Q2324.32 1486.69 2318.27 1486.69 Q2316 1486.69 2313.68 1485.53 Q2311.38 1484.37 2309.92 1481.58 Q2307.65 1477.4 2307.65 1469.4 M2311.85 1468.78 Q2311.85 1476.41 2312.39 1479.45 Q2313.01 1482.74 2314.69 1484.17 Q2316.4 1485.58 2318.27 1485.58 Q2320.3 1485.58 2321.98 1484.07 Q2323.68 1482.54 2324.2 1479.26 Q2324.77 1476.02 2324.74 1468.78 Q2324.74 1461.74 2324.25 1458.92 Q2323.58 1455.64 2321.81 1454.33 Q2320.05 1453 2318.27 1453 Q2317.61 1453 2316.89 1453.19 Q2316.2 1453.39 2315.18 1453.96 Q2314.17 1454.53 2313.38 1455.94 Q2312.62 1457.34 2312.24 1459.47 Q2311.85 1462.21 2311.85 1468.78 Z" fill="#000000" fill-rule="nonzero" fill-opacity="1" /><path clip-path="url(#clip290)" d="M1154.98 1568.04 L1154.98 1565.9 L1156.81 1565.9 Q1160.72 1565.9 1161.6 1565.29 Q1162.52 1564.65 1162.52 1562.61 L1162.52 1525.96 Q1162.52 1523.95 1161.6 1523.34 Q1160.68 1522.7 1156.81 1522.7 L1154.98 1522.7 L1154.98 1520.52 Q1157.42 1520.73 1165.64 1520.73 Q1173.79 1520.73 1176.21 1520.52 L1176.21 1522.7 L1174.41 1522.7 Q1170.5 1522.7 1169.58 1523.34 Q1168.7 1523.95 1168.7 1525.96 L1168.7 1562.61 Q1168.7 1564.61 1169.58 1565.26 Q1170.5 1565.9 1174.41 1565.9 L1176.21 1565.9 L1176.21 1568.04 Q1173.76 1567.84 1165.57 1567.84 Q1157.42 1567.84 1154.98 1568.04 Z" fill="#000000" fill-rule="nonzero" fill-opacity="1" /><path clip-path="url(#clip290)" d="M1180.38 1568.04 L1180.38 1565.9 Q1184.09 1565.9 1184.94 1565.46 Q1185.78 1564.99 1185.78 1562.74 L1185.78 1544.1 Q1185.78 1541.52 1184.87 1540.87 Q1183.98 1540.22 1180.38 1540.22 L1180.38 1538.05 L1190.17 1537.3 L1190.17 1544.61 Q1193.43 1537.3 1200.46 1537.3 Q1205.69 1537.3 1207.76 1539.89 Q1209.29 1541.62 1209.6 1543.55 Q1209.94 1545.49 1209.94 1550.52 L1209.94 1563.8 Q1210 1565.26 1211.12 1565.6 Q1212.25 1565.9 1215.37 1565.9 L1215.37 1568.04 Q1208.27 1567.84 1207.56 1567.84 Q1207.01 1567.84 1199.71 1568.04 L1199.71 1565.9 Q1203.41 1565.9 1204.26 1565.46 Q1205.15 1564.99 1205.15 1562.74 L1205.15 1546.54 Q1205.15 1543.01 1204.06 1540.94 Q1202.97 1538.83 1199.98 1538.83 Q1196.38 1538.83 1193.5 1541.86 Q1190.61 1544.88 1190.61 1549.97 L1190.61 1562.74 Q1190.61 1564.99 1191.46 1565.46 Q1192.34 1565.9 1196.01 1565.9 L1196.01 1568.04 Q1188.91 1567.84 1188.23 1567.84 Q1187.69 1567.84 1180.38 1568.04 Z" fill="#000000" fill-rule="nonzero" fill-opacity="1" /><path clip-path="url(#clip290)" d="M1216.12 1540.22 L1216.12 1538.7 Q1219.31 1538.56 1221.42 1536.32 Q1223.56 1534.04 1224.27 1531.26 Q1225.02 1528.47 1225.08 1525.25 L1226.82 1525.25 L1226.82 1538.05 L1236.77 1538.05 L1236.77 1540.22 L1226.82 1540.22 L1226.82 1559.55 Q1226.82 1567.06 1231.5 1567.06 Q1233.51 1567.06 1234.83 1565.02 Q1236.16 1562.95 1236.16 1559.28 L1236.16 1555.44 L1237.89 1555.44 L1237.89 1559.42 Q1237.89 1563.19 1236.16 1566.01 Q1234.43 1568.83 1230.99 1568.83 Q1229.74 1568.83 1228.48 1568.49 Q1227.26 1568.18 1225.63 1567.36 Q1224.03 1566.52 1223.01 1564.48 Q1222.03 1562.41 1222.03 1559.42 L1222.03 1540.22 L1216.12 1540.22 Z" fill="#000000" fill-rule="nonzero" fill-opacity="1" /><path clip-path="url(#clip290)" d="M1243.7 1552.72 Q1243.7 1546.17 1247.91 1541.52 Q1252.12 1536.86 1258.17 1536.86 Q1264.28 1536.86 1267.44 1540.84 Q1270.63 1544.81 1270.63 1550.52 Q1270.63 1551.57 1270.36 1551.77 Q1270.09 1551.98 1268.9 1551.98 L1249.47 1551.98 Q1249.47 1559.08 1251.58 1562.41 Q1254.5 1567.06 1259.43 1567.06 Q1260.1 1567.06 1260.92 1566.92 Q1261.74 1566.79 1263.4 1566.21 Q1265.06 1565.6 1266.52 1564 Q1267.99 1562.41 1268.83 1559.89 Q1269.04 1558.91 1269.72 1558.94 Q1270.63 1558.94 1270.63 1559.76 Q1270.63 1560.37 1269.96 1561.76 Q1269.31 1563.12 1268.05 1564.75 Q1266.8 1566.38 1264.35 1567.6 Q1261.94 1568.83 1259.02 1568.83 Q1252.9 1568.83 1248.28 1564.21 Q1243.7 1559.55 1243.7 1552.72 M1249.54 1550.52 L1266.05 1550.52 Q1266.05 1549.06 1265.78 1547.43 Q1265.54 1545.8 1264.79 1543.55 Q1264.08 1541.28 1262.38 1539.85 Q1260.68 1538.42 1258.17 1538.42 Q1257.05 1538.42 1255.82 1538.9 Q1254.64 1539.38 1253.18 1540.53 Q1251.71 1541.69 1250.7 1544.3 Q1249.68 1546.92 1249.54 1550.52 Z" fill="#000000" fill-rule="nonzero" fill-opacity="1" /><path clip-path="url(#clip290)" d="M1274.57 1568.04 L1274.57 1565.9 Q1278.28 1565.9 1279.13 1565.46 Q1280.01 1564.99 1280.01 1562.74 L1280.01 1544.1 Q1280.01 1541.52 1279.09 1540.87 Q1278.21 1540.22 1274.57 1540.22 L1274.57 1538.05 L1284.26 1537.3 L1284.26 1544.95 Q1285.24 1541.96 1287.31 1539.65 Q1289.42 1537.3 1292.82 1537.3 Q1295.06 1537.3 1296.48 1538.56 Q1297.94 1539.82 1297.94 1541.55 Q1297.94 1543.08 1296.99 1543.86 Q1296.08 1544.61 1294.96 1544.61 Q1293.7 1544.61 1292.82 1543.83 Q1291.97 1543.01 1291.97 1541.62 Q1291.97 1540.77 1292.34 1540.12 Q1292.75 1539.44 1293.05 1539.21 Q1293.36 1538.97 1293.56 1538.9 Q1293.43 1538.83 1292.82 1538.83 Q1288.98 1538.83 1286.77 1542.67 Q1284.6 1546.47 1284.6 1551.91 L1284.6 1562.61 Q1284.6 1564.61 1285.41 1565.26 Q1286.26 1565.9 1289.89 1565.9 L1291.35 1565.9 L1291.35 1568.04 Q1288.57 1567.84 1282.52 1567.84 Q1281.67 1567.84 1280.35 1567.87 Q1279.02 1567.91 1277.29 1567.98 Q1275.56 1568.04 1274.57 1568.04 Z" fill="#000000" fill-rule="nonzero" fill-opacity="1" /><path clip-path="url(#clip290)" d="M1302.73 1561.42 Q1302.73 1555.51 1309.7 1552.39 Q1313.87 1550.38 1322.5 1549.87 L1322.5 1547.32 Q1322.5 1543.01 1320.23 1540.73 Q1317.98 1538.42 1315.13 1538.42 Q1310.04 1538.42 1307.59 1541.62 Q1309.66 1541.69 1310.41 1542.74 Q1311.16 1543.76 1311.16 1544.81 Q1311.16 1546.2 1310.27 1547.12 Q1309.43 1548 1307.96 1548 Q1306.57 1548 1305.65 1547.15 Q1304.74 1546.27 1304.74 1544.74 Q1304.74 1541.35 1307.79 1539.1 Q1310.89 1536.86 1315.27 1536.86 Q1320.97 1536.86 1324.78 1540.7 Q1325.97 1541.89 1326.54 1543.42 Q1327.16 1544.95 1327.22 1545.97 Q1327.29 1546.95 1327.29 1548.92 L1327.29 1562.81 Q1327.29 1563.22 1327.43 1563.9 Q1327.56 1564.58 1328.17 1565.46 Q1328.82 1566.31 1329.87 1566.31 Q1332.39 1566.31 1332.35 1561.86 L1332.35 1557.96 L1334.12 1557.96 L1334.12 1561.86 Q1334.12 1565.56 1332.15 1567.02 Q1330.21 1568.45 1328.41 1568.45 Q1326.1 1568.45 1324.64 1566.75 Q1323.18 1565.05 1322.98 1562.74 Q1321.92 1565.39 1319.51 1567.13 Q1317.14 1568.83 1313.87 1568.83 Q1311.36 1568.83 1308.98 1568.18 Q1306.64 1567.57 1304.67 1565.84 Q1302.73 1564.07 1302.73 1561.42 M1308.1 1561.35 Q1308.1 1563.93 1309.93 1565.6 Q1311.77 1567.26 1314.35 1567.26 Q1317.27 1567.26 1319.89 1565.02 Q1322.5 1562.74 1322.5 1558.3 L1322.5 1551.33 Q1314.79 1551.6 1311.43 1554.69 Q1308.1 1557.75 1308.1 1561.35 Z" fill="#000000" fill-rule="nonzero" fill-opacity="1" /><path clip-path="url(#clip290)" d="M1341.39 1564.24 Q1336.97 1559.62 1336.97 1553.03 Q1336.97 1546.41 1341.32 1541.65 Q1345.67 1536.86 1352.05 1536.86 Q1356.3 1536.86 1359.49 1538.9 Q1362.69 1540.9 1362.69 1544.33 Q1362.69 1545.86 1361.77 1546.75 Q1360.89 1547.6 1359.49 1547.6 Q1358.03 1547.6 1357.15 1546.71 Q1356.3 1545.8 1356.3 1544.4 Q1356.3 1543.79 1356.5 1543.18 Q1356.71 1542.57 1357.45 1541.92 Q1358.24 1541.28 1359.56 1541.18 Q1357.08 1538.63 1352.26 1538.63 Q1352.19 1538.63 1352.12 1538.63 Q1348.59 1538.63 1345.67 1541.96 Q1342.75 1545.29 1342.75 1552.89 Q1342.75 1556.87 1343.7 1559.79 Q1344.68 1562.68 1346.28 1564.17 Q1347.88 1565.67 1349.44 1566.38 Q1351 1567.06 1352.53 1567.06 Q1359.36 1567.06 1361.67 1559.76 Q1361.87 1559.08 1362.55 1559.08 Q1363.47 1559.08 1363.47 1559.76 Q1363.47 1560.1 1363.2 1560.98 Q1362.92 1561.86 1362.07 1563.25 Q1361.22 1564.65 1360 1565.87 Q1358.81 1567.06 1356.67 1567.94 Q1354.57 1568.83 1351.92 1568.83 Q1345.8 1568.83 1341.39 1564.24 Z" fill="#000000" fill-rule="nonzero" fill-opacity="1" /><path clip-path="url(#clip290)" d="M1366.8 1540.22 L1366.8 1538.7 Q1369.99 1538.56 1372.09 1536.32 Q1374.23 1534.04 1374.95 1531.26 Q1375.69 1528.47 1375.76 1525.25 L1377.5 1525.25 L1377.5 1538.05 L1387.45 1538.05 L1387.45 1540.22 L1377.5 1540.22 L1377.5 1559.55 Q1377.5 1567.06 1382.18 1567.06 Q1384.19 1567.06 1385.51 1565.02 Q1386.84 1562.95 1386.84 1559.28 L1386.84 1555.44 L1388.57 1555.44 L1388.57 1559.42 Q1388.57 1563.19 1386.84 1566.01 Q1385.1 1568.83 1381.67 1568.83 Q1380.42 1568.83 1379.16 1568.49 Q1377.94 1568.18 1376.31 1567.36 Q1374.71 1566.52 1373.69 1564.48 Q1372.71 1562.41 1372.71 1559.42 L1372.71 1540.22 L1366.8 1540.22 Z" fill="#000000" fill-rule="nonzero" fill-opacity="1" /><path clip-path="url(#clip290)" d="M1394.75 1568.04 L1394.75 1565.9 Q1398.45 1565.9 1399.3 1565.46 Q1400.15 1564.99 1400.15 1562.74 L1400.15 1544.03 Q1400.15 1541.45 1399.27 1540.84 Q1398.42 1540.22 1395.02 1540.22 L1395.02 1538.05 L1404.74 1537.3 L1404.74 1562.81 Q1404.74 1564.88 1405.48 1565.39 Q1406.23 1565.9 1409.63 1565.9 L1409.63 1568.04 Q1402.53 1567.84 1402.39 1567.84 Q1401.44 1567.84 1394.75 1568.04 M1397.67 1525.18 Q1397.67 1523.78 1398.72 1522.66 Q1399.81 1521.51 1401.34 1521.51 Q1402.87 1521.51 1403.96 1522.56 Q1405.04 1523.58 1405.04 1525.21 Q1405.04 1526.81 1403.96 1527.86 Q1402.87 1528.88 1401.34 1528.88 Q1399.74 1528.88 1398.69 1527.76 Q1397.67 1526.64 1397.67 1525.18 Z" fill="#000000" fill-rule="nonzero" fill-opacity="1" /><path clip-path="url(#clip290)" d="M1418.22 1564.31 Q1413.64 1559.76 1413.64 1553.17 Q1413.64 1546.54 1418.12 1541.72 Q1422.64 1536.86 1429.09 1536.86 Q1435.41 1536.86 1439.93 1541.69 Q1444.48 1546.47 1444.48 1553.17 Q1444.48 1559.72 1439.89 1564.27 Q1435.34 1568.83 1429.02 1568.83 Q1422.84 1568.83 1418.22 1564.31 M1419.41 1552.59 Q1419.41 1559.35 1421.18 1562.41 Q1423.89 1567.06 1429.09 1567.06 Q1431.67 1567.06 1433.81 1565.67 Q1435.99 1564.27 1437.18 1561.93 Q1438.7 1558.87 1438.7 1552.59 Q1438.7 1545.9 1436.87 1542.94 Q1434.15 1538.42 1429.02 1538.42 Q1426.78 1538.42 1424.57 1539.61 Q1422.4 1540.77 1421.07 1543.08 Q1419.41 1546.14 1419.41 1552.59 Z" fill="#000000" fill-rule="nonzero" fill-opacity="1" /><path clip-path="url(#clip290)" d="M1448.72 1568.04 L1448.72 1565.9 Q1452.43 1565.9 1453.28 1565.46 Q1454.12 1564.99 1454.12 1562.74 L1454.12 1544.1 Q1454.12 1541.52 1453.21 1540.87 Q1452.32 1540.22 1448.72 1540.22 L1448.72 1538.05 L1458.51 1537.3 L1458.51 1544.61 Q1461.77 1537.3 1468.8 1537.3 Q1474.03 1537.3 1476.1 1539.89 Q1477.63 1541.62 1477.94 1543.55 Q1478.28 1545.49 1478.28 1550.52 L1478.28 1563.8 Q1478.34 1565.26 1479.46 1565.6 Q1480.59 1565.9 1483.71 1565.9 L1483.71 1568.04 Q1476.61 1567.84 1475.9 1567.84 Q1475.35 1567.84 1468.05 1568.04 L1468.05 1565.9 Q1471.75 1565.9 1472.6 1565.46 Q1473.49 1564.99 1473.49 1562.74 L1473.49 1546.54 Q1473.49 1543.01 1472.4 1540.94 Q1471.31 1538.83 1468.32 1538.83 Q1464.72 1538.83 1461.84 1541.86 Q1458.95 1544.88 1458.95 1549.97 L1458.95 1562.74 Q1458.95 1564.99 1459.8 1565.46 Q1460.68 1565.9 1464.35 1565.9 L1464.35 1568.04 Q1457.25 1567.84 1456.57 1567.84 Q1456.03 1567.84 1448.72 1568.04 Z" fill="#000000" fill-rule="nonzero" fill-opacity="1" /><polyline clip-path="url(#clip290)" style="stroke:#000000; stroke-linecap:round; stroke-linejoin:round; stroke-width:4; stroke-opacity:1; fill:none" points="285.931,1423.18 285.931,123.472 "/>
<polyline clip-path="url(#clip290)" style="stroke:#000000; stroke-linecap:round; stroke-linejoin:round; stroke-width:4; stroke-opacity:1; fill:none" points="2352.76,1423.18 2352.76,123.472 "/>
<polyline clip-path="url(#clip290)" style="stroke:#000000; stroke-linecap:round; stroke-linejoin:round; stroke-width:4; stroke-opacity:1; fill:none" points="285.931,1236.66 304.829,1236.66 "/>
<polyline clip-path="url(#clip290)" style="stroke:#000000; stroke-linecap:round; stroke-linejoin:round; stroke-width:4; stroke-opacity:1; fill:none" points="285.931,995.393 304.829,995.393 "/>
<polyline clip-path="url(#clip290)" style="stroke:#000000; stroke-linecap:round; stroke-linejoin:round; stroke-width:4; stroke-opacity:1; fill:none" points="285.931,754.127 304.829,754.127 "/>
<polyline clip-path="url(#clip290)" style="stroke:#000000; stroke-linecap:round; stroke-linejoin:round; stroke-width:4; stroke-opacity:1; fill:none" points="285.931,512.861 304.829,512.861 "/>
<polyline clip-path="url(#clip290)" style="stroke:#000000; stroke-linecap:round; stroke-linejoin:round; stroke-width:4; stroke-opacity:1; fill:none" points="285.931,271.595 304.829,271.595 "/>
<polyline clip-path="url(#clip290)" style="stroke:#000000; stroke-linecap:round; stroke-linejoin:round; stroke-width:4; stroke-opacity:1; fill:none" points="2352.76,1236.66 2333.86,1236.66 "/>
<polyline clip-path="url(#clip290)" style="stroke:#000000; stroke-linecap:round; stroke-linejoin:round; stroke-width:4; stroke-opacity:1; fill:none" points="2352.76,995.393 2333.86,995.393 "/>
<polyline clip-path="url(#clip290)" style="stroke:#000000; stroke-linecap:round; stroke-linejoin:round; stroke-width:4; stroke-opacity:1; fill:none" points="2352.76,754.127 2333.86,754.127 "/>
<polyline clip-path="url(#clip290)" style="stroke:#000000; stroke-linecap:round; stroke-linejoin:round; stroke-width:4; stroke-opacity:1; fill:none" points="2352.76,512.861 2333.86,512.861 "/>
<polyline clip-path="url(#clip290)" style="stroke:#000000; stroke-linecap:round; stroke-linejoin:round; stroke-width:4; stroke-opacity:1; fill:none" points="2352.76,271.595 2333.86,271.595 "/>
<path clip-path="url(#clip290)" d="M147.659 1240.58 Q147.956 1240.87 147.956 1241.29 Q147.956 1241.71 147.659 1242.01 Q147.363 1242.3 146.943 1242.3 L115.273 1242.3 Q114.853 1242.3 114.557 1242.01 Q114.26 1241.71 114.26 1241.29 Q114.26 1240.87 114.557 1240.58 Q114.853 1240.28 115.273 1240.28 L146.943 1240.28 Q147.363 1240.28 147.659 1240.58 Z" fill="#000000" fill-rule="nonzero" fill-opacity="1" /><path clip-path="url(#clip290)" d="M155.268 1225.06 L155.268 1223.48 Q161.345 1223.48 164.482 1220.24 Q165.347 1220.24 165.495 1220.44 Q165.643 1220.64 165.643 1221.55 L165.643 1249.94 Q165.643 1251.44 166.384 1251.91 Q167.125 1252.38 170.361 1252.38 L171.967 1252.38 L171.967 1253.94 Q170.189 1253.79 163.766 1253.79 Q157.343 1253.79 155.589 1253.94 L155.589 1252.38 L157.195 1252.38 Q160.381 1252.38 161.147 1251.94 Q161.913 1251.47 161.913 1249.94 L161.913 1223.73 Q159.27 1225.06 155.268 1225.06 Z" fill="#000000" fill-rule="nonzero" fill-opacity="1" /><path clip-path="url(#clip290)" d="M178.588 1245.79 Q178.588 1244.28 179.403 1243.71 Q180.218 1243.12 181.083 1243.12 Q182.244 1243.12 182.911 1243.86 Q183.602 1244.58 183.602 1245.59 Q183.602 1246.6 182.911 1247.34 Q182.244 1248.06 181.083 1248.06 Q180.515 1248.06 180.218 1247.96 Q180.885 1250.28 182.911 1251.96 Q184.961 1253.64 187.654 1253.64 Q191.038 1253.64 193.064 1250.36 Q194.274 1248.23 194.274 1243.42 Q194.274 1239.17 193.36 1237.04 Q191.952 1233.81 189.062 1233.81 Q184.961 1233.81 182.54 1237.34 Q182.244 1237.78 181.898 1237.81 Q181.404 1237.81 181.28 1237.54 Q181.182 1237.24 181.182 1236.47 L181.182 1221.5 Q181.182 1220.29 181.676 1220.29 Q181.873 1220.29 182.293 1220.44 Q185.48 1221.85 189.013 1221.87 Q192.644 1221.87 195.905 1220.39 Q196.152 1220.24 196.3 1220.24 Q196.794 1220.24 196.819 1220.81 Q196.819 1221.01 196.399 1221.6 Q196.004 1222.17 195.139 1222.94 Q194.274 1223.68 193.163 1224.39 Q192.051 1225.11 190.421 1225.61 Q188.815 1226.07 187.036 1226.07 Q184.912 1226.07 182.738 1225.41 L182.738 1235.26 Q185.356 1232.69 189.161 1232.69 Q193.212 1232.69 196.004 1235.96 Q198.795 1239.22 198.795 1243.76 Q198.795 1248.53 195.485 1251.79 Q192.199 1255.05 187.753 1255.05 Q183.701 1255.05 181.132 1252.16 Q178.588 1249.27 178.588 1245.79 Z" fill="#000000" fill-rule="nonzero" fill-opacity="1" /><path clip-path="url(#clip290)" d="M203.34 1237.76 Q203.34 1230.32 205.218 1226.27 Q207.836 1220.24 214.012 1220.24 Q215.322 1220.24 216.68 1220.61 Q218.064 1220.96 219.793 1222.32 Q221.547 1223.68 222.609 1225.9 Q224.635 1230.2 224.635 1237.76 Q224.635 1245.15 222.757 1249.17 Q220.015 1255.05 213.963 1255.05 Q211.69 1255.05 209.368 1253.89 Q207.071 1252.73 205.613 1249.94 Q203.34 1245.76 203.34 1237.76 M207.54 1237.14 Q207.54 1244.77 208.084 1247.81 Q208.701 1251.1 210.381 1252.53 Q212.085 1253.94 213.963 1253.94 Q215.989 1253.94 217.668 1252.43 Q219.373 1250.9 219.892 1247.62 Q220.46 1244.38 220.435 1237.14 Q220.435 1230.1 219.941 1227.28 Q219.274 1224 217.495 1222.69 Q215.742 1221.36 213.963 1221.36 Q213.296 1221.36 212.58 1221.55 Q211.888 1221.75 210.875 1222.32 Q209.862 1222.89 209.072 1224.3 Q208.306 1225.7 207.935 1227.83 Q207.54 1230.57 207.54 1237.14 Z" fill="#000000" fill-rule="nonzero" fill-opacity="1" /><path clip-path="url(#clip290)" d="M228.637 1237.76 Q228.637 1230.32 230.514 1226.27 Q233.133 1220.24 239.309 1220.24 Q240.618 1220.24 241.977 1220.61 Q243.36 1220.96 245.089 1222.32 Q246.843 1223.68 247.905 1225.9 Q249.931 1230.2 249.931 1237.76 Q249.931 1245.15 248.054 1249.17 Q245.311 1255.05 239.259 1255.05 Q236.986 1255.05 234.664 1253.89 Q232.367 1252.73 230.909 1249.94 Q228.637 1245.76 228.637 1237.76 M232.836 1237.14 Q232.836 1244.77 233.38 1247.81 Q233.997 1251.1 235.677 1252.53 Q237.382 1253.94 239.259 1253.94 Q241.285 1253.94 242.965 1252.43 Q244.669 1250.9 245.188 1247.62 Q245.756 1244.38 245.731 1237.14 Q245.731 1230.1 245.237 1227.28 Q244.57 1224 242.792 1222.69 Q241.038 1221.36 239.259 1221.36 Q238.592 1221.36 237.876 1221.55 Q237.184 1221.75 236.171 1222.32 Q235.158 1222.89 234.368 1224.3 Q233.602 1225.7 233.232 1227.83 Q232.836 1230.57 232.836 1237.14 Z" fill="#000000" fill-rule="nonzero" fill-opacity="1" /><path clip-path="url(#clip290)" d="M147.659 999.309 Q147.956 999.605 147.956 1000.03 Q147.956 1000.45 147.659 1000.74 Q147.363 1001.04 146.943 1001.04 L115.273 1001.04 Q114.853 1001.04 114.557 1000.74 Q114.26 1000.45 114.26 1000.03 Q114.26 999.605 114.557 999.309 Q114.853 999.013 115.273 999.013 L146.943 999.013 Q147.363 999.013 147.659 999.309 Z" fill="#000000" fill-rule="nonzero" fill-opacity="1" /><path clip-path="url(#clip290)" d="M155.268 983.795 L155.268 982.214 Q161.345 982.214 164.482 978.978 Q165.347 978.978 165.495 979.176 Q165.643 979.373 165.643 980.287 L165.643 1008.67 Q165.643 1010.18 166.384 1010.65 Q167.125 1011.12 170.361 1011.12 L171.967 1011.12 L171.967 1012.67 Q170.189 1012.53 163.766 1012.53 Q157.343 1012.53 155.589 1012.67 L155.589 1011.12 L157.195 1011.12 Q160.381 1011.12 161.147 1010.67 Q161.913 1010.2 161.913 1008.67 L161.913 982.461 Q159.27 983.795 155.268 983.795 Z" fill="#000000" fill-rule="nonzero" fill-opacity="1" /><path clip-path="url(#clip290)" d="M178.588 1012.67 Q178.588 1011.76 178.662 1011.49 Q178.761 1011.22 179.156 1010.8 L188.864 999.976 Q194.176 993.998 194.176 988.785 Q194.176 985.401 192.397 982.98 Q190.643 980.559 187.407 980.559 Q185.184 980.559 183.306 981.918 Q181.429 983.276 180.564 985.697 Q180.712 985.648 181.231 985.648 Q182.491 985.648 183.183 986.439 Q183.899 987.229 183.899 988.291 Q183.899 989.65 183.01 990.317 Q182.145 990.959 181.28 990.959 Q180.935 990.959 180.465 990.885 Q180.021 990.811 179.304 990.119 Q178.588 989.403 178.588 988.143 Q178.588 984.61 181.256 981.794 Q183.948 978.978 188.049 978.978 Q192.693 978.978 195.732 981.745 Q198.795 984.487 198.795 988.785 Q198.795 990.292 198.326 991.676 Q197.881 993.034 197.263 994.097 Q196.671 995.159 195.04 996.863 Q193.41 998.568 192.1 999.778 Q190.791 1000.99 187.851 1003.56 L182.491 1008.77 L191.606 1008.77 Q196.053 1008.77 196.399 1008.38 Q196.893 1007.66 197.51 1003.88 L198.795 1003.88 L197.362 1012.67 L178.588 1012.67 Z" fill="#000000" fill-rule="nonzero" fill-opacity="1" /><path clip-path="url(#clip290)" d="M203.34 996.493 Q203.34 989.057 205.218 985.006 Q207.836 978.978 214.012 978.978 Q215.322 978.978 216.68 979.349 Q218.064 979.694 219.793 981.053 Q221.547 982.412 222.609 984.635 Q224.635 988.934 224.635 996.493 Q224.635 1003.88 222.757 1007.91 Q220.015 1013.79 213.963 1013.79 Q211.69 1013.79 209.368 1012.62 Q207.071 1011.46 205.613 1008.67 Q203.34 1004.5 203.34 996.493 M207.54 995.875 Q207.54 1003.51 208.084 1006.55 Q208.701 1009.83 210.381 1011.27 Q212.085 1012.67 213.963 1012.67 Q215.989 1012.67 217.668 1011.17 Q219.373 1009.63 219.892 1006.35 Q220.46 1003.11 220.435 995.875 Q220.435 988.835 219.941 986.019 Q219.274 982.733 217.495 981.424 Q215.742 980.09 213.963 980.09 Q213.296 980.09 212.58 980.287 Q211.888 980.485 210.875 981.053 Q209.862 981.621 209.072 983.029 Q208.306 984.438 207.935 986.562 Q207.54 989.304 207.54 995.875 Z" fill="#000000" fill-rule="nonzero" fill-opacity="1" /><path clip-path="url(#clip290)" d="M228.637 996.493 Q228.637 989.057 230.514 985.006 Q233.133 978.978 239.309 978.978 Q240.618 978.978 241.977 979.349 Q243.36 979.694 245.089 981.053 Q246.843 982.412 247.905 984.635 Q249.931 988.934 249.931 996.493 Q249.931 1003.88 248.054 1007.91 Q245.311 1013.79 239.259 1013.79 Q236.986 1013.79 234.664 1012.62 Q232.367 1011.46 230.909 1008.67 Q228.637 1004.5 228.637 996.493 M232.836 995.875 Q232.836 1003.51 233.38 1006.55 Q233.997 1009.83 235.677 1011.27 Q237.382 1012.67 239.259 1012.67 Q241.285 1012.67 242.965 1011.17 Q244.669 1009.63 245.188 1006.35 Q245.756 1003.11 245.731 995.875 Q245.731 988.835 245.237 986.019 Q244.57 982.733 242.792 981.424 Q241.038 980.09 239.259 980.09 Q238.592 980.09 237.876 980.287 Q237.184 980.485 236.171 981.053 Q235.158 981.621 234.368 983.029 Q233.602 984.438 233.232 986.562 Q232.836 989.304 232.836 995.875 Z" fill="#000000" fill-rule="nonzero" fill-opacity="1" /><path clip-path="url(#clip290)" d="M172.955 758.043 Q173.252 758.339 173.252 758.759 Q173.252 759.179 172.955 759.475 Q172.659 759.772 172.239 759.772 L140.569 759.772 Q140.149 759.772 139.853 759.475 Q139.556 759.179 139.556 758.759 Q139.556 758.339 139.853 758.043 Q140.149 757.746 140.569 757.746 L172.239 757.746 Q172.659 757.746 172.955 758.043 Z" fill="#000000" fill-rule="nonzero" fill-opacity="1" /><path clip-path="url(#clip290)" d="M178.192 749.1 Q178.192 746.407 178.983 744.579 Q179.773 742.727 181.429 740.899 Q184.467 737.712 188.864 737.712 Q190.742 737.712 192.397 738.502 Q194.077 739.293 195.658 741.096 Q197.263 742.875 198.227 746.407 Q199.19 749.915 199.19 754.757 Q199.19 762.588 195.386 767.553 Q191.606 772.519 186.493 772.519 Q183.257 772.519 181.354 771.061 Q179.452 769.579 179.452 767.059 Q179.452 765.75 180.193 765.207 Q180.935 764.638 181.774 764.638 Q182.688 764.638 183.405 765.256 Q184.121 765.849 184.121 766.961 Q184.121 767.875 183.528 768.591 Q182.96 769.283 181.478 769.283 Q182.935 771.111 186.443 771.111 Q187.703 771.111 188.963 770.543 Q190.223 769.95 191.582 768.542 Q192.965 767.109 193.805 764.12 Q194.645 761.131 194.645 756.931 L194.645 755.325 Q192.619 760.39 188.321 760.39 Q184.072 760.39 181.132 757.129 Q178.192 753.868 178.192 749.1 M182.738 749.149 Q182.738 754.164 183.652 756.017 Q185.208 759.204 188.37 759.204 Q191.458 759.204 192.99 756.462 Q194.546 753.695 194.546 750.113 Q194.546 745.148 193.731 742.974 Q192.224 738.972 188.864 738.972 Q185.529 738.972 183.8 742.158 Q182.738 744.036 182.738 749.149 Z" fill="#000000" fill-rule="nonzero" fill-opacity="1" /><path clip-path="url(#clip290)" d="M203.34 755.226 Q203.34 747.791 205.218 743.739 Q207.836 737.712 214.012 737.712 Q215.322 737.712 216.68 738.082 Q218.064 738.428 219.793 739.787 Q221.547 741.146 222.609 743.369 Q224.635 747.667 224.635 755.226 Q224.635 762.613 222.757 766.639 Q220.015 772.519 213.963 772.519 Q211.69 772.519 209.368 771.358 Q207.071 770.197 205.613 767.405 Q203.34 763.23 203.34 755.226 M207.54 754.609 Q207.54 762.242 208.084 765.281 Q208.701 768.566 210.381 769.999 Q212.085 771.407 213.963 771.407 Q215.989 771.407 217.668 769.9 Q219.373 768.369 219.892 765.083 Q220.46 761.847 220.435 754.609 Q220.435 747.568 219.941 744.752 Q219.274 741.467 217.495 740.157 Q215.742 738.823 213.963 738.823 Q213.296 738.823 212.58 739.021 Q211.888 739.219 210.875 739.787 Q209.862 740.355 209.072 741.763 Q208.306 743.171 207.935 745.296 Q207.54 748.038 207.54 754.609 Z" fill="#000000" fill-rule="nonzero" fill-opacity="1" /><path clip-path="url(#clip290)" d="M228.637 755.226 Q228.637 747.791 230.514 743.739 Q233.133 737.712 239.309 737.712 Q240.618 737.712 241.977 738.082 Q243.36 738.428 245.089 739.787 Q246.843 741.146 247.905 743.369 Q249.931 747.667 249.931 755.226 Q249.931 762.613 248.054 766.639 Q245.311 772.519 239.259 772.519 Q236.986 772.519 234.664 771.358 Q232.367 770.197 230.909 767.405 Q228.637 763.23 228.637 755.226 M232.836 754.609 Q232.836 762.242 233.38 765.281 Q233.997 768.566 235.677 769.999 Q237.382 771.407 239.259 771.407 Q241.285 771.407 242.965 769.9 Q244.669 768.369 245.188 765.083 Q245.756 761.847 245.731 754.609 Q245.731 747.568 245.237 744.752 Q244.57 741.467 242.792 740.157 Q241.038 738.823 239.259 738.823 Q238.592 738.823 237.876 739.021 Q237.184 739.219 236.171 739.787 Q235.158 740.355 234.368 741.763 Q233.602 743.171 233.232 745.296 Q232.836 748.038 232.836 754.609 Z" fill="#000000" fill-rule="nonzero" fill-opacity="1" /><path clip-path="url(#clip290)" d="M172.955 516.776 Q173.252 517.073 173.252 517.493 Q173.252 517.913 172.955 518.209 Q172.659 518.506 172.239 518.506 L140.569 518.506 Q140.149 518.506 139.853 518.209 Q139.556 517.913 139.556 517.493 Q139.556 517.073 139.853 516.776 Q140.149 516.48 140.569 516.48 L172.239 516.48 Q172.659 516.48 172.955 516.776 Z" fill="#000000" fill-rule="nonzero" fill-opacity="1" /><path clip-path="url(#clip290)" d="M178.192 514.158 Q178.192 506.203 182.244 501.337 Q186.295 496.446 191.508 496.446 Q194.546 496.446 196.226 498.002 Q197.93 499.533 197.93 501.905 Q197.93 503.214 197.165 503.782 Q196.399 504.351 195.608 504.351 Q194.694 504.351 193.978 503.733 Q193.262 503.115 193.262 502.004 Q193.262 499.731 196.053 499.731 Q194.744 497.705 191.606 497.705 Q190.643 497.705 189.655 498.002 Q188.667 498.274 187.382 499.212 Q186.098 500.151 185.109 501.633 Q184.121 503.115 183.43 505.907 Q182.738 508.698 182.738 512.33 L182.738 513.54 Q184.813 508.525 189.062 508.55 Q193.311 508.55 196.251 511.786 Q199.19 515.022 199.19 519.815 Q199.19 524.731 196.127 527.992 Q193.064 531.253 188.765 531.253 Q186.839 531.253 185.085 530.437 Q183.355 529.647 181.725 527.819 Q180.119 525.991 179.156 522.483 Q178.192 518.975 178.192 514.158 M182.837 518.703 Q182.837 523.669 183.751 526.04 Q183.899 526.435 184.22 526.979 Q184.566 527.522 185.134 528.239 Q185.727 528.93 186.69 529.4 Q187.654 529.844 188.765 529.844 Q192.15 529.844 193.78 526.559 Q194.645 524.731 194.645 519.766 Q194.645 514.701 193.731 512.849 Q192.175 509.711 189.013 509.711 Q186.888 509.711 185.406 511.169 Q183.948 512.626 183.38 514.578 Q182.837 516.529 182.837 518.703 Z" fill="#000000" fill-rule="nonzero" fill-opacity="1" /><path clip-path="url(#clip290)" d="M203.34 513.96 Q203.34 506.525 205.218 502.473 Q207.836 496.446 214.012 496.446 Q215.322 496.446 216.68 496.816 Q218.064 497.162 219.793 498.521 Q221.547 499.879 222.609 502.103 Q224.635 506.401 224.635 513.96 Q224.635 521.347 222.757 525.373 Q220.015 531.253 213.963 531.253 Q211.69 531.253 209.368 530.092 Q207.071 528.93 205.613 526.139 Q203.34 521.964 203.34 513.96 M207.54 513.343 Q207.54 520.976 208.084 524.014 Q208.701 527.3 210.381 528.733 Q212.085 530.141 213.963 530.141 Q215.989 530.141 217.668 528.634 Q219.373 527.102 219.892 523.817 Q220.46 520.581 220.435 513.343 Q220.435 506.302 219.941 503.486 Q219.274 500.2 217.495 498.891 Q215.742 497.557 213.963 497.557 Q213.296 497.557 212.58 497.755 Q211.888 497.952 210.875 498.521 Q209.862 499.089 209.072 500.497 Q208.306 501.905 207.935 504.029 Q207.54 506.772 207.54 513.343 Z" fill="#000000" fill-rule="nonzero" fill-opacity="1" /><path clip-path="url(#clip290)" d="M228.637 513.96 Q228.637 506.525 230.514 502.473 Q233.133 496.446 239.309 496.446 Q240.618 496.446 241.977 496.816 Q243.36 497.162 245.089 498.521 Q246.843 499.879 247.905 502.103 Q249.931 506.401 249.931 513.96 Q249.931 521.347 248.054 525.373 Q245.311 531.253 239.259 531.253 Q236.986 531.253 234.664 530.092 Q232.367 528.93 230.909 526.139 Q228.637 521.964 228.637 513.96 M232.836 513.343 Q232.836 520.976 233.38 524.014 Q233.997 527.3 235.677 528.733 Q237.382 530.141 239.259 530.141 Q241.285 530.141 242.965 528.634 Q244.669 527.102 245.188 523.817 Q245.756 520.581 245.731 513.343 Q245.731 506.302 245.237 503.486 Q244.57 500.2 242.792 498.891 Q241.038 497.557 239.259 497.557 Q238.592 497.557 237.876 497.755 Q237.184 497.952 236.171 498.521 Q235.158 499.089 234.368 500.497 Q233.602 501.905 233.232 504.029 Q232.836 506.772 232.836 513.343 Z" fill="#000000" fill-rule="nonzero" fill-opacity="1" /><path clip-path="url(#clip290)" d="M172.955 275.51 Q173.252 275.807 173.252 276.227 Q173.252 276.646 172.955 276.943 Q172.659 277.239 172.239 277.239 L140.569 277.239 Q140.149 277.239 139.853 276.943 Q139.556 276.646 139.556 276.227 Q139.556 275.807 139.853 275.51 Q140.149 275.214 140.569 275.214 L172.239 275.214 Q172.659 275.214 172.955 275.51 Z" fill="#000000" fill-rule="nonzero" fill-opacity="1" /><path clip-path="url(#clip290)" d="M178.192 282.057 Q178.192 280.55 179.057 279.833 Q179.922 279.117 181.033 279.117 Q182.194 279.117 183.01 279.883 Q183.85 280.624 183.85 281.933 Q183.85 283.341 182.861 284.132 Q181.898 284.922 180.515 284.724 Q181.725 286.75 183.948 287.664 Q186.196 288.578 188.271 288.578 Q190.445 288.578 192.199 286.701 Q193.978 284.823 193.978 280.228 Q193.978 276.325 192.446 274.077 Q190.939 271.829 187.95 271.829 L185.727 271.829 Q184.961 271.829 184.739 271.755 Q184.517 271.681 184.517 271.261 Q184.517 270.767 185.282 270.668 Q186.048 270.668 187.259 270.52 Q190.198 270.421 191.755 267.877 Q193.163 265.505 193.163 262.121 Q193.163 259.033 191.68 257.748 Q190.223 256.439 188.321 256.439 Q186.542 256.439 184.591 257.18 Q182.639 257.921 181.577 259.576 Q184.714 259.576 184.714 262.121 Q184.714 263.233 183.998 263.974 Q183.306 264.69 182.145 264.69 Q181.033 264.69 180.292 263.998 Q179.551 263.282 179.551 262.071 Q179.551 259.181 182.12 257.18 Q184.714 255.179 188.518 255.179 Q192.273 255.179 195.04 257.156 Q197.832 259.132 197.832 262.17 Q197.832 265.159 195.855 267.605 Q193.879 270.051 190.742 271.064 Q194.595 271.829 196.893 274.448 Q199.19 277.042 199.19 280.228 Q199.19 284.181 196.078 287.096 Q192.965 289.986 188.42 289.986 Q184.22 289.986 181.206 287.714 Q178.192 285.441 178.192 282.057 Z" fill="#000000" fill-rule="nonzero" fill-opacity="1" /><path clip-path="url(#clip290)" d="M203.34 272.694 Q203.34 265.258 205.218 261.207 Q207.836 255.179 214.012 255.179 Q215.322 255.179 216.68 255.55 Q218.064 255.896 219.793 257.254 Q221.547 258.613 222.609 260.836 Q224.635 265.135 224.635 272.694 Q224.635 280.08 222.757 284.107 Q220.015 289.986 213.963 289.986 Q211.69 289.986 209.368 288.825 Q207.071 287.664 205.613 284.873 Q203.34 280.698 203.34 272.694 M207.54 272.076 Q207.54 279.71 208.084 282.748 Q208.701 286.034 210.381 287.467 Q212.085 288.875 213.963 288.875 Q215.989 288.875 217.668 287.368 Q219.373 285.836 219.892 282.551 Q220.46 279.314 220.435 272.076 Q220.435 265.036 219.941 262.22 Q219.274 258.934 217.495 257.625 Q215.742 256.291 213.963 256.291 Q213.296 256.291 212.58 256.489 Q211.888 256.686 210.875 257.254 Q209.862 257.823 209.072 259.231 Q208.306 260.639 207.935 262.763 Q207.54 265.505 207.54 272.076 Z" fill="#000000" fill-rule="nonzero" fill-opacity="1" /><path clip-path="url(#clip290)" d="M228.637 272.694 Q228.637 265.258 230.514 261.207 Q233.133 255.179 239.309 255.179 Q240.618 255.179 241.977 255.55 Q243.36 255.896 245.089 257.254 Q246.843 258.613 247.905 260.836 Q249.931 265.135 249.931 272.694 Q249.931 280.08 248.054 284.107 Q245.311 289.986 239.259 289.986 Q236.986 289.986 234.664 288.825 Q232.367 287.664 230.909 284.873 Q228.637 280.698 228.637 272.694 M232.836 272.076 Q232.836 279.71 233.38 282.748 Q233.997 286.034 235.677 287.467 Q237.382 288.875 239.259 288.875 Q241.285 288.875 242.965 287.368 Q244.669 285.836 245.188 282.551 Q245.756 279.314 245.731 272.076 Q245.731 265.036 245.237 262.22 Q244.57 258.934 242.792 257.625 Q241.038 256.291 239.259 256.291 Q238.592 256.291 237.876 256.489 Q237.184 256.686 236.171 257.254 Q235.158 257.823 234.368 259.231 Q233.602 260.639 233.232 262.763 Q232.836 265.505 232.836 272.076 Z" fill="#000000" fill-rule="nonzero" fill-opacity="1" /><path clip-path="url(#clip290)" d="M64.0042 886.572 L61.8642 886.572 L61.8642 884.908 Q61.8642 881.138 61.2528 880.288 Q60.6074 879.405 58.5694 879.405 L21.9189 879.405 Q19.9148 879.405 19.3034 880.288 Q18.6581 881.172 18.6581 884.908 L18.6581 886.572 L16.4842 886.572 L16.4842 864.732 Q16.4842 857.157 20.2205 851.892 Q23.923 846.593 29.018 846.593 Q32.9242 846.593 35.9813 850.024 Q39.0383 853.454 40.363 858.753 Q42.7407 851.858 48.4132 850.262 L53.9839 849.378 Q55.9879 849.107 57.0069 848.937 Q58.0259 848.733 59.4186 848.427 Q60.8112 848.122 61.4906 847.816 Q62.136 847.476 62.8493 847.001 Q63.5286 846.525 63.7664 845.914 Q64.0042 845.268 64.0042 844.419 Q64.0042 842.823 62.5775 841.464 Q61.1509 840.105 57.8221 839.834 Q56.7012 839.698 56.7012 838.984 Q56.7012 838.101 57.8221 838.101 Q58.8072 838.101 59.9621 838.373 Q61.083 838.645 62.4077 839.324 Q63.7324 839.969 64.6156 841.396 Q65.5327 842.823 65.5327 844.691 Q65.5327 850.126 62.6115 853.454 Q61.3547 854.847 59.7243 855.492 Q58.0939 856.104 56.8031 856.206 Q55.5124 856.308 52.6591 856.308 Q48.6171 856.308 46.8508 856.749 Q45.0845 857.157 43.3521 858.957 Q40.9745 861.403 40.9745 865.445 L40.9745 873.427 L58.5694 873.427 Q60.5735 873.427 61.2189 872.578 Q61.8642 871.695 61.8642 867.924 L61.8642 866.26 L64.0042 866.26 Q63.8004 868.774 63.8004 876.416 Q63.8004 884.059 64.0042 886.572 M39.4459 873.427 L39.4459 865.717 Q39.4459 862.014 38.5628 859.535 Q37.6457 857.021 36.0153 855.832 Q34.3848 854.643 32.7544 854.202 Q31.09 853.76 29.018 853.76 Q26.5724 853.76 24.7382 854.304 Q22.9039 854.847 21.817 856.036 Q20.73 857.225 20.0507 858.414 Q19.3374 859.602 19.0657 861.437 Q18.7939 863.271 18.726 864.528 Q18.6581 865.784 18.6581 867.789 Q18.6581 871.185 18.7939 871.899 Q18.8619 872.68 19.2355 872.986 Q19.6091 873.291 20.0507 873.359 Q20.4583 873.427 21.4434 873.427 L39.4459 873.427 Z" fill="#000000" fill-rule="nonzero" fill-opacity="1" /><path clip-path="url(#clip290)" d="M48.685 835.893 Q42.1293 835.893 37.4758 831.681 Q32.8223 827.47 32.8223 821.423 Q32.8223 815.309 36.7965 812.15 Q40.7706 808.957 46.4771 808.957 Q47.5301 808.957 47.7339 809.229 Q47.9377 809.501 47.9377 810.69 L47.9377 830.119 Q55.0368 830.119 58.3656 828.013 Q63.0191 825.092 63.0191 820.167 Q63.0191 819.487 62.8832 818.672 Q62.7474 817.857 62.1699 816.192 Q61.5585 814.528 59.9621 813.068 Q58.3656 811.607 55.852 810.758 Q54.867 810.554 54.901 809.875 Q54.901 808.957 55.7162 808.957 Q56.3276 808.957 57.7202 809.637 Q59.0789 810.282 60.7093 811.539 Q62.3398 812.796 63.5626 815.241 Q64.7854 817.653 64.7854 820.574 Q64.7854 826.688 60.1659 831.308 Q55.5124 835.893 48.685 835.893 M46.4771 830.051 L46.4771 813.543 Q45.0165 813.543 43.3861 813.815 Q41.7557 814.053 39.5139 814.8 Q37.2381 815.513 35.8114 817.212 Q34.3848 818.91 34.3848 821.423 Q34.3848 822.544 34.8604 823.767 Q35.3359 824.956 36.4908 826.417 Q37.6457 827.877 40.2611 828.896 Q42.8766 829.915 46.4771 830.051 Z" fill="#000000" fill-rule="nonzero" fill-opacity="1" /><path clip-path="url(#clip290)" d="M36.1851 805.697 L34.0112 805.697 Q34.215 801.926 34.215 799.243 Q34.215 797.918 34.0112 791.634 L36.1851 791.634 Q36.1851 795.744 38.0533 795.744 Q38.4609 795.744 39.3101 795.405 L57.8901 788.781 L41.0424 782.803 Q37.6457 784.06 37.2381 784.399 Q36.1851 785.248 36.1851 788.781 L34.0112 788.781 Q34.215 785.656 34.215 782.599 Q34.215 781.41 34.0112 775.364 L36.1851 775.364 Q36.1851 779.474 38.0533 779.474 Q38.325 779.474 39.378 779.134 L58.7732 772.239 L40.9745 765.921 Q40.0573 765.581 39.5139 765.548 Q37.9853 765.548 37.1362 766.634 Q36.253 767.721 36.1851 769.59 L34.0112 769.59 Q34.215 765.615 34.215 763.136 Q34.215 760.351 34.0112 758.041 L36.1851 758.041 Q36.321 762.355 40.6348 763.883 L63.4607 772.035 Q64.7175 772.816 64.7854 773.428 Q64.7854 774.345 63.4607 774.821 L43.6918 781.92 L63.3927 788.951 Q64.2419 789.223 64.5137 789.46 Q64.7854 789.698 64.7854 790.344 Q64.7854 790.955 64.4118 791.227 Q64.0721 791.498 63.2229 791.804 L38.5968 800.568 Q37.0003 801.179 36.5927 802.096 Q36.1851 802.979 36.1851 805.697 Z" fill="#000000" fill-rule="nonzero" fill-opacity="1" /><path clip-path="url(#clip290)" d="M57.3806 755.765 Q51.4703 755.765 48.3453 748.802 Q46.3413 744.624 45.8317 735.996 L43.2842 735.996 Q38.9704 735.996 36.6946 738.272 Q34.3848 740.514 34.3848 743.367 Q34.3848 748.462 37.5777 750.908 Q37.6457 748.836 38.6987 748.088 Q39.7177 747.341 40.7706 747.341 Q42.1633 747.341 43.0804 748.224 Q43.9636 749.073 43.9636 750.534 Q43.9636 751.927 43.1144 752.844 Q42.2312 753.761 40.7027 753.761 Q37.306 753.761 35.0642 750.704 Q32.8223 747.613 32.8223 743.231 Q32.8223 737.525 36.6606 733.72 Q37.8495 732.531 39.378 731.954 Q40.9065 731.343 41.9255 731.275 Q42.9106 731.207 44.8807 731.207 L58.7732 731.207 Q59.1808 731.207 59.8602 731.071 Q60.5395 730.935 61.4227 730.324 Q62.2718 729.678 62.2718 728.625 Q62.2718 726.112 57.8221 726.146 L53.9159 726.146 L53.9159 724.379 L57.8221 724.379 Q61.5246 724.379 62.9851 726.349 Q64.4118 728.286 64.4118 730.086 Q64.4118 732.396 62.7134 733.856 Q61.0151 735.317 58.7053 735.521 Q61.3547 736.574 63.087 738.985 Q64.7854 741.363 64.7854 744.624 Q64.7854 747.137 64.14 749.515 Q63.5286 751.859 61.7963 753.829 Q60.03 755.765 57.3806 755.765 M57.3126 750.398 Q59.8941 750.398 61.5585 748.564 Q63.2229 746.73 63.2229 744.148 Q63.2229 741.227 60.9811 738.612 Q58.7053 735.996 54.2556 735.996 L47.2923 735.996 Q47.5641 743.707 50.6551 747.069 Q53.7121 750.398 57.3126 750.398 Z" fill="#000000" fill-rule="nonzero" fill-opacity="1" /><path clip-path="url(#clip290)" d="M64.0042 721.968 L61.8642 721.968 Q61.8642 718.265 61.4227 717.416 Q60.9471 716.533 58.7053 716.533 L40.0573 716.533 Q37.4758 716.533 36.8305 717.45 Q36.1851 718.333 36.1851 721.968 L34.0112 721.968 L33.2639 712.287 L40.9065 712.287 Q37.9174 711.302 35.6076 709.23 Q33.2639 707.124 33.2639 703.727 Q33.2639 701.486 34.5207 700.059 Q35.7775 698.598 37.5098 698.598 Q39.0383 698.598 39.8196 699.549 Q40.5668 700.467 40.5668 701.587 Q40.5668 702.844 39.7856 703.727 Q38.9704 704.577 37.5777 704.577 Q36.7286 704.577 36.0832 704.203 Q35.4038 703.795 35.1661 703.49 Q34.9283 703.184 34.8604 702.98 Q34.7924 703.116 34.7924 703.727 Q34.7924 707.566 38.6307 709.774 Q42.435 711.947 47.8698 711.947 L58.5694 711.947 Q60.5735 711.947 61.2189 711.132 Q61.8642 710.283 61.8642 706.649 L61.8642 705.188 L64.0042 705.188 Q63.8004 707.973 63.8004 714.019 Q63.8004 714.869 63.8343 716.193 Q63.8683 717.518 63.9362 719.25 Q64.0042 720.983 64.0042 721.968 Z" fill="#000000" fill-rule="nonzero" fill-opacity="1" /><path clip-path="url(#clip290)" d="M49.0586 694.352 Q42.435 694.352 37.8495 689.733 Q33.2639 685.113 33.2639 678.863 Q33.2639 673.565 37.5777 670.1 L22.5303 670.1 Q19.9488 670.1 19.3034 671.017 Q18.6581 671.9 18.6581 675.501 L16.4842 675.501 L15.7369 665.48 L57.958 665.48 Q60.5395 665.48 61.2189 664.597 Q61.8642 663.68 61.8642 660.08 L64.0042 660.08 L64.7854 670.304 L60.1659 670.304 Q64.7514 673.904 64.7854 679.611 Q64.7854 685.589 60.1998 689.971 Q55.6143 694.352 49.0586 694.352 M49.1266 688.578 Q55.5803 688.578 58.7732 686.574 Q63.2229 683.789 63.2229 679.271 Q63.2229 674.108 58.3656 671.051 Q57.1768 670.27 55.7841 670.304 L41.5179 670.304 Q40.1253 670.304 38.9704 671.051 Q34.7924 673.904 34.7924 678.558 Q34.7924 683.415 39.2421 686.438 Q42.5709 688.578 49.1266 688.578 Z" fill="#000000" fill-rule="nonzero" fill-opacity="1" /><path clip-path="url(#clip290)" d="M736.872 72.576 L736.872 69.8525 L738.991 69.8525 Q743.789 69.8525 744.87 69.0743 Q745.994 68.2529 745.994 65.6591 L745.994 19.0129 Q745.994 16.4623 744.87 15.6842 Q743.746 14.8628 738.991 14.8628 L736.872 14.8628 L736.872 12.096 L764.67 12.096 Q774.31 12.096 781.011 16.8514 Q787.755 21.5636 787.755 28.0482 Q787.755 33.0197 783.389 36.9105 Q779.022 40.8013 772.278 42.4873 Q781.054 45.5135 783.086 52.733 L784.21 59.8229 Q784.556 62.3735 784.772 63.6704 Q785.031 64.9674 785.42 66.7398 Q785.81 68.5123 786.199 69.3769 Q786.631 70.1983 787.236 71.1062 Q787.841 71.9708 788.62 72.2734 Q789.441 72.576 790.522 72.576 Q792.554 72.576 794.283 70.7603 Q796.012 68.9446 796.358 64.708 Q796.531 63.2814 797.439 63.2814 Q798.563 63.2814 798.563 64.708 Q798.563 65.9617 798.217 67.4315 Q797.871 68.8581 797.006 70.5441 Q796.185 72.2302 794.369 73.3542 Q792.554 74.5214 790.176 74.5214 Q783.259 74.5214 779.022 70.8035 Q777.25 69.204 776.428 67.1289 Q775.65 65.0538 775.521 63.4111 Q775.391 61.7683 775.391 58.1369 Q775.391 52.9924 774.829 50.7444 Q774.31 48.4964 772.019 46.2916 Q768.906 43.2655 763.762 43.2655 L753.603 43.2655 L753.603 65.6591 Q753.603 68.2097 754.683 69.0311 Q755.807 69.8525 760.606 69.8525 L762.724 69.8525 L762.724 72.576 Q759.525 72.3166 749.798 72.3166 Q740.071 72.3166 736.872 72.576 M753.603 41.3201 L763.416 41.3201 Q768.128 41.3201 771.284 40.1961 Q774.483 39.0288 775.996 36.9538 Q777.509 34.8787 778.071 32.8036 Q778.633 30.6853 778.633 28.0482 Q778.633 24.9356 777.942 22.6011 Q777.25 20.2666 775.737 18.8832 Q774.224 17.4999 772.711 16.6352 Q771.198 15.7274 768.863 15.3815 Q766.529 15.0357 764.929 14.9492 Q763.33 14.8628 760.779 14.8628 Q756.456 14.8628 755.548 15.0357 Q754.554 15.1222 754.165 15.5977 Q753.775 16.0732 753.689 16.6352 Q753.603 17.154 753.603 18.4077 L753.603 41.3201 Z" fill="#000000" fill-rule="nonzero" fill-opacity="1" /><path clip-path="url(#clip290)" d="M807.209 67.8206 Q801.373 62.0277 801.373 53.6409 Q801.373 45.2109 807.079 39.0721 Q812.829 32.8901 821.043 32.8901 Q829.084 32.8901 834.833 39.0288 Q840.626 45.1244 840.626 53.6409 Q840.626 61.9844 834.79 67.7774 Q828.997 73.5703 820.956 73.5703 Q813.088 73.5703 807.209 67.8206 M808.722 52.9059 Q808.722 61.5089 810.97 65.3997 Q814.428 71.3223 821.043 71.3223 Q824.328 71.3223 827.052 69.5498 Q829.819 67.7774 831.332 64.7944 Q833.277 60.9037 833.277 52.9059 Q833.277 44.3895 830.943 40.6284 Q827.484 34.8787 820.956 34.8787 Q818.103 34.8787 815.293 36.3918 Q812.526 37.8616 810.84 40.8013 Q808.722 44.6921 808.722 52.9059 Z" fill="#000000" fill-rule="nonzero" fill-opacity="1" /><path clip-path="url(#clip290)" d="M845.641 14.8628 L845.641 12.096 L858.394 11.1449 L858.394 39.2018 Q863.539 33.4521 870.542 33.4521 Q878.151 33.4521 883.728 39.2882 Q889.304 45.1244 889.304 53.468 Q889.304 61.898 883.468 67.7341 Q877.632 73.5703 869.548 73.5703 Q862.199 73.5703 857.962 67.0857 Q854.849 72.4895 854.763 72.576 L852.558 72.576 L852.558 19.7911 Q852.558 16.5055 851.391 15.6842 Q850.224 14.8628 845.641 14.8628 M858.654 62.5032 Q858.654 64.3621 859.907 66.2211 Q863.409 71.5817 869.115 71.5817 Q869.159 71.5817 869.202 71.5817 Q875.384 71.5817 879.231 65.9184 Q881.955 61.6818 881.955 53.3815 Q881.955 45.1676 879.404 41.0607 Q875.859 35.3974 870.11 35.3974 Q863.625 35.3974 859.648 41.0607 Q858.654 42.4873 858.654 44.2598 L858.654 62.5032 Z" fill="#000000" fill-rule="nonzero" fill-opacity="1" /><path clip-path="url(#clip290)" d="M903.052 67.8206 Q897.216 62.0277 897.216 53.6409 Q897.216 45.2109 902.922 39.0721 Q908.672 32.8901 916.886 32.8901 Q924.927 32.8901 930.676 39.0288 Q936.469 45.1244 936.469 53.6409 Q936.469 61.9844 930.633 67.7774 Q924.84 73.5703 916.799 73.5703 Q908.931 73.5703 903.052 67.8206 M904.565 52.9059 Q904.565 61.5089 906.813 65.3997 Q910.271 71.3223 916.886 71.3223 Q920.171 71.3223 922.895 69.5498 Q925.661 67.7774 927.175 64.7944 Q929.12 60.9037 929.12 52.9059 Q929.12 44.3895 926.785 40.6284 Q923.327 34.8787 916.799 34.8787 Q913.946 34.8787 911.136 36.3918 Q908.369 37.8616 906.683 40.8013 Q904.565 44.6921 904.565 52.9059 Z" fill="#000000" fill-rule="nonzero" fill-opacity="1" /><path clip-path="url(#clip290)" d="M940.706 37.1699 L940.706 35.2245 Q944.77 35.0516 947.45 32.1984 Q950.173 29.3019 951.081 25.757 Q952.032 22.212 952.119 18.1051 L954.324 18.1051 L954.324 34.4031 L966.99 34.4031 L966.99 37.1699 L954.324 37.1699 L954.324 61.7683 Q954.324 71.3223 960.289 71.3223 Q962.84 71.3223 964.526 68.7285 Q966.212 66.0914 966.212 61.4224 L966.212 56.5373 L968.417 56.5373 L968.417 61.5954 Q968.417 66.394 966.212 69.9821 Q964.007 73.5703 959.641 73.5703 Q958.041 73.5703 956.442 73.138 Q954.886 72.7489 952.81 71.7114 Q950.779 70.6306 949.482 68.0368 Q948.228 65.3997 948.228 61.5954 L948.228 37.1699 L940.706 37.1699 Z" fill="#000000" fill-rule="nonzero" fill-opacity="1" /><path clip-path="url(#clip290)" d="M1005.9 72.576 L1005.9 69.8525 L1008.02 69.8525 Q1012.81 69.8525 1013.9 69.0743 Q1015.02 68.2529 1015.02 65.6591 L1015.02 19.0129 Q1015.02 16.4623 1013.9 15.6842 Q1012.77 14.8628 1008.02 14.8628 L1005.9 14.8628 L1005.9 12.096 L1033.7 12.096 Q1043.34 12.096 1050.04 16.8514 Q1056.78 21.5636 1056.78 28.0482 Q1056.78 33.0197 1052.41 36.9105 Q1048.05 40.8013 1041.3 42.4873 Q1050.08 45.5135 1052.11 52.733 L1053.24 59.8229 Q1053.58 62.3735 1053.8 63.6704 Q1054.06 64.9674 1054.45 66.7398 Q1054.84 68.5123 1055.22 69.3769 Q1055.66 70.1983 1056.26 71.1062 Q1056.87 71.9708 1057.65 72.2734 Q1058.47 72.576 1059.55 72.576 Q1061.58 72.576 1063.31 70.7603 Q1065.04 68.9446 1065.38 64.708 Q1065.56 63.2814 1066.46 63.2814 Q1067.59 63.2814 1067.59 64.708 Q1067.59 65.9617 1067.24 67.4315 Q1066.9 68.8581 1066.03 70.5441 Q1065.21 72.2302 1063.4 73.3542 Q1061.58 74.5214 1059.2 74.5214 Q1052.28 74.5214 1048.05 70.8035 Q1046.28 69.204 1045.45 67.1289 Q1044.68 65.0538 1044.55 63.4111 Q1044.42 61.7683 1044.42 58.1369 Q1044.42 52.9924 1043.85 50.7444 Q1043.34 48.4964 1041.04 46.2916 Q1037.93 43.2655 1032.79 43.2655 L1022.63 43.2655 L1022.63 65.6591 Q1022.63 68.2097 1023.71 69.0311 Q1024.83 69.8525 1029.63 69.8525 L1031.75 69.8525 L1031.75 72.576 Q1028.55 72.3166 1018.82 72.3166 Q1009.1 72.3166 1005.9 72.576 M1022.63 41.3201 L1032.44 41.3201 Q1037.15 41.3201 1040.31 40.1961 Q1043.51 39.0288 1045.02 36.9538 Q1046.53 34.8787 1047.1 32.8036 Q1047.66 30.6853 1047.66 28.0482 Q1047.66 24.9356 1046.97 22.6011 Q1046.28 20.2666 1044.76 18.8832 Q1043.25 17.4999 1041.74 16.6352 Q1040.22 15.7274 1037.89 15.3815 Q1035.55 15.0357 1033.95 14.9492 Q1032.36 14.8628 1029.8 14.8628 Q1025.48 14.8628 1024.57 15.0357 Q1023.58 15.1222 1023.19 15.5977 Q1022.8 16.0732 1022.71 16.6352 Q1022.63 17.154 1022.63 18.4077 L1022.63 41.3201 Z" fill="#000000" fill-rule="nonzero" fill-opacity="1" /><path clip-path="url(#clip290)" d="M1070.4 53.0789 Q1070.4 44.7353 1075.76 38.8127 Q1081.12 32.8901 1088.81 32.8901 Q1096.6 32.8901 1100.62 37.9481 Q1104.68 43.0061 1104.68 50.2689 Q1104.68 51.609 1104.33 51.8684 Q1103.99 52.1278 1102.48 52.1278 L1077.75 52.1278 Q1077.75 61.163 1080.43 65.3997 Q1084.15 71.3223 1090.41 71.3223 Q1091.28 71.3223 1092.32 71.1494 Q1093.35 70.9765 1095.47 70.2415 Q1097.59 69.4634 1099.45 67.4315 Q1101.31 65.3997 1102.39 62.2006 Q1102.65 60.9469 1103.51 60.9901 Q1104.68 60.9901 1104.68 62.0277 Q1104.68 62.8058 1103.82 64.5783 Q1102.99 66.3075 1101.39 68.3826 Q1099.8 70.4577 1096.68 72.014 Q1093.61 73.5703 1089.9 73.5703 Q1082.11 73.5703 1076.23 67.6909 Q1070.4 61.7683 1070.4 53.0789 M1077.83 50.2689 L1098.84 50.2689 Q1098.84 48.4099 1098.5 46.3349 Q1098.2 44.2598 1097.24 41.4065 Q1096.34 38.5101 1094.18 36.6944 Q1092.01 34.8787 1088.81 34.8787 Q1087.39 34.8787 1085.83 35.4839 Q1084.32 36.0891 1082.46 37.559 Q1080.6 39.0288 1079.3 42.3576 Q1078.01 45.6864 1077.83 50.2689 Z" fill="#000000" fill-rule="nonzero" fill-opacity="1" /><path clip-path="url(#clip290)" d="M1108.83 37.1699 L1108.83 34.4031 Q1113.63 34.6625 1117.04 34.6625 Q1118.73 34.6625 1126.73 34.4031 L1126.73 37.1699 Q1121.5 37.1699 1121.5 39.5476 Q1121.5 40.0664 1121.93 41.1472 L1130.36 64.7944 L1137.97 43.3519 Q1136.37 39.0288 1135.94 38.5101 Q1134.86 37.1699 1130.36 37.1699 L1130.36 34.4031 Q1134.34 34.6625 1138.23 34.6625 Q1139.74 34.6625 1147.44 34.4031 L1147.44 37.1699 Q1142.2 37.1699 1142.2 39.5476 Q1142.2 39.8935 1142.64 41.2336 L1151.41 65.9184 L1159.45 43.2655 Q1159.89 42.0982 1159.93 41.4065 Q1159.93 39.4611 1158.55 38.3804 Q1157.16 37.2564 1154.79 37.1699 L1154.79 34.4031 Q1159.84 34.6625 1163 34.6625 Q1166.54 34.6625 1169.48 34.4031 L1169.48 37.1699 Q1163.99 37.3428 1162.05 42.8332 L1151.67 71.8843 Q1150.68 73.4838 1149.9 73.5703 Q1148.73 73.5703 1148.13 71.8843 L1139.09 46.7239 L1130.14 71.7978 Q1129.8 72.8786 1129.5 73.2245 Q1129.19 73.5703 1128.37 73.5703 Q1127.59 73.5703 1127.25 73.0948 Q1126.9 72.6625 1126.51 71.5817 L1115.36 40.2393 Q1114.58 38.2075 1113.41 37.6887 Q1112.29 37.1699 1108.83 37.1699 Z" fill="#000000" fill-rule="nonzero" fill-opacity="1" /><path clip-path="url(#clip290)" d="M1172.38 64.146 Q1172.38 56.6238 1181.24 52.6466 Q1186.56 50.0959 1197.54 49.4475 L1197.54 46.2052 Q1197.54 40.7148 1194.64 37.8184 Q1191.79 34.8787 1188.16 34.8787 Q1181.67 34.8787 1178.56 38.9424 Q1181.2 39.0288 1182.15 40.369 Q1183.1 41.6659 1183.1 43.0061 Q1183.1 44.7785 1181.98 45.9458 Q1180.9 47.0698 1179.04 47.0698 Q1177.27 47.0698 1176.1 45.989 Q1174.93 44.865 1174.93 42.9196 Q1174.93 38.5965 1178.82 35.7433 Q1182.76 32.8901 1188.33 32.8901 Q1195.6 32.8901 1200.44 37.7751 Q1201.95 39.2882 1202.68 41.2336 Q1203.46 43.179 1203.55 44.4759 Q1203.64 45.7296 1203.64 48.237 L1203.64 65.9184 Q1203.64 66.4372 1203.81 67.3018 Q1203.98 68.1665 1204.76 69.2905 Q1205.58 70.3712 1206.92 70.3712 Q1210.12 70.3712 1210.08 64.708 L1210.08 59.7364 L1212.33 59.7364 L1212.33 64.708 Q1212.33 69.4201 1209.82 71.2791 Q1207.35 73.0948 1205.06 73.0948 Q1202.12 73.0948 1200.26 70.9332 Q1198.41 68.7717 1198.15 65.832 Q1196.81 69.204 1193.74 71.4088 Q1190.71 73.5703 1186.56 73.5703 Q1183.36 73.5703 1180.33 72.7489 Q1177.35 71.9708 1174.84 69.766 Q1172.38 67.518 1172.38 64.146 M1179.21 64.0595 Q1179.21 67.3451 1181.55 69.4634 Q1183.88 71.5817 1187.17 71.5817 Q1190.88 71.5817 1194.21 68.7285 Q1197.54 65.832 1197.54 60.1687 L1197.54 51.3064 Q1187.73 51.6523 1183.45 55.5863 Q1179.21 59.477 1179.21 64.0595 Z" fill="#000000" fill-rule="nonzero" fill-opacity="1" /><path clip-path="url(#clip290)" d="M1215.39 72.576 L1215.39 69.8525 Q1220.11 69.8525 1221.19 69.2905 Q1222.31 68.6852 1222.31 65.832 L1222.31 42.0982 Q1222.31 38.8127 1221.14 37.9913 Q1220.02 37.1699 1215.39 37.1699 L1215.39 34.4031 L1227.72 33.4521 L1227.72 43.179 Q1228.97 39.3747 1231.61 36.435 Q1234.29 33.4521 1238.61 33.4521 Q1241.46 33.4521 1243.28 35.0516 Q1245.14 36.6511 1245.14 38.8559 Q1245.14 40.8013 1243.93 41.7956 Q1242.76 42.7467 1241.33 42.7467 Q1239.73 42.7467 1238.61 41.7524 Q1237.53 40.7148 1237.53 38.9424 Q1237.53 37.8616 1238 37.0402 Q1238.52 36.1756 1238.91 35.873 Q1239.3 35.5704 1239.56 35.4839 Q1239.39 35.3974 1238.61 35.3974 Q1233.72 35.3974 1230.91 40.2825 Q1228.15 45.1244 1228.15 52.0413 L1228.15 65.6591 Q1228.15 68.2097 1229.19 69.0311 Q1230.27 69.8525 1234.89 69.8525 L1236.75 69.8525 L1236.75 72.576 Q1233.21 72.3166 1225.51 72.3166 Q1224.43 72.3166 1222.74 72.3598 Q1221.06 72.4031 1218.85 72.4895 Q1216.65 72.576 1215.39 72.576 Z" fill="#000000" fill-rule="nonzero" fill-opacity="1" /><path clip-path="url(#clip290)" d="M1250.54 53.5544 Q1250.54 45.1244 1256.42 39.2882 Q1262.3 33.4521 1270.25 33.4521 Q1277 33.4521 1281.41 38.9424 L1281.41 19.7911 Q1281.41 16.5055 1280.24 15.6842 Q1279.12 14.8628 1274.53 14.8628 L1274.53 12.096 L1287.29 11.1449 L1287.29 64.8809 Q1287.29 68.1665 1288.41 69.0311 Q1289.58 69.8525 1294.16 69.8525 L1294.16 72.576 L1281.15 73.5703 L1281.15 67.6909 Q1276.57 73.5271 1269.3 73.5703 Q1261.7 73.5703 1256.12 67.7341 Q1250.54 61.898 1250.54 53.5544 M1257.89 53.6409 Q1257.89 61.8547 1260.44 65.9184 Q1263.99 71.5817 1269.74 71.5817 Q1276.31 71.5817 1280.2 65.3997 Q1281.19 63.8866 1281.15 62.1141 L1281.15 43.9572 Q1281.15 42.1847 1280.2 40.7148 Q1276.57 35.3974 1270.64 35.3974 Q1264.46 35.3974 1260.61 41.0607 Q1257.89 45.2973 1257.89 53.6409 Z" fill="#000000" fill-rule="nonzero" fill-opacity="1" /><path clip-path="url(#clip290)" d="M1328.53 87.0151 Q1333.24 87.0151 1334.32 86.4099 Q1335.45 85.8479 1335.45 83.0379 L1335.45 41.5795 Q1335.45 38.6398 1334.32 37.9048 Q1333.24 37.1699 1328.53 37.1699 L1328.53 34.4031 L1341.28 33.4521 L1341.28 39.2882 Q1346.6 33.4521 1353.69 33.4521 Q1361.21 33.4521 1366.7 39.2882 Q1372.19 45.1244 1372.19 53.468 Q1372.19 61.898 1366.36 67.7341 Q1360.52 73.5703 1352.44 73.5703 Q1348.03 73.5703 1345.04 71.3223 Q1342.1 69.0311 1341.54 67.3451 L1341.54 68.1665 L1341.54 83.0379 Q1341.54 85.8911 1342.67 86.4531 Q1343.79 87.0151 1348.46 87.0151 L1348.46 89.7387 Q1339.16 89.4793 1338.47 89.4793 Q1337.61 89.4793 1328.53 89.7387 L1328.53 87.0151 M1341.54 62.5032 Q1341.54 63.8434 1341.72 64.3189 Q1341.93 64.7944 1342.8 66.2211 Q1346.3 71.5817 1352 71.5817 Q1352.05 71.5817 1352.09 71.5817 Q1357.15 71.5817 1361 66.4372 Q1364.84 61.2495 1364.84 53.468 Q1364.84 46.0322 1361.34 40.8445 Q1357.84 35.6568 1353 35.6568 Q1349.54 35.6568 1346.51 37.5158 Q1343.49 39.3747 1341.54 42.7467 L1341.54 62.5032 Z" fill="#000000" fill-rule="nonzero" fill-opacity="1" /><path clip-path="url(#clip290)" d="M1380.1 53.0789 Q1380.1 44.7353 1385.47 38.8127 Q1390.83 32.8901 1398.52 32.8901 Q1406.3 32.8901 1410.32 37.9481 Q1414.39 43.0061 1414.39 50.2689 Q1414.39 51.609 1414.04 51.8684 Q1413.69 52.1278 1412.18 52.1278 L1387.45 52.1278 Q1387.45 61.163 1390.13 65.3997 Q1393.85 71.3223 1400.12 71.3223 Q1400.98 71.3223 1402.02 71.1494 Q1403.06 70.9765 1405.18 70.2415 Q1407.3 69.4634 1409.16 67.4315 Q1411.01 65.3997 1412.1 62.2006 Q1412.35 60.9469 1413.22 60.9901 Q1414.39 60.9901 1414.39 62.0277 Q1414.39 62.8058 1413.52 64.5783 Q1412.7 66.3075 1411.1 68.3826 Q1409.5 70.4577 1406.39 72.014 Q1403.32 73.5703 1399.6 73.5703 Q1391.82 73.5703 1385.94 67.6909 Q1380.1 61.7683 1380.1 53.0789 M1387.54 50.2689 L1408.55 50.2689 Q1408.55 48.4099 1408.2 46.3349 Q1407.9 44.2598 1406.95 41.4065 Q1406.04 38.5101 1403.88 36.6944 Q1401.72 34.8787 1398.52 34.8787 Q1397.09 34.8787 1395.54 35.4839 Q1394.02 36.0891 1392.17 37.559 Q1390.31 39.0288 1389.01 42.3576 Q1387.71 45.6864 1387.54 50.2689 Z" fill="#000000" fill-rule="nonzero" fill-opacity="1" /><path clip-path="url(#clip290)" d="M1419.4 72.576 L1419.4 69.8525 Q1424.11 69.8525 1425.19 69.2905 Q1426.32 68.6852 1426.32 65.832 L1426.32 42.0982 Q1426.32 38.8127 1425.15 37.9913 Q1424.03 37.1699 1419.4 37.1699 L1419.4 34.4031 L1431.72 33.4521 L1431.72 43.179 Q1432.98 39.3747 1435.61 36.435 Q1438.29 33.4521 1442.62 33.4521 Q1445.47 33.4521 1447.29 35.0516 Q1449.14 36.6511 1449.14 38.8559 Q1449.14 40.8013 1447.93 41.7956 Q1446.77 42.7467 1445.34 42.7467 Q1443.74 42.7467 1442.62 41.7524 Q1441.54 40.7148 1441.54 38.9424 Q1441.54 37.8616 1442.01 37.0402 Q1442.53 36.1756 1442.92 35.873 Q1443.31 35.5704 1443.57 35.4839 Q1443.39 35.3974 1442.62 35.3974 Q1437.73 35.3974 1434.92 40.2825 Q1432.15 45.1244 1432.15 52.0413 L1432.15 65.6591 Q1432.15 68.2097 1433.19 69.0311 Q1434.27 69.8525 1438.9 69.8525 L1440.76 69.8525 L1440.76 72.576 Q1437.21 72.3166 1429.52 72.3166 Q1428.44 72.3166 1426.75 72.3598 Q1425.06 72.4031 1422.86 72.4895 Q1420.66 72.576 1419.4 72.576 Z" fill="#000000" fill-rule="nonzero" fill-opacity="1" /><path clip-path="url(#clip290)" d="M1483.43 72.576 L1483.43 69.8525 L1485.76 69.8525 Q1490.73 69.8525 1491.86 69.0743 Q1493.02 68.2529 1493.02 65.6591 L1493.02 19.0129 Q1493.02 16.4623 1491.86 15.6842 Q1490.69 14.8628 1485.76 14.8628 L1483.43 14.8628 L1483.43 12.096 Q1486.54 12.3554 1497 12.3554 Q1507.38 12.3554 1510.45 12.096 L1510.45 14.8628 L1508.15 14.8628 Q1503.18 14.8628 1502.02 15.6842 Q1500.89 16.4623 1500.89 19.0129 L1500.89 65.6591 Q1500.89 68.2097 1502.02 69.0311 Q1503.18 69.8525 1508.15 69.8525 L1510.45 69.8525 L1510.45 72.576 Q1507.33 72.3166 1496.91 72.3166 Q1486.54 72.3166 1483.43 72.576 Z" fill="#000000" fill-rule="nonzero" fill-opacity="1" /><path clip-path="url(#clip290)" d="M1515.76 72.576 L1515.76 69.8525 Q1520.48 69.8525 1521.56 69.2905 Q1522.64 68.6852 1522.64 65.832 L1522.64 42.0982 Q1522.64 38.8127 1521.47 37.9913 Q1520.35 37.1699 1515.76 37.1699 L1515.76 34.4031 L1528.21 33.4521 L1528.21 42.7467 Q1532.36 33.4521 1541.31 33.4521 Q1547.97 33.4521 1550.61 36.7376 Q1552.55 38.9424 1552.94 41.4065 Q1553.37 43.8707 1553.37 50.2689 L1553.37 67.1721 Q1553.46 69.0311 1554.89 69.4634 Q1556.31 69.8525 1560.29 69.8525 L1560.29 72.576 Q1551.26 72.3166 1550.35 72.3166 Q1549.66 72.3166 1540.36 72.576 L1540.36 69.8525 Q1545.07 69.8525 1546.15 69.2905 Q1547.28 68.6852 1547.28 65.832 L1547.28 45.2109 Q1547.28 40.7148 1545.89 38.0778 Q1544.51 35.3974 1540.71 35.3974 Q1536.12 35.3974 1532.45 39.245 Q1528.78 43.0925 1528.78 49.5772 L1528.78 65.832 Q1528.78 68.6852 1529.86 69.2905 Q1530.98 69.8525 1535.65 69.8525 L1535.65 72.576 Q1526.61 72.3166 1525.75 72.3166 Q1525.06 72.3166 1515.76 72.576 Z" fill="#000000" fill-rule="nonzero" fill-opacity="1" /><path clip-path="url(#clip290)" d="M1561.24 37.1699 L1561.24 35.2245 Q1565.31 35.0516 1567.99 32.1984 Q1570.71 29.3019 1571.62 25.757 Q1572.57 22.212 1572.65 18.1051 L1574.86 18.1051 L1574.86 34.4031 L1587.53 34.4031 L1587.53 37.1699 L1574.86 37.1699 L1574.86 61.7683 Q1574.86 71.3223 1580.83 71.3223 Q1583.38 71.3223 1585.06 68.7285 Q1586.75 66.0914 1586.75 61.4224 L1586.75 56.5373 L1588.95 56.5373 L1588.95 61.5954 Q1588.95 66.394 1586.75 69.9821 Q1584.54 73.5703 1580.18 73.5703 Q1578.58 73.5703 1576.98 73.138 Q1575.42 72.7489 1573.35 71.7114 Q1571.31 70.6306 1570.02 68.0368 Q1568.76 65.3997 1568.76 61.5954 L1568.76 37.1699 L1561.24 37.1699 Z" fill="#000000" fill-rule="nonzero" fill-opacity="1" /><path clip-path="url(#clip290)" d="M1596.35 53.0789 Q1596.35 44.7353 1601.71 38.8127 Q1607.07 32.8901 1614.76 32.8901 Q1622.54 32.8901 1626.56 37.9481 Q1630.63 43.0061 1630.63 50.2689 Q1630.63 51.609 1630.28 51.8684 Q1629.94 52.1278 1628.42 52.1278 L1603.69 52.1278 Q1603.69 61.163 1606.37 65.3997 Q1610.09 71.3223 1616.36 71.3223 Q1617.23 71.3223 1618.26 71.1494 Q1619.3 70.9765 1621.42 70.2415 Q1623.54 69.4634 1625.4 67.4315 Q1627.26 65.3997 1628.34 62.2006 Q1628.6 60.9469 1629.46 60.9901 Q1630.63 60.9901 1630.63 62.0277 Q1630.63 62.8058 1629.76 64.5783 Q1628.94 66.3075 1627.34 68.3826 Q1625.74 70.4577 1622.63 72.014 Q1619.56 73.5703 1615.84 73.5703 Q1608.06 73.5703 1602.18 67.6909 Q1596.35 61.7683 1596.35 53.0789 M1603.78 50.2689 L1624.79 50.2689 Q1624.79 48.4099 1624.45 46.3349 Q1624.14 44.2598 1623.19 41.4065 Q1622.28 38.5101 1620.12 36.6944 Q1617.96 34.8787 1614.76 34.8787 Q1613.34 34.8787 1611.78 35.4839 Q1610.27 36.0891 1608.41 37.559 Q1606.55 39.0288 1605.25 42.3576 Q1603.95 45.6864 1603.78 50.2689 Z" fill="#000000" fill-rule="nonzero" fill-opacity="1" /><path clip-path="url(#clip290)" d="M1635.64 72.576 L1635.64 69.8525 Q1640.35 69.8525 1641.44 69.2905 Q1642.56 68.6852 1642.56 65.832 L1642.56 42.0982 Q1642.56 38.8127 1641.39 37.9913 Q1640.27 37.1699 1635.64 37.1699 L1635.64 34.4031 L1647.96 33.4521 L1647.96 43.179 Q1649.22 39.3747 1651.85 36.435 Q1654.53 33.4521 1658.86 33.4521 Q1661.71 33.4521 1663.53 35.0516 Q1665.39 36.6511 1665.39 38.8559 Q1665.39 40.8013 1664.17 41.7956 Q1663.01 42.7467 1661.58 42.7467 Q1659.98 42.7467 1658.86 41.7524 Q1657.78 40.7148 1657.78 38.9424 Q1657.78 37.8616 1658.25 37.0402 Q1658.77 36.1756 1659.16 35.873 Q1659.55 35.5704 1659.81 35.4839 Q1659.64 35.3974 1658.86 35.3974 Q1653.97 35.3974 1651.16 40.2825 Q1648.4 45.1244 1648.4 52.0413 L1648.4 65.6591 Q1648.4 68.2097 1649.43 69.0311 Q1650.51 69.8525 1655.14 69.8525 L1657 69.8525 L1657 72.576 Q1653.45 72.3166 1645.76 72.3166 Q1644.68 72.3166 1642.99 72.3598 Q1641.31 72.4031 1639.1 72.4895 Q1636.9 72.576 1635.64 72.576 Z" fill="#000000" fill-rule="nonzero" fill-opacity="1" /><path clip-path="url(#clip290)" d="M1671.48 64.146 Q1671.48 56.6238 1680.34 52.6466 Q1685.66 50.0959 1696.64 49.4475 L1696.64 46.2052 Q1696.64 40.7148 1693.74 37.8184 Q1690.89 34.8787 1687.26 34.8787 Q1680.78 34.8787 1677.66 38.9424 Q1680.3 39.0288 1681.25 40.369 Q1682.2 41.6659 1682.2 43.0061 Q1682.2 44.7785 1681.08 45.9458 Q1680 47.0698 1678.14 47.0698 Q1676.37 47.0698 1675.2 45.989 Q1674.03 44.865 1674.03 42.9196 Q1674.03 38.5965 1677.92 35.7433 Q1681.86 32.8901 1687.43 32.8901 Q1694.7 32.8901 1699.54 37.7751 Q1701.05 39.2882 1701.79 41.2336 Q1702.56 43.179 1702.65 44.4759 Q1702.74 45.7296 1702.74 48.237 L1702.74 65.9184 Q1702.74 66.4372 1702.91 67.3018 Q1703.08 68.1665 1703.86 69.2905 Q1704.68 70.3712 1706.02 70.3712 Q1709.22 70.3712 1709.18 64.708 L1709.18 59.7364 L1711.43 59.7364 L1711.43 64.708 Q1711.43 69.4201 1708.92 71.2791 Q1706.45 73.0948 1704.16 73.0948 Q1701.22 73.0948 1699.36 70.9332 Q1697.51 68.7717 1697.25 65.832 Q1695.91 69.204 1692.84 71.4088 Q1689.81 73.5703 1685.66 73.5703 Q1682.46 73.5703 1679.44 72.7489 Q1676.45 71.9708 1673.94 69.766 Q1671.48 67.518 1671.48 64.146 M1678.31 64.0595 Q1678.31 67.3451 1680.65 69.4634 Q1682.98 71.5817 1686.27 71.5817 Q1689.98 71.5817 1693.31 68.7285 Q1696.64 65.832 1696.64 60.1687 L1696.64 51.3064 Q1686.83 51.6523 1682.55 55.5863 Q1678.31 59.477 1678.31 64.0595 Z" fill="#000000" fill-rule="nonzero" fill-opacity="1" /><path clip-path="url(#clip290)" d="M1720.68 67.7341 Q1715.06 61.8547 1715.06 53.468 Q1715.06 45.0379 1720.59 38.9856 Q1726.12 32.8901 1734.25 32.8901 Q1739.66 32.8901 1743.72 35.4839 Q1747.78 38.0345 1747.78 42.4008 Q1747.78 44.3462 1746.62 45.4702 Q1745.49 46.551 1743.72 46.551 Q1741.86 46.551 1740.74 45.427 Q1739.66 44.2598 1739.66 42.4873 Q1739.66 41.7092 1739.92 40.931 Q1740.17 40.1528 1741.13 39.3315 Q1742.12 38.5101 1743.81 38.3804 Q1740.65 35.1381 1734.51 35.1381 Q1734.42 35.1381 1734.34 35.1381 Q1729.84 35.1381 1726.12 39.3747 Q1722.41 43.6113 1722.41 53.295 Q1722.41 58.353 1723.62 62.0709 Q1724.87 65.7455 1726.9 67.6477 Q1728.93 69.5498 1730.92 70.4577 Q1732.91 71.3223 1734.86 71.3223 Q1743.55 71.3223 1746.49 62.0277 Q1746.75 61.163 1747.61 61.163 Q1748.78 61.163 1748.78 62.0277 Q1748.78 62.46 1748.43 63.584 Q1748.09 64.708 1747 66.4804 Q1745.92 68.2529 1744.37 69.8092 Q1742.85 71.3223 1740.13 72.4463 Q1737.45 73.5703 1734.08 73.5703 Q1726.3 73.5703 1720.68 67.7341 Z" fill="#000000" fill-rule="nonzero" fill-opacity="1" /><path clip-path="url(#clip290)" d="M1753.01 37.1699 L1753.01 35.2245 Q1757.08 35.0516 1759.76 32.1984 Q1762.48 29.3019 1763.39 25.757 Q1764.34 22.212 1764.43 18.1051 L1766.63 18.1051 L1766.63 34.4031 L1779.3 34.4031 L1779.3 37.1699 L1766.63 37.1699 L1766.63 61.7683 Q1766.63 71.3223 1772.6 71.3223 Q1775.15 71.3223 1776.83 68.7285 Q1778.52 66.0914 1778.52 61.4224 L1778.52 56.5373 L1780.73 56.5373 L1780.73 61.5954 Q1780.73 66.394 1778.52 69.9821 Q1776.32 73.5703 1771.95 73.5703 Q1770.35 73.5703 1768.75 73.138 Q1767.19 72.7489 1765.12 71.7114 Q1763.09 70.6306 1761.79 68.0368 Q1760.54 65.3997 1760.54 61.5954 L1760.54 37.1699 L1753.01 37.1699 Z" fill="#000000" fill-rule="nonzero" fill-opacity="1" /><path clip-path="url(#clip290)" d="M1788.59 72.576 L1788.59 69.8525 Q1793.31 69.8525 1794.39 69.2905 Q1795.47 68.6852 1795.47 65.832 L1795.47 42.0118 Q1795.47 38.7262 1794.34 37.9481 Q1793.26 37.1699 1788.94 37.1699 L1788.94 34.4031 L1801.3 33.4521 L1801.3 65.9184 Q1801.3 68.5555 1802.25 69.204 Q1803.21 69.8525 1807.53 69.8525 L1807.53 72.576 Q1798.49 72.3166 1798.32 72.3166 Q1797.11 72.3166 1788.59 72.576 M1792.31 18.0186 Q1792.31 16.2462 1793.65 14.8195 Q1795.03 13.3497 1796.98 13.3497 Q1798.93 13.3497 1800.31 14.6899 Q1801.69 15.9868 1801.69 18.0619 Q1801.69 20.0937 1800.31 21.4339 Q1798.93 22.7308 1796.98 22.7308 Q1794.95 22.7308 1793.61 21.3042 Q1792.31 19.8776 1792.31 18.0186 Z" fill="#000000" fill-rule="nonzero" fill-opacity="1" /><path clip-path="url(#clip290)" d="M1818.47 67.8206 Q1812.63 62.0277 1812.63 53.6409 Q1812.63 45.2109 1818.34 39.0721 Q1824.09 32.8901 1832.3 32.8901 Q1840.34 32.8901 1846.09 39.0288 Q1851.88 45.1244 1851.88 53.6409 Q1851.88 61.9844 1846.05 67.7774 Q1840.25 73.5703 1832.21 73.5703 Q1824.34 73.5703 1818.47 67.8206 M1819.98 52.9059 Q1819.98 61.5089 1822.23 65.3997 Q1825.69 71.3223 1832.3 71.3223 Q1835.59 71.3223 1838.31 69.5498 Q1841.08 67.7774 1842.59 64.7944 Q1844.53 60.9037 1844.53 52.9059 Q1844.53 44.3895 1842.2 40.6284 Q1838.74 34.8787 1832.21 34.8787 Q1829.36 34.8787 1826.55 36.3918 Q1823.78 37.8616 1822.1 40.8013 Q1819.98 44.6921 1819.98 52.9059 Z" fill="#000000" fill-rule="nonzero" fill-opacity="1" /><path clip-path="url(#clip290)" d="M1857.29 72.576 L1857.29 69.8525 Q1862 69.8525 1863.08 69.2905 Q1864.16 68.6852 1864.16 65.832 L1864.16 42.0982 Q1864.16 38.8127 1862.99 37.9913 Q1861.87 37.1699 1857.29 37.1699 L1857.29 34.4031 L1869.74 33.4521 L1869.74 42.7467 Q1873.89 33.4521 1882.84 33.4521 Q1889.49 33.4521 1892.13 36.7376 Q1894.08 38.9424 1894.47 41.4065 Q1894.9 43.8707 1894.9 50.2689 L1894.9 67.1721 Q1894.98 69.0311 1896.41 69.4634 Q1897.84 69.8525 1901.81 69.8525 L1901.81 72.576 Q1892.78 72.3166 1891.87 72.3166 Q1891.18 72.3166 1881.89 72.576 L1881.89 69.8525 Q1886.6 69.8525 1887.68 69.2905 Q1888.8 68.6852 1888.8 65.832 L1888.8 45.2109 Q1888.8 40.7148 1887.42 38.0778 Q1886.04 35.3974 1882.23 35.3974 Q1877.65 35.3974 1873.97 39.245 Q1870.3 43.0925 1870.3 49.5772 L1870.3 65.832 Q1870.3 68.6852 1871.38 69.2905 Q1872.5 69.8525 1877.17 69.8525 L1877.17 72.576 Q1868.14 72.3166 1867.27 72.3166 Q1866.58 72.3166 1857.29 72.576 Z" fill="#000000" fill-rule="nonzero" fill-opacity="1" /><polyline clip-path="url(#clip292)" style="stroke:#009af9; stroke-linecap:round; stroke-linejoin:round; stroke-width:4; stroke-opacity:1; fill:none" points="344.426,400.112 364.121,405.551 383.817,310.372 403.512,292.616 423.207,236.653 442.903,229.355 462.598,238.595 482.293,260.078 501.988,160.256 521.684,243.477 541.379,191.708 561.074,205.14 580.77,191.42 600.465,274.642 620.16,633.616 639.856,465.244 659.551,408.222 679.246,467.883 698.941,435.637 718.637,390.779 738.332,250.586 758.027,578.766 777.723,255.203 797.418,248.056 817.113,258.866 836.809,329.052 856.504,503.936 876.199,344.529 895.894,365.809 915.59,564.097 935.285,640.291 954.98,560.298 974.676,609.488 994.371,443.437 1014.07,458.623 1033.76,714.015 1053.46,444.555 1073.15,725.2 1092.85,704.038 1112.54,757.436 1132.24,436.774 1151.93,817.377 1171.63,551.428 1191.32,632.666 1211.02,870.083 1230.71,471.743 1250.41,612.054 1270.11,701.057 1289.8,614.677 1309.5,500.892 1329.19,679.295 1348.89,638.253 1368.58,898.475 1388.28,563.626 1407.97,661.373 1427.67,715.588 1447.36,780.35 1467.06,625.446 1486.75,484.135 1506.45,395.793 1526.14,582.597 1545.84,1012.86 1565.53,762.766 1585.23,856.019 1604.93,749.848 1624.62,899.733 1644.32,800.733 1664.01,870.828 1683.71,894.56 1703.4,900.529 1723.1,837.128 1742.79,605.383 1762.49,647.021 1782.18,992.87 1801.88,1049.62 1821.57,700.848 1841.27,859.792 1860.96,695.168 1880.66,787.746 1900.35,932.768 1920.05,962.811 1939.75,629.202 1959.44,910.136 1979.14,890.3 1998.83,790.317 2018.53,1061.01 2038.22,664.837 2057.92,1107.09 2077.61,566.719 2097.31,869.717 2117,770.588 2136.7,719.946 2156.39,1386.4 2176.09,571.765 2195.78,754.287 2215.48,769.281 2235.17,943.4 2254.87,706.492 2274.57,667.094 2294.26,993.161 "/>
</svg>
